<?xml version="1.0" encoding="UTF-8" standalone="no"?>
<svg
   xmlns:dc="http://purl.org/dc/elements/1.1/"
   xmlns:cc="http://creativecommons.org/ns#"
   xmlns:rdf="http://www.w3.org/1999/02/22-rdf-syntax-ns#"
   xmlns:svg="http://www.w3.org/2000/svg"
   xmlns="http://www.w3.org/2000/svg"
   xmlns:sodipodi="http://sodipodi.sourceforge.net/DTD/sodipodi-0.dtd"
   xmlns:inkscape="http://www.inkscape.org/namespaces/inkscape"
   version="1.1"
   id="svg2"
   xml:space="preserve"
   width="324"
   height="278.66666"
   viewBox="0 0 324 278.66666"
   sodipodi:docname="Синий_Лис_Лого_Мини_Светлый.eps"><metadata
     id="metadata8"><rdf:RDF><cc:Work
         rdf:about=""><dc:format>image/svg+xml</dc:format><dc:type
           rdf:resource="http://purl.org/dc/dcmitype/StillImage" /></cc:Work></rdf:RDF></metadata><defs
     id="defs6" /><sodipodi:namedview
     pagecolor="#ffffff"
     bordercolor="#666666"
     borderopacity="1"
     objecttolerance="10"
     gridtolerance="10"
     guidetolerance="10"
     inkscape:pageopacity="0"
     inkscape:pageshadow="2"
     inkscape:window-width="640"
     inkscape:window-height="480"
     id="namedview4" /><g
     id="g10"
     inkscape:groupmode="layer"
     inkscape:label="ink_ext_XXXXXX"
     transform="matrix(1.3333333,0,0,-1.3333333,0,278.66667)"><g
       id="g12"
       transform="scale(0.1)"><path
         d="m 1650.57,1700.21 c -2.02,1.04 -3.96,3.75 -4.29,8.08 -0.21,2.77 0.22,6.36 1.74,10.78 1.49,4.31 4.01,9.04 7.59,11.92 2.41,1.95 4.88,2.56 6.76,1.92 14.38,-6.71 27.97,-9.99 43.89,-7.16 13.4,2.39 24.5,8.86 31.06,21.06 1.34,2.69 11.18,7.61 17.82,9.8 2.34,0.77 6.59,2.22 8.61,0.27 0.77,-0.74 1.09,-1.68 0.93,-2.79 -1.09,-7.4 -3.38,-14.29 -6.62,-20.57 -7.61,-14.75 -20.51,-26.16 -35.61,-33.25 -15.05,-7.06 -32.33,-9.86 -48.78,-7.42 -8,1.18 -15.83,3.6 -23.1,7.36 z M 905.438,438.246 c -2.243,5.024 0.015,10.922 5.039,13.164 5.027,2.242 10.921,-0.015 13.164,-5.043 42.32,-94.765 113.129,-208.972 183.969,-294.652 59.72,-72.2306 118.59,-123.6994 158.44,-124.3908 69.84,-1.2148 221.16,163.3988 389.86,391.3208 156.59,211.554 404.28,608.445 444.87,875.685 8.97,59.06 18.7,109.3 -16.93,123.56 -5.1,2.04 -10.41,3.53 -15.87,4.48 l -0.04,0.01 c -40.55,7.07 -88.84,-15.11 -132.45,-52.09 -15.44,-13.1 -30.24,-28.02 -43.87,-44.14 51.28,-18.1 94.89,-58.81 111.43,-111.25 8.36,-26.51 8.78,-53.86 1.56,-79.9 -13.79,-49.68 -45.04,-76.06 -79.38,-83.93 -15.44,-3.54 -31.45,-3.29 -46.71,0.3 -15.25,3.58 -29.8,10.48 -42.36,20.25 -29.37,22.84 -48.03,61.23 -39.62,109.44 8.3,47.55 32.5,94.71 60.61,133.41 -19.32,3.21 -39.96,2.97 -60.82,-2.38 -34.1,-8.76 -61.44,-30.74 -81.17,-60.13 -21.88,-32.62 -34.42,-74.29 -36.56,-117.34 -0.81,-16.39 0.45,-40.23 4.97,-64.22 17.8,8.8 39.31,13.25 58.99,9.94 31.05,-5.23 49.3,-27.75 57.12,-57.02 9.15,-34.293 -19.34,-63.707 -53.28,-61.617 -40.38,2.485 -64.13,40.477 -75.01,74.937 -42.03,-41.995 -70.12,-88.941 -117.95,-130.839 -22.91,-20.071 -45.23,-33.961 -61.13,-31.278 -22.77,3.836 -33.61,28.696 -38.79,48.61 -6.28,-13.543 -16.43,-34.297 -28.35,-52.645 -14.87,-22.863 -32.62,-41.98 -49.69,-39.558 -22.22,3.172 -30.42,29.383 -34.05,48.496 -13.83,-29.121 -47.52,-94.074 -86.05,-90.738 -24.09,2.089 -36.03,29.57 -40.95,66.933 -4.79,36.313 -3.05,82.133 0.45,122.473 1.98,22.826 4.54,44.106 6.76,60.706 2.2,16.43 4.09,28.27 4.74,32.35 1.62,10.16 16.6,9.31 24.02,8.05 7.23,-1.24 18.96,-4.98 17.51,-14.41 -2.06,-12.96 -8.55,-53.7 -13.63,-99.52 -3.93,-35.497 -7.14,-73.903 -6.9,-103.618 0.23,-28.398 3.25,-48.562 11.25,-49.449 28.3,-3.14 68.77,90.449 78.53,116.531 -0.9,61.024 6.76,128.246 16.33,188.396 1.46,9.31 14.97,10 22.25,9.03 7.69,-1.03 20.8,-5.64 19.29,-15.32 -10.99,-69.28 -24.12,-154.856 -22.4,-224.227 0.48,-19.32 2.41,-31.871 6.61,-31.883 8.69,0.161 19.52,12.567 30.02,29.129 17.12,26.977 32.79,64.563 38.17,80.356 -2.43,38.095 1.81,78.445 8.35,115.855 6.26,35.81 18.1,77.15 42.22,104.98 11.3,13.04 32.21,27.5 50.63,21.45 12.19,-4.02 20.64,-16.87 26.1,-32.94 5.29,-15.56 7.84,-34.3 8.29,-50.73 0.23,-8.9 -0.09,-26.6 -3.36,-34.86 -1.65,-4.11 -6.32,-6.59 -10.66,-6.08 -3.38,0.4 -5.98,2.75 -5.48,6.36 1.12,4.89 1.66,12.43 1.55,21.18 -0.17,14.54 -2.09,32.31 -5.94,46.89 -3.67,13.85 -8.93,24.63 -15.77,26.19 -4.49,1.04 -10.92,-4.76 -13.75,-7.85 -20.75,-22.59 -32.69,-95.37 -36.86,-125.79 -2.1,-15.28 -6.36,-61.718 -4.72,-99.011 0.94,-21.593 3.79,-39.933 10.04,-46.707 7.39,-2.515 27.62,11.305 51.78,32.625 42.9,37.871 74.45,85.403 115.73,122.943 -6.12,28.28 -7.86,57.4 -6.9,76.83 2.31,46.59 16,91.86 39.92,127.5 22.34,33.29 53.58,58.26 92.81,68.34 27.59,7.07 54.66,6.36 79.32,0.79 15.9,19.62 33.45,37.72 51.87,53.34 47.84,40.57 101.9,64.72 148.78,56.54 6.76,-1.19 13.41,-3.06 19.89,-5.65 46.8,-18.73 39.58,-77.2 29.28,-145.05 C 2079.39,1020.4 1830.65,621.211 1671.92,406.766 1499.7,174.078 1341.91,6.07813 1265.74,7.40234 1219.34,8.21094 1155.34,62.6367 1092.22,138.984 1020.36,225.895 948.461,341.891 905.438,438.246 Z M 1878.27,1309.5 c -28.61,-37.72 -53.81,-84.72 -62.04,-131.87 -6.98,-39.97 8.22,-71.58 32.2,-90.23 10.29,-8.01 22.18,-13.65 34.61,-16.58 12.41,-2.91 25.35,-3.13 37.74,-0.29 27.7,6.35 53.08,28.23 64.61,69.79 6.18,22.26 5.8,45.73 -1.41,68.57 -15.41,48.84 -57.39,85.83 -105.71,100.61 z m -190.09,-259.21 c 7.61,-27.8 25.28,-66.56 59.39,-68.665 20.5,-1.266 38.44,15.445 32.81,36.535 -5.75,21.55 -17.97,38.59 -41.1,42.49 -16.77,2.82 -36.41,-1.99 -51.1,-10.36 z M 1279.03,722.547 c -2.07,18.137 -1.26,33.312 2.55,43.543 4.62,12.394 12.99,18.789 25.31,17.25 23.25,-2.906 22.25,-19.93 10.87,-41.074 -4.49,-8.352 -10.9,-17.571 -17.7,-26.414 1.73,-10.891 4.46,-22.872 8.15,-35.5 16.65,19.363 34.27,37.855 52.27,54.793 46.31,43.55 95.5,77.062 138.09,89.304 30.43,8.746 59.02,12.867 85.01,12.547 34.37,-0.422 64.13,-8.641 87.54,-24.215 23.81,-15.847 40.94,-39.097 49.63,-69.293 4.38,-15.246 6.57,-32.336 6.34,-51.191 l -0.14,-6.063 c -2.49,-70.652 -33.13,-127.761 -75.58,-167.058 -42.53,-39.371 -97.07,-60.867 -147.19,-60.25 l -3.9,0.09 c -97.33,3.437 -165.92,96.839 -199.24,181.07 -18.7,-24.031 -35.57,-48.887 -49.55,-73.328 l -11.7,-20.293 c -62.08,-107.727 -135.66,-235.41 -89.3,-349.988 12.3,-30.391 31.59,-51.477 52.43,-65.469 28.33,-19.012 59.34,-25.055 79.58,-23.629 20.94,1.473 46.18,12.078 65.38,31.715 15.43,15.789 26.89,37.457 28.94,64.957 v 0.039 c 0.32,4.398 0.35,8.746 0.11,13 -1.28,21.707 -9.66,42.402 -23.35,58.058 -13.48,15.418 -32.19,25.93 -54.35,27.571 l -0.03,0.004 c -3.72,0.277 -7.5,0.308 -11.3,0.09 -16.06,-0.946 -29.41,-7.899 -39.48,-17.516 -12.25,-11.684 -19.67,-27.18 -21.31,-40.668 -1.17,-9.547 0.8,-21.609 7.67,-31.527 5.3,-7.645 13.66,-14.063 25.96,-17.063 6.6,-1.609 13.47,0.363 18.95,4.277 3.38,2.414 6.19,5.524 8.06,8.95 1.71,3.132 2.61,6.531 2.39,9.836 -0.28,4.109 -2.48,8.351 -7.28,12.113 -4.34,3.387 -5.11,9.652 -1.72,13.984 3.39,4.336 9.65,5.106 13.99,1.719 9.76,-7.648 14.28,-17 14.93,-26.488 0.49,-7.196 -1.33,-14.313 -4.81,-20.696 -3.32,-6.093 -8.2,-11.531 -14,-15.671 -9.84,-7.032 -22.53,-10.489 -35.2,-7.403 -17.64,4.305 -29.82,13.766 -37.67,25.117 -9.92,14.321 -12.78,31.618 -11.11,45.27 2.14,17.621 11.68,37.715 27.39,52.707 13.21,12.609 30.8,21.73 52.06,22.976 h 0.04 c 4.79,0.278 9.44,0.243 13.92,-0.089 27.75,-2.071 51.11,-15.168 67.9,-34.368 16.59,-18.968 26.74,-43.925 28.27,-70.007 0.31,-5.235 0.28,-10.477 -0.11,-15.661 -2.45,-32.73 -16.13,-58.562 -34.57,-77.417 -22.81,-23.336 -53.05,-35.9536 -78.27,-37.731 -23.65,-1.6679 -59.65,5.2188 -92.07,26.984 -23.86,16.016 -45.9,40.043 -59.85,74.532 -50,123.547 26.23,255.816 90.54,367.414 l 11.63,20.293 c 16.34,28.558 36.49,57.656 58.89,85.449 -3.81,11.531 -6.92,22.723 -9.31,33.293 -8.89,-10.695 -18.12,-20.16 -27.74,-27.805 -15.5,-12.316 -32.03,-19.941 -49.85,-20.449 -24.98,-0.719 -44.39,8.246 -59.5,22.816 -14.94,14.407 -25.61,34.282 -33.31,55.633 -9.58,26.567 -14.83,56.367 -17.64,86.586 -2.07,22.336 -2.82,44.91 -3.01,66.574 -28.33,-108.066 -68.25,-228.851 -119.657,-313.773 -30.695,-50.711 -85.648,-120.102 -153.312,-110.25 -30.473,4.445 -52.305,29.328 -53.535,59.918 -113.742,-13.086 -164.324,137.832 -153.36,228.117 1.485,12.195 3.454,24.254 5.922,36.106 -51.652,36.609 -101.918,83.675 -147.398,138.285 -85.574,102.76 -154.414,232.44 -183.746,369.58 -18.235,85.27 -21.574,152.56 -14.031,202.03 8.808,57.75 32.636,92.3 65.394,103.9 22.68,8.02 47.492,5.02 72.414,-6.11 31.891,-14.25 64.16,-42.07 92.125,-76.94 27.719,-34.55 51.387,-76.19 66.344,-118.46 19.43,-54.91 24.25,-111.22 4.543,-155.32 -14.164,-31.71 -43.504,-52.32 -78.836,-50.19 -63.371,3.85 -113.934,75.41 -110.297,135.34 2.109,34.67 25.367,59.72 60.133,61.29 41.926,1.9 74.66,-29.96 84.195,-69.48 8.477,-35.16 -17.562,-69.59 -54.656,-58.32 -13.641,4.14 -24.707,14.45 -25.68,29.28 -0.48,7.31 1.567,15.61 7.196,24.72 2.89,4.68 9.035,6.13 13.714,3.24 4.68,-2.89 6.133,-9.04 3.243,-13.72 -3.243,-5.24 -4.454,-9.55 -4.231,-12.98 0.402,-6.15 6.172,-9.84 11.543,-11.47 22.191,-6.75 34.297,14.63 29.492,34.57 -7.261,30.11 -31.609,55.69 -63.953,54.24 -24.445,-1.1 -39.601,-18.34 -41.074,-42.54 -2.926,-48.99 39.242,-111.07 91.551,-114.25 27.027,-1.61 48.679,14.27 59.457,38.4 17.422,38.99 12.691,90.08 -5.168,140.55 -14.219,40.17 -36.715,79.76 -63.063,112.6 -26.097,32.54 -55.797,58.32 -84.703,71.24 -20.328,9.08 -40.129,11.68 -57.652,5.48 -25.676,-9.09 -44.676,-38.31 -52.266,-88.05 -7.211,-47.28 -3.898,-112.16 13.797,-194.91 28.637,-133.89 95.898,-260.56 179.527,-360.99 42.485,-51.015 89.137,-95.207 137.032,-130.078 13.82,52.16 37.89,99.004 73.144,133.188 41.594,40.339 98.391,62.98 171.777,56.054 79.833,-7.519 135.455,-84.129 128.083,-162.219 -4.797,-50.921 -31.45,-95.98 -79.829,-117.941 -89.105,-40.437 -205.461,8.57 -280.187,57.727 -1.602,-8.629 -2.942,-17.371 -4.012,-26.192 -9.254,-76.211 34.52,-223.57 134.535,-205.465 1.598,15.586 5.481,33.067 11.114,48.18 7.418,19.906 24.207,51.059 50.207,41.375 19.035,-7.09 15.527,-35.769 9.925,-50.805 -4.664,-12.519 -13.199,-26.05 -26.64,-38.109 -7.735,-6.945 -16.192,-12.148 -25.125,-15.711 -0.207,-20.726 10.828,-37.836 32.012,-41.703 29.015,-5.258 57.285,9.754 77.707,29.176 22.234,21.148 42.726,52.644 62.589,92.027 28.856,57.219 54.726,127.305 76.656,197.535 30.43,97.492 53.26,195.266 65.96,259.391 2.23,10.28 2.85,19.46 4.4,29.02 1.43,8.82 0.09,18.96 9.5,22.98 5.95,2.53 13.8,3.56 20.31,3.99 5.78,0.37 23.05,1.51 23.36,-7.41 -1.39,-31.12 -5.44,-69.41 -8.93,-100.7 -5.23,-46.907 -10.5,-94.146 -9.81,-146.447 0.64,-48.625 4.43,-94.523 14.84,-128.8 10.16,-33.461 26.61,-55.703 52.64,-58.129 9.44,-0.883 19.45,2.777 28.85,8.648 12.37,7.719 23.65,19.231 31.46,29.461 l 0.21,0.235 c 3.86,4.039 6.55,7.765 9.21,11.449 z m 19.03,25.426 c 0.75,1.273 1.46,2.527 2.12,3.75 3.53,6.55 5.73,11.597 4.29,11.773 -1.69,0.211 -3.11,-1.394 -4.22,-4.359 -1.1,-2.981 -1.84,-6.739 -2.19,-11.164 z m 17.46,-89.891 c 29.36,-81.074 93.82,-175.91 185.46,-179.144 l 3.43,-0.09 c 45.24,-0.559 94.67,19.047 133.45,54.937 38.85,35.961 66.89,88.305 69.17,153.153 l 0.14,5.593 c 0.21,16.742 -1.74,31.93 -5.64,45.485 -7.32,25.441 -21.62,44.945 -41.43,58.125 -20.22,13.457 -46.31,20.558 -76.75,20.933 -23.94,0.293 -50.62,-3.594 -79.31,-11.844 -39.41,-11.328 -85.75,-43.109 -129.88,-84.617 -20.36,-19.148 -40.2,-40.34 -58.64,-62.531 z M 796.984,576.207 c -3.933,-10.551 -6.925,-22.262 -8.738,-33.34 3.567,2.137 7,4.664 10.27,7.598 10.789,9.68 17.589,20.39 21.25,30.226 1.98,5.309 5.613,20.34 1.504,25.278 -10.606,3.476 -21.5,-22.297 -24.286,-29.762 z m -86.25,342.516 c -34.113,-33.082 -56.988,-79.446 -69.574,-131.16 68.957,-46.653 183.258,-98.672 267.496,-60.446 41.508,18.844 64.086,57.992 68.188,101.613 6.344,67.188 -41.168,133.985 -110.114,140.5 -66.906,6.317 -118.453,-14.093 -155.996,-50.507 z m -30.921,584.297 c -41.043,15.91 -85.192,35.82 -129.422,58.27 -74.637,37.88 -149.59,83 -210.317,128.32 -51.101,38.15 -97.836,78.58 -139.051,118.27 -64.125,61.75 -114.7847,121.64 -147.7613,168.33 -35.2851,49.97 -50.25779,87.61 -41.0547,99.94 l 1.2657,1.46 c 25.6171,26.6 242.2973,-36.11 477.5903,-134.35 189.402,-79.09 392.32,-180.37 517.417,-274.56 4.24,-3.2 8.33,-6.43 12.27,-9.67 14.87,-12.27 28.23,-25.31 40.02,-38.55 16.32,5.55 35.81,8.45 56.11,8.63 24.48,0.23 50.38,-3.45 73.32,-11.11 23.6,-7.88 44.28,-20.07 57.57,-36.7 l 0.49,-0.67 c 9.41,-12.03 14.97,-26.23 15.12,-42.61 0.05,-5.23 -0.62,-10.2 -1.9,-14.81 -2.8,-10.18 -8.59,-18.73 -16.24,-24.78 -7.72,-6.11 -17.31,-9.64 -27.69,-9.73 -4.38,-0.04 -8.89,0.53 -13.41,1.78 -20.87,5.77 -30.84,18.81 -33.17,32.2 -1.18,6.79 -0.31,13.65 2.15,19.7 2.49,6.14 6.69,11.53 12.11,15.28 9.77,6.79 23.13,8.29 37.26,-0.48 4.68,-2.89 6.14,-9.04 3.24,-13.72 -2.89,-4.67 -9.03,-6.13 -13.71,-3.24 -6.31,3.92 -11.77,3.6 -15.47,1.04 -2.14,-1.49 -3.85,-3.74 -4.92,-6.38 -1.1,-2.72 -1.49,-5.8 -0.97,-8.84 1.13,-6.48 6.72,-13 18.79,-16.34 2.73,-0.75 5.4,-1.1 7.94,-1.08 5.82,0.05 11.2,2.02 15.51,5.43 4.37,3.46 7.7,8.45 9.37,14.47 0.8,2.9 1.21,6.04 1.19,9.34 -0.11,11.65 -4.09,21.8 -10.82,30.45 l -0.49,0.57 c -10.72,13.41 -28.11,23.48 -48.28,30.21 -20.84,6.97 -44.46,10.3 -66.84,10.1 -15.24,-0.14 -29.81,-1.9 -42.38,-5.24 13.37,-16.95 24.15,-33.82 32.27,-49.4 18.41,-35.37 23.01,-65.93 13.35,-78.76 l -0.58,-0.71 c -9.79,-11.87 -27.61,-17.31 -48.08,-18.19 -18.8,-0.82 -40.2,2.09 -59.25,7.19 -19.446,5.2 -36.872,12.85 -47.18,21.34 -7.164,5.91 -11.45,12.63 -11.766,19.92 -0.473,10.93 8.293,21.65 21.387,29.97 9.523,6.06 21.695,11.21 33.949,14.23 0.09,4.54 0.5,9.14 1.28,13.7 2.82,16.38 10.32,32.47 23.69,43.16 2.44,1.95 5.1,3.77 7.96,5.47 -10.07,10.9 -21.28,21.61 -33.59,31.77 -3.8,3.13 -7.66,6.18 -11.57,9.12 -123.586,93.05 -324.93,193.48 -513.118,272.06 -227.675,95.07 -433.9098,159.45 -455.3122,139.16 -3.4375,-5.77 11.8204,-34.25 41.5,-76.28 32.3632,-45.82 82.1522,-104.68 145.2622,-165.45 40.527,-39.02 86.609,-78.88 137.179,-116.62 59.918,-44.72 133.801,-89.2 207.348,-126.52 44.586,-22.63 89.023,-42.63 130.133,-58.45 2.41,4.13 4.875,8.19 7.402,12.15 30.758,48.19 70.352,82.87 118.363,79.62 25.793,-1.74 45.032,-16.86 58.961,-37.53 18.598,-27.6 27.703,-65.2 30.305,-93.58 0.723,-7.84 -2.594,-12.94 -8.02,-16.29 -4.953,-3.05 -11.64,-4.49 -18.453,-5.23 -16.379,-2.65 -40.304,-0.52 -66.109,4.11 -31.465,5.65 -65.82,15.02 -92.563,23.91 -25.464,-57.07 -40.816,-122.32 -49.109,-184.1 -8.43,-62.92 -15.887,-183.51 28.43,-235.86 10.269,-12.13 23.82,-20.69 41.719,-21.95 48.355,-3.48 89.691,48.7 112.535,85 14.25,22.64 25.543,45.77 33.062,63.91 0.164,12.62 0.68,25.7 1.43,38.84 0.855,15.02 2.043,30.28 3.394,45.05 1.676,18.37 3.579,35.69 5.411,50.79 2.515,20.75 4.96,37.79 6.539,47.7 1.496,9.26 15.695,9.04 22.929,7.73 7.832,-1.42 15.481,-4.19 16.969,-12.8 l -1.168,-7.58 c -2.254,-14.69 -6.504,-43.58 -10.406,-76.72 -2.535,-21.52 -4.934,-44.87 -6.563,-67.36 -2.172,-30.05 -3.152,-58.51 -1.507,-78.44 1.25,-15.14 3.714,-24.94 7.902,-25.86 30.598,-0.76 68.519,88.72 78.955,116.57 0.12,12.55 0.62,25.62 1.39,38.77 0.89,15.15 2.14,30.54 3.56,45.42 1.77,18.5 3.82,36.23 5.79,51.79 3.18,25.14 6.14,44.5 7.38,52.32 1.42,9 14.01,10.05 21.21,9.06 7.47,-1.04 20,-5.99 18.5,-15.37 -2.12,-13.34 -8.1,-56.1 -12.86,-103.43 -2.91,-28.91 -5.36,-59.5 -6.21,-86.08 -0.59,-18.8 -0.59,-35.79 0.51,-48.26 0.99,-11.18 2.52,-18.21 4.8,-18.6 12.45,-2.13 58.56,78.05 64.07,98.4 0.25,0.93 0.42,1.72 0.5,2.33 l 2.14,26.52 c 4.72,58.84 9.56,119.27 18.79,177.27 1.44,8.97 14.77,9.94 21.77,9.03 7.27,-0.93 21.27,-5.84 19.77,-15.34 -4.39,-27.57 -6.33,-54.21 -8.29,-81.17 l -0.01,-0.14 c -0.84,-11.49 -1.68,-23.06 -2.75,-35.15 4.55,2.53 8.96,4.18 13.29,5.32 5.8,1.53 11.39,2.12 17.01,2.72 7.36,0.78 14.82,1.58 22.67,5.15 7.75,3.52 16.06,9.8 25.43,21.52 1.21,11.16 2.46,22 3.75,32.57 1.31,10.7 2.74,21.74 4.28,33.11 1.56,11.45 3.16,22.66 4.8,33.7 1.61,10.86 3.37,22.26 5.26,34.17 1.41,8.88 12.76,10.02 19.95,9.35 8.1,-0.75 23.05,-5.36 21.46,-15.65 -1.82,-11.46 -3.59,-23.16 -5.31,-35.07 -1.73,-11.93 -3.34,-23.63 -4.84,-35.12 -6.81,-52.19 -16.15,-117.7 -8.39,-169.38 2.67,-17.75 6.49,-18.2 18.41,-5.05 18.64,20.57 30.93,51.81 39.79,77.79 6.78,19.89 12.74,41.12 17.79,61.64 0.33,11.67 0.91,23.41 1.66,34.94 0.85,13.1 1.93,26.14 3.12,38.62 1.46,15.36 3.05,29.54 4.56,41.82 2.06,16.64 4.04,30.33 5.4,38.85 1.52,9.65 17.02,8.92 23.97,7.73 7.98,-1.36 19.4,-5.15 17.34,-15.46 -3.6,-22.53 -19.23,-120.78 -20.54,-189.75 -0.36,-18.7 0.2,-35.12 2.14,-46.83 1.75,-10.44 4.31,-16.76 7.95,-16.83 4.71,-0.09 9.82,2.4 15.07,6.67 25.64,20.85 51.64,79.59 62.98,109.92 -1.02,69.72 13.2,157.72 17.48,184.26 l 0.86,5.32 c 1.44,8.96 12.91,8.99 21.02,7.86 7.48,-1.04 19.97,-5.96 18.5,-15.34 -1.58,-9.91 -7.62,-50.95 -12.84,-97.92 -3,-27.06 -5.73,-56.04 -7.16,-82.04 -0.65,-11.95 -1.04,-23.24 -1.05,-33.34 0,-9.27 0.3,-17.63 0.98,-24.66 1.77,-18.15 2.07,-25.65 19.76,-7.88 26.99,27.11 49.51,87.75 60.17,123.57 0.14,35 3.57,72.89 7.33,104.32 3.76,31.44 7.91,56.63 9.41,65.76 1.97,12.12 12.92,12.32 23.38,10.43 7.84,-1.42 15.45,-4.17 16.97,-12.79 l -0.82,-5.1 c -1.02,-6.42 -2.67,-16.61 -4.77,-30.65 -2.03,-13.48 -4.32,-29.42 -6.47,-46.13 -4.82,-37.46 -9.42,-80.99 -10.14,-115.47 -0.69,-33.12 1.87,-57.53 10.73,-58.67 28.99,-3.74 71.2,96.67 78.64,116.54 -0.5,34.81 2.78,74.12 6.72,108.07 3.96,33.99 8.61,62.81 10.77,76.17 l 0.85,5.33 c 1.44,8.96 12.91,9 21.02,7.88 7.48,-1.04 19.98,-5.97 18.51,-15.36 -1.52,-9.51 -6.46,-42.56 -11.21,-82.47 -4.37,-36.67 -16.08,-131.42 -6.8,-168.21 5.21,-20.68 37.99,22.87 41.77,28.22 3.55,5.01 7.03,10.32 10.4,15.78 -1.25,18.8 0.22,42.2 4.11,70.52 5.83,42.41 16.08,67.41 25.54,77.92 8.97,9.97 18.36,10.89 26.31,4.14 5.4,-4.58 9.06,-13.68 9.71,-26.33 2.22,-42.95 -24.69,-98.83 -45.14,-133.66 1.32,-9.98 3.79,-17.73 7.49,-23.33 8.66,-13.12 27.09,-13.16 56.76,-1.56 180.96,78.33 321.92,240.95 406.32,382.12 35.14,58.77 60.41,113.75 74.63,157.29 17.81,63.56 29.73,98.3 -48.19,81.18 -38.17,-8.39 -89.04,-27.01 -145.34,-50.86 -93.93,-39.8 -202.14,-94.17 -292.86,-140.56 -118.88,-60.79 -252.67,-124.88 -374.63,-172.43 -122.91,-47.92 -234.22,-79.14 -307.27,-73.68 -16.48,1.24 -32.06,5.9 -42.98,16.4 -9.42,9.07 -15.04,21.97 -14.43,39.96 l 0.05,1.57 c 0.78,12.29 6.15,23.53 15.16,31.58 8.79,7.86 20.95,12.58 35.48,12.12 l 1.99,-0.08 c 10.25,-0.65 18.46,-4.71 24.27,-10.5 6.72,-6.69 10.16,-15.69 9.88,-24.47 -0.03,-1.08 -0.1,-2.12 -0.2,-3.11 -0.69,-7 -3.04,-13.85 -8,-19.09 -5.14,-5.45 -12.59,-8.85 -23.1,-8.51 -1.04,0.03 -2.1,0.1 -3.14,0.2 -5.48,0.54 -9.48,5.42 -8.94,10.9 0.54,5.48 5.42,9.48 10.9,8.94 l 1.81,-0.12 c 4.04,-0.13 6.54,0.78 7.94,2.26 1.59,1.68 2.4,4.39 2.69,7.38 l 0.12,1.77 c 0.11,3.43 -1.29,6.99 -4.02,9.71 -2.59,2.58 -6.45,4.4 -11.46,4.72 l -1.38,0.07 c -9.09,0.28 -16.44,-2.46 -21.56,-7.03 -5.05,-4.51 -8.07,-10.92 -8.51,-18 l -0.06,-0.96 c -0.39,-11.67 2.86,-19.66 8.34,-24.93 7.09,-6.82 18.33,-9.94 30.63,-10.86 69.8,-5.22 178.21,25.42 298.6,72.36 121.34,47.31 254.45,111.07 372.75,171.56 91.08,46.57 199.74,101.17 294.19,141.19 96.23,40.77 178.58,66.42 215.27,53.63 5.09,-1.77 9.19,-5.01 12.3,-9.57 10.9,-16 8.07,-51.79 -7.31,-98.91 -14.62,-44.78 -40.54,-101.19 -76.51,-161.36 -86.11,-144.03 -230.27,-310.08 -415.85,-390.32 l -0.32,-0.13 c -39.73,-15.56 -65.82,-13.36 -80.66,9.12 -2.18,3.3 -4.05,7.06 -5.61,11.28 -1.75,-2.49 -3.52,-4.92 -5.31,-7.28 -17.2,-22.64 -36.31,-38.74 -54.19,-35.47 -22.24,3.18 -30.42,29.48 -34.03,48.47 -13.85,-29.28 -46.22,-91.37 -83.94,-90.79 -28.52,0.43 -37.56,34.14 -41.16,57.03 -12.52,-28.12 -36.18,-77.03 -60.63,-95.45 -7.38,-5.56 -14.86,-8.37 -22.23,-7.33 -5.89,0.84 -10.98,3.34 -15.36,7.25 -10.96,9.78 -15.99,27.14 -18.68,41.25 -12.93,-27.26 -35.43,-68.56 -61.68,-84.32 -7.95,-4.76 -16.24,-7.21 -24.72,-6.37 -26.9,2.67 -34.82,37.19 -38.33,59.34 -11.28,-31.15 -41.37,-102.24 -81.39,-104.48 -6.21,-0.36 -11.56,1.3 -16.17,4.54 -24.44,17.18 -25.57,79.66 -24.92,109.51 -5.71,-3.79 -11.38,-6.39 -16.98,-8.31 -7.06,-2.43 -13.99,-3.77 -20.74,-5.08 -8.52,-1.65 -16.76,-3.25 -24.21,-7.38 -7.3,-4.05 -14.1,-10.64 -20.17,-22.33 -0.85,-8.83 -1.72,-18.26 -2.63,-28.5 -0.86,-9.85 -1.68,-19.59 -2.42,-29.23 -0.76,-9.97 -1.48,-19.81 -2.11,-29.51 -0.64,-9.92 -1.22,-19.78 -1.71,-29.59 -0.05,-0.41 -0.09,-0.9 -0.17,-1.29 -0.61,-2.64 -2.26,-4.69 -4.59,-6.19 -2.25,-1.44 -5.17,-2.36 -8.38,-2.79 -2.38,-0.32 -4.99,-0.43 -7.57,-0.31 -2.59,0.11 -5.16,0.45 -7.47,0.99 -3.13,0.72 -5.93,1.92 -8.03,3.62 -2.14,1.73 -3.56,3.95 -3.92,6.69 -0.61,6.59 0.8,17.27 1.21,24.38 -3.01,-4.83 -6.25,-9.83 -9.63,-14.77 -10.43,-15.28 -34.65,-49.29 -54.07,-50.7 -7,-0.52 -12.93,1.87 -17.94,6.22 -11.12,9.66 -16.9,28.55 -19.95,42.86 -13.62,-28.76 -47.677,-95 -85.829,-91.59 -8.895,0.79 -15.945,5.21 -21.52,11.75 -9.793,11.52 -14.675,29.05 -17.339,43.89 -8.414,-15.85 -18.707,-32.77 -30.618,-48.94 -31.175,-42.34 -77.961,-85.64 -134.586,-80.2 -24.386,2.36 -43.621,13.98 -58.668,31.64 -49.984,58.68 -53.535,183.61 -46.433,257.13 4.187,43.03 24.68,126.51 60.266,195.09 z m 48.449,3.64 0.508,-0.16 c 21.828,-6.98 47.335,-14.36 71.683,-18.99 25.477,-4.84 39.57,-6.32 56.762,-1.5 2.867,0.8 4.808,2.83 5.988,5.37 4.285,9.24 -2.656,56.4 -7.316,64.83 -9.27,16.79 -22.313,30.24 -40.856,32.33 -20.129,0.14 -38.039,-12.68 -52.906,-29.55 -14.32,-16.26 -25.812,-36.26 -33.863,-52.33 z m 360.928,38.67 c -8.39,16.1 -19.81,33.67 -34.16,51.19 -3.29,-1.74 -6.27,-3.65 -8.89,-5.75 -9.13,-7.29 -14.35,-18.88 -16.42,-30.89 -0.46,-2.71 -0.77,-5.42 -0.93,-8.09 7.08,-0.47 14.48,-2.25 20.68,-5.23 4.24,-2.04 8.02,-4.65 10.96,-7.79 3.42,-3.66 5.75,-8.01 6.51,-13.02 0.7,-4.67 -0.02,-9.71 -2.56,-15.02 l -0.02,-0.03 c -2.04,-4.27 -4.95,-7.34 -8.37,-9.43 -4.31,-2.64 -9.15,-3.52 -13.95,-3.19 h -0.05 c -4.18,0.3 -8.39,1.55 -12.11,3.33 l -0.6,0.32 c -5.1,2.59 -9.51,6.38 -11.87,10.24 -2.95,4.83 -5.22,10.8 -6.69,17.43 -9.16,-2.53 -18.099,-6.44 -25.216,-10.97 -7.328,-4.66 -12.297,-9.23 -12.168,-12.23 0.051,-1.19 1.699,-3.07 4.504,-5.38 8.066,-6.65 22.76,-12.92 39.68,-17.44 17.32,-4.64 36.57,-7.29 53.23,-6.57 15.05,0.65 27.57,3.89 33.39,10.75 l 0.19,0.26 c 5.17,6.86 -0.33,29.06 -15.14,57.51 z m -48.31,-16.74 c -3.09,1.48 -6.67,2.5 -10.25,3 0.96,-3.52 2.23,-6.65 3.81,-9.23 0.51,-0.83 1.86,-1.85 3.66,-2.76 l 0.46,-0.21 c 1.56,-0.75 3.26,-1.28 4.84,-1.39 0.95,-0.06 1.74,0.02 2.2,0.3 0.25,0.15 0.53,0.49 0.8,1.07 0.68,1.39 0.9,2.52 0.77,3.41 -0.12,0.79 -0.61,1.6 -1.35,2.39 -1.21,1.29 -2.93,2.45 -4.94,3.42 z m 805.99,9.31 c -1.53,-11.15 -2.69,-21.41 -3.45,-30.79 11.61,23.45 19.5,43.42 23.79,68.46 2.47,14.42 3.65,28.42 0.15,29.41 -5.09,1.44 -15.31,-29.35 -20.49,-67.08"
         style="fill:#400405;fill-opacity:1;fill-rule:nonzero;stroke:none"
         id="path14" /></g></g></svg>
