<svg xmlns="http://www.w3.org/2000/svg" width="321.333" height="276"><path d="M219.336 50.488c-.3-.152-.584-.821-.156-2.056.427-1.235 1.164-1.753 1.463-1.599 3.774 1.948 8.736 1.294 10.422-2.054.219-.434 2.995-1.566 2.94-1.195-.958 6.49-9.065 9.797-14.669 6.904zM114.6 150.739a.607.607 0 111.152.386c-.408 1.22-.484 2.363-.3 3.396.72 4.046 5.141 5.995 8.9 5.326 1.576-.28 3-.98 4.11-2.011-2.535-6.257-8.253-9.777-14.813-10.451-15.677-1.609-27.532 11.197-30.162 25.974 3.81 2.6 7.653 4.67 11.338 6.044 3.263 1.216 6.396 1.884 9.26 1.886-.116-.091-.23-.184-.342-.279-6.048-5.092-4.655-16.614 3.148-18.316a9.27 9.27 0 014.951.31c3.42 1.183 5.38 4.15 5.578 7.809.316 5.815-4.138 10.046-9.493 11.276 3.124 1.248 6.736 1.422 9.99.631 5.5-1.337 10.499-5.534 11.629-13.242l.002-.016c.583-3.995.3-7.466-.642-10.4a9.379 9.379 0 01-4.343 1.985c-4.414.785-9.47-1.596-10.31-6.317-.218-1.22-.13-2.564.347-3.99zm14.766 6.09c.975-1.313 1.536-2.982 1.48-4.898-.15-5.118-4.209-9.343-9.262-9.876-6.69-.706-14.202 1.929-21.81 4.597-10.247 3.594-20.668 7.248-29.86 3.125-6.291-2.822-9.288-7.084-9.997-11.282-1.296-7.672 5.109-15.15 13.086-13.244 4.837 1.154 8.408 5.41 7.948 10.485a8.541 8.541 0 01-3.422 6.095c-1.548 1.156-3.406 1.738-5.095 1.585-2.388-.216-4.578-2.088-5.142-4.423-.546-2.261.58-4.182 2.419-5.473a.608.608 0 11.7.995c-1.418.994-2.365 2.428-1.939 4.192.441 1.828 2.207 3.333 4.071 3.5 1.39.125 2.943-.371 4.257-1.352a7.329 7.329 0 002.942-5.228c.405-4.472-2.77-8.182-7.02-9.195-7.122-1.703-12.757 5.04-11.605 11.863.647 3.832 3.43 7.743 9.291 10.373 8.752 3.925 18.944.351 28.966-3.163 7.737-2.714 15.377-5.393 22.334-4.66 5.661.598 10.184 5.321 10.351 11.053.07 2.36-.682 4.406-1.968 5.975a9.36 9.36 0 01-.21.246c1.145 3.22 1.522 7.065.872 11.519l-.005.025c-1.22 8.28-6.61 12.795-12.545 14.238-4.072.99-8.7.577-12.396-1.476-3.474.322-7.354-.374-11.406-1.884-3.626-1.351-7.395-3.357-11.134-5.864-2.18 13.987 1.397 32.43 19.098 31.236 2.201-5.13 8.54.081.948 1.131-.73 3.895 1.632 6.92 5.679 7.183 7.272.471 12.963-5.884 18.297-16.46 9.211-18.265 16.131-46.291 19.048-61.023.268-2.052.627-4.032.936-6.065.118-.492 1.166-.839 2.351-1.002.61-.084 1.261-.126 1.833-.12.587.007 1.096.068 1.402.188.253.102.401.254.409.463-.507 11.116-2.657 21.021-2.5 32.945.172 13.03 2.363 24.878 9.668 25.56 3.603.335 7.879-4.257 10.037-7.384-.77-1.082-1.326-2.115-1.621-3.046-.668-2.112-.123-3.751 2.07-4.445 2.247-.712 3.13 1.48 2.791 3.382-.192 1.076-.729 2.435-1.762 4.069 1.128 1.443 2.646 2.974 4.43 4.451 5.13-6.447 10.604-13.666 18.496-16.75 2.699-1.056 5.146-1.119 7.244-.492 6 1.791 8.826 8.994 7.114 14.727-3.463 11.6-12.03 13.226-20.439 10.715-4.379-1.307-8.71-3.755-12.223-6.486a958.758 958.758 0 00-6.118 7.85l-.607.779c6.79 1.678 12.795 5.451 16.637 12.075 3.096 5.338 3.391 10.484 1.899 15.03-1.243 3.783-3.724 7.139-6.853 9.834-.347.3-.703.59-1.066.873l-.09.654c-.787 5.337-2.59 10.786-4.78 14.754.46 1.731.666 3.572.654 5.353l-.001.063c-.044 4.474-3.748 17.937-9.31 18.123-2.635.017-4.48-2.024-5.693-4.153-1.278-2.248-2.06-5.052-2.134-7.3a10.326 10.326 0 01-.004-.574.609.609 0 011.214.024c-.004.164-.002.336.003.512.07 2.067.793 4.654 1.979 6.738.958 1.687 2.476 3.553 4.597 3.54 4.676-.158 8.097-13.178 8.135-16.917l.001-.06c.008-1.274-.1-2.577-.341-3.839-2.571 3.994-7.374 7.7-12.359 7.103-3.713-.445-7.096-3.555-7.07-7.423.038-5.449 5.546-9.625 10.755-9.588h.032c3.734.038 6.308 1.894 7.944 4.566.422.69.78 1.435 1.079 2.216 1.803-3.584 3.279-8.198 4.012-12.782a29.858 29.858 0 01-8.263 3.987c-7.177 2.16-16.19 1.53-19.27-6.36-3.578-9.174 4.82-23.565 13.589-21.323 2.508.641 4.108 2.972 4.685 5.38 2.443-.754 4.851-.726 6.659.617 4.277 3.18 4.596 10.147 4.168 14.966l.08-.069c2.97-2.559 5.321-5.73 6.49-9.291 1.391-4.235 1.109-9.04-1.793-14.045-3.754-6.471-9.702-10.09-16.424-11.632-7.218 8.982-21.534 23.646-33.288 26.437-10.93 2.595-14.9-8.142-7.49-16.159l.035-.036c9.026-9.721 27.669-14.176 40.267-11.59.322-.407.642-.815.959-1.224a981.259 981.259 0 016.133-7.87c-1.725-1.428-3.221-2.918-4.382-4.353-2.57 3.603-6.671 8.379-11.347 8.513-6.436.185-9.992-4.617-12.01-10.21-2.531-7.021-2.773-15.766-2.735-23.26-6.636 26.315-18.625 59.987-35.841 59.21-5.031-.226-7.951-4.684-7.24-9.445-18.705.817-22.362-18.32-19.912-33.23-10.406-7.27-20.024-17.946-25.897-29.131a66.995 66.995 0 01-4.525-10.863c-2.988-9.415-3.774-18.985-2.537-26.879.221-1.409.508-2.765.857-4.06-7.57-6.608-7.235-16.566-5.346-25.613-11.653-6.373-32.988-29.012-19.613-41.463-2.274-2.482-4.454-5-6.507-7.482C8.31 15.993 1.168 4.305 1.092 1.956c-.006-.2.024-.376.09-.525 1.79-4.012 27.83 5.536 31.678 6.878a.608.608 0 01-.4 1.148C29.116 8.291 3.627-.957 2.295 1.92H2.3c.004-.004.007-.006.007 0 .07 2.169 7.097 13.488 17.222 25.732a195.711 195.711 0 006.5 7.473c2.379-1.83 5.518-2.983 9.003-3.552l.296-.048a17.39 17.39 0 011.38-2.11c9.053-11.911 33.652-9.265 44.09-1.331 3.537 2.689 6.571 6.549 8.185 10.841 16.857 3.059 39.78 10.13 51.387 23.396 7.339-2.847 25.91-.559 26.464 9.017.195 3.383-1.238 6.459-4.894 6.927-2.584.33-5.672-1.407-6.022-4.14-.248-1.939 1.16-4.027 3.146-4.281.797-.102 1.685.086 2.598.697a.609.609 0 01-.677 1.01c-.645-.433-1.245-.569-1.77-.502-1.317.168-2.254 1.661-2.093 2.923.263 2.057 2.752 3.334 4.664 3.089 2.991-.38 3.991-2.955 3.834-5.656-.486-8.437-17.907-10.435-24.411-8.097 2.697 3.265 8.743 12.509 6.864 16.729-1.019 2.285-5.635 2.657-10.24 2.095-1.895-.231-11.14-1.507-10.973-5.408.11-2.534 4.67-4.954 7.42-5.356-.202-4.202 1.301-6.84 4.916-8.543-11.276-12.656-33.539-19.548-49.766-22.583.92 3.055 1.102 6.283.232 9.432-3.24 11.715-19.995 14.778-30.207 11.742 9.984 5.472 20.88 10.242 31.63 13.997 3.42-5.977 9.051-13.024 16.682-12.51 3.377.23 5.853 2.238 7.633 4.926 2.502 3.776 3.617 8.921 3.92 12.215.16 1.752-1.474 2.273-3.2 2.46-4.84.793-14.75-2.007-21.196-4.092-5.81 12.817-10.324 36.853-6.025 50.925 1.55 5.073 4.242 8.497 8.348 9.05 9.425 1.26 17.373-12.88 20.355-20.1.045-3.602.306-7.543.643-11.229.524-5.732 1.23-10.848 1.59-13.108.155-.954 1.949-.84 2.62-.717.801.145 2.032.644 1.947 1.341l-.147.948c-.498 3.231-1.714 11.606-2.267 19.24-.532 7.36-.528 14.012 1.183 14.31h.01c1.475.226 3.175-1.382 4.792-3.651 2.869-4.027 5.35-10.059 6.147-12.196.032-3.59.305-7.55.66-11.261a241.638 241.638 0 011.753-13.858c.083-.514.692-.796 1.15-.882.374-.071.82-.072 1.254-.011.436.06.87.183 1.221.359.436.216 1.014.71.926 1.257-.459 2.875-2.248 15.941-2.547 25.316-.161 5.052.045 8.955 1.02 9.299l.027.004c.87.09 2.698-2.152 4.49-4.862 1.882-2.846 3.644-6.182 4.298-8.041.126-.361.208-.656.234-.863l.286-3.541c.628-7.847 1.274-15.904 2.501-23.613.065-.404.496-.668.855-.788.445-.15 1.045-.178 1.629-.103.577.075 1.163.252 1.584.513.359.222.8.639.725 1.1-.589 3.704-.846 7.26-1.109 10.86-.13 1.791-.261 3.592-.436 5.446 1.605-1.104 3.055-1.259 4.524-1.415 2.027-.216 4.096-.437 6.739-3.783.321-2.984.681-5.917 1.08-8.856.405-2.981.852-5.976 1.338-9.04.15-.928 1.519-1 2.255-.93.381.034.772.112 1.116.224.57.184 1.523.701 1.408 1.429a339.864 339.864 0 00-1.356 9.367 377.534 377.534 0 00-1.104 9.384c-.347 3.309-.487 7.87-.228 11.32.105 1.405.275 2.612.521 3.454.176.606.332.968.45.978 1.86-.502 3.593-2.702 5.145-5.764 2.037-4.02 3.719-9.478 4.979-14.602.093-3.305.34-6.714.636-9.825.45-4.739 1.016-8.79 1.325-10.733.073-.463.623-.682 1.035-.756.484-.087 1.13-.064 1.725.037.617.105 1.213.304 1.57.564.451.328.511.58.437 1.05-.474 2.975-2.57 16.127-2.746 25.37-.096 5.033.3 8.843 1.718 8.87 1.548.029 3.257-1.658 4.857-3.951 2.753-3.946 5.085-9.631 5.93-11.904-.145-9.275 1.755-21.036 2.327-24.578.134-.83.207-1.234 1.24-1.43.374-.071.819-.072 1.254-.011a4.1 4.1 0 011.221.359c.437.217 1.01.712.924 1.257-.332 2.09-2.15 14.524-2.67 24.03-.169 3.06-.202 5.807-.007 7.79.165 1.696.425 2.748.81 2.77l.039-.002c1.692-.295 3.468-2.365 5.1-5.123 2.365-3.993 4.365-9.366 5.459-13.049.03-9.313 1.828-20.252 2.226-22.673.116-.706.231-.968 1.09-1.123.453-.081 1.044-.057 1.589.041.564.103 1.11.294 1.452.542.621.452.497.788.397 1.416-.288 1.79-.914 5.698-1.5 10.248-1.288 10.01-2.461 23.27.406 23.638 1.485.192 3.188-1.433 4.802-3.709 2.846-4.01 5.3-9.97 6.107-12.136-.145-9.272 1.753-21.027 2.325-24.572l.106-.65c.24-.485.612-.686 1.134-.786.374-.07.82-.072 1.254-.01.436.06.872.183 1.222.358.482.239.835.59.923 1.05l.019.1-.016.107c-.324 2.03-1.808 12.023-2.484 20.86-.286 3.738-.426 7.258-.27 9.854.139 2.314.439 3.812.976 3.866l.027.002c1.203.014 2.539-1.02 3.859-2.624a.517.517 0 01.048-.076 42.343 42.343 0 002.92-4.458l.218-.404c-.144-2.75 1.112-15.278 4.282-14.612 1.462.308 1.413 2.654.772 5.452l-.002.007c-.921 4.019-3.058 8.972-3.689 10.176l-.045.097c.196 2.654.956 5.499 4.262 5.484 5.296-.021 12.794-3.86 18.582-10.494a35.75 35.75 0 005.436-8.304c-3.459-2.44-6.271-5.318-8.194-8.027-3.446.081-6.233-2.712-7.732-5.572-2.374-4.535-1.953-11.87 3.758-13.69 13.5-4.298 19.073 14.407 13.709 26.823 15.38 9.004 34.81-8.929 25.987-22.221-7.151 3.437-17.64 2.535-24.718-.681-6.249-2.84-10.728-9.932-2.805-12.842 8.636-3.17 22.847 5.184 27.895 11.956 4.126-2.328 6.874-6.429 6.565-12.908-2.653 2.032-5.85 3.479-9.265 3.192-4.768-.4-6.94-4.018-6.554-8.618.323-3.83 3.514-5.6 7.047-5.362 4.699.318 8.692 3.784 9.705 8.403 3.932-3.665 15.883-22.968 11.416-27.101-3.194-2.959-34.17 9.562-39.021 12.009-34.365 17.332-95.45 49.845-119.508 46.395-1.615-.232-3.203-1.052-4.27-2.327-.949-1.133-1.487-2.616-1.28-4.356.18-1.501.807-2.956 1.998-3.948 1.003-.836 2.388-1.332 4.215-1.236 1.945.103 3.214 1.275 3.736 2.637.197.514.286 1.058.265 1.587a3.33 3.33 0 01-.419 1.517c-.57 1.003-1.689 1.671-3.38 1.487a.607.607 0 11.128-1.21c1.132.125 1.851-.273 2.195-.875.161-.284.248-.619.263-.967a2.79 2.79 0 00-.19-1.105c-.366-.959-1.269-1.784-2.66-1.856-1.492-.079-2.597.304-3.377.954-.927.772-1.42 1.939-1.565 3.158-.164 1.373.26 2.542 1.005 3.433.87 1.039 2.176 1.71 3.508 1.901 23.68 3.398 84.545-29.005 118.788-46.276 5.4-2.722 36.476-15.44 40.393-11.813 5.546 5.135-7.309 25.32-12.017 29.43.544 6.242-1.416 11.66-7.019 14.858 9.402 14.345-11.192 33.361-27.565 23.901a36.967 36.967 0 01-5.56 8.454c-6.015 6.896-13.887 10.885-19.49 10.909-3.08.012-4.54-2.255-5.175-4.87-2.198 4.174-4.959 7.586-7.888 7.035-1.456-.208-2.514-1.264-3.255-2.901-.543-1.2-.919-2.725-1.164-4.46-1.19 2.644-3.033 6.275-5.2 9.007-1.85 2.334-3.957 4.029-6.16 3.996-1.936-.031-3.261-1.338-4.13-3.468-.57-1.394-.943-3.159-1.167-5.148-1.332 3.112-3.338 7.317-5.467 10.409-1.859 2.695-3.859 4.573-5.723 4.308-1.456-.208-2.513-1.264-3.254-2.901-.544-1.2-.92-2.728-1.164-4.463-1.212 2.681-3.131 6.45-5.375 9.22-1.899 2.344-4.053 3.99-6.281 3.768-2.291-.228-3.559-2.43-4.268-5.088-.352-1.316-.568-2.75-.707-4.09-1.132 3.36-2.473 6.573-4.024 9.171-1.697 2.844-3.66 4.967-5.899 5.782a3.995 3.995 0 01-1.124.242c-1.54.09-2.633-.864-3.4-2.393-.693-1.38-1.116-3.253-1.364-5.213-.37-2.91-.364-6.028-.296-7.975-1.868 1.463-3.726 1.823-5.497 2.167-2.333.452-4.503.873-6.215 4.224-.25 2.586-.478 5.153-.681 7.776a297.432 297.432 0 00-.51 7.889l-.003.06-.012.047c-.12.52-.694.812-1.411.909-.29.039-.616.05-.937.036a5.18 5.18 0 01-.934-.121c-.697-.163-1.232-.508-1.304-1.055l-.008-.056.003-.055c.064-1.248.133-2.482.208-3.698l.056-.9c-1.11 1.894-2.624 4.2-4.155 6.086-1.652 2.036-3.364 3.608-4.721 3.762a.67.67 0 00-.116.01c-1.779.13-2.979-1.341-3.772-3.274-.528-1.29-.88-2.795-1.1-4.119-1.205 2.664-3.133 6.46-5.374 9.253-1.882 2.348-4.009 4.006-6.19 3.81-2.152-.192-3.427-2.158-4.183-4.444-.414-1.254-.674-2.607-.838-3.792-4.298 8.522-11.572 18.612-22.184 18.036-6.8-.37-10.483-6.876-12.356-14.503-4.034-16.419-.966-35.136 6.906-49.905-13.336-4.719-27.184-11.372-39.106-18.991-8.654-4.776-17.476-12.667-25.253-21.04-12.507 11.693 8.312 33.341 19.054 39.321.196-.806.401-1.53.606-2.146 1.116-3.35 3.92-5.627 7.565-5.116 2.546.356 4.499 3.497 4.443 5.92-.07 3.084-2.73 5.088-5.719 5.018-2.11-.05-4.19-.908-6.055-1.852-1.65 8.259-2.1 17.535 4.606 23.73 1.705-5.424 5-10.751 10.682-12.555 2.44-.776 5.198-.36 7.747 1.72 2.114 1.727 4.083 4.608 5.589 8.923 1.523 4.368 1.677 8.068.978 10.977-1.298 5.408-5.783 8.576-11.275 7.547-3.387-.636-6.202-2.854-6.342-6.483-.061-1.561.443-3.17 1.571-4.28-2.712-.37-5.692-1.707-8.295-3.708a37.6 37.6 0 00-.69 3.4c-1.209 7.712-.434 17.084 2.498 26.325a65.782 65.782 0 004.44 10.668c5.71 10.876 14.997 21.224 25.053 28.37 2.907-15.188 15.305-28.07 31.383-26.419 6.775.695 12.773 4.294 15.593 10.652zm79.325-23.246c-.442.485-.975.65-1.49.52-.474-.12-.894-.5-1.158-1.118-.462-1.078-.471-3.056.717-5.742.31-.698.635-1.399.98-2.102-.512-3.018-1.523-5.712-3.108-5.693l-.055.004c-.637.15-1.244.563-1.82 1.188-2.433 2.65-4.124 10.52-5.009 16.979-.892 6.502-.956 13.51-.137 17.314.261 1.211.597 2.082 1.005 2.485 3.663 1.874 16.292-12.61 18.881-16.031v.009l.008-.01a20.938 20.938 0 01-.718-4.27c-.122-1.81.546-3.1 1.364-3.723.461-.35.978-.505 1.464-.449.522.063.986.353 1.294.89.47.82.551 2.3-.273 4.491-.345.918-.97 2.032-1.801 3.26 1.058 3.374 3.012 6.042 5.553 7.979 2.916 2.221 6.612 3.493 10.625 3.778 3.604.255 7.463-.285 11.243-1.647 1.601-3.524 3.075-6.745 4.401-9.586-3.632 1.476-7.536 2.302-11.318 2.32-10.396.046-19.599-7.554-18.291-18.369.47-3.893 2.708-7.345 6.017-9.45 2.606-1.655 5.874-2.483 9.464-2.049 1.451.176 3.348.547 4.563 1.41.895-2.458 2.227-5.156 3.903-7.823a47.618 47.618 0 014.24-5.75c-2.114-.558-4.408-.86-6.874-.85-1.745.01-3.577.175-5.49.517-6.544 1.176-12.067 4.238-16.606 8.248-4.584 4.05-8.168 9.071-10.796 14.104.288 1.834.819 7.416-.778 9.166zm.405-11.036c2.613-4.707 6.057-9.338 10.364-13.143 4.695-4.147 10.412-7.313 17.197-8.533a33.05 33.05 0 015.7-.536c2.806-.012 5.404.365 7.778 1.05 5.534-6.026 12.738-10.392 20.198-8.881l.01-.577c.116-4.364 1.289-8.754 4.1-11.735.68-.721 1.466-1.22 2.292-1.439.932-.246 1.901-.14 2.817.399.867.51 1.673 1.41 2.332 2.763 1.043 2.146 1.74 5.505 1.721 10.376 1.047-.039 1.974.108 2.787.422 5.963 2.304 4.344 12.644 3.296 17.423-5.261 23.995-24.864 52.405-46.237 64.658-2.744 1.574-5.459 2.834-8.096 3.738-20.263 43.733-49.023 100.37-69.015 97.047-3.397-.565-10.687-5.183-19.953-15.965-6.468-7.527-13.943-18.086-21.79-32.411a.607.607 0 111.068-.58c7.796 14.236 15.223 24.726 21.646 32.2 9.054 10.537 16.032 15.025 19.225 15.556 19.037 3.165 47.173-52.083 67.248-95.35a30.58 30.58 0 01-3.247.765 46.225 46.225 0 01-1.332 5.745c-2.105 7.102-5.91 14.65-10.422 21.33-2.84 4.203-15.54 20.235-21.246 19.206-3.522-.635-5.698-6.611-6.497-9.63-1.1-4.163-1.359-8.694-.279-11.265.926-2.205 2.547-3.786 5.012-4.094 3.942-.491 9.191 2.05 9.844 6.236.404 2.592-.489 5.665-2.458 7.448-1.076.974-2.452 1.547-4.074 1.432a.609.609 0 11.087-1.214c3.804.27 5.75-4.255 5.245-7.48-.549-3.53-5.218-5.622-8.496-5.213-2.024.252-3.284 1.562-4.037 3.356-.976 2.324-.708 6.551.332 10.484.645 2.438 2.665 8.228 5.535 8.745 4.889.884 17.513-14.977 20.022-18.692 4.45-6.586 8.198-14.015 10.266-20.992a45.713 45.713 0 001.234-5.21c-8.201 1.039-16.67-2.46-16.916-11.605-.128-4.741 3.156-8.173 7.856-8.3 4.194-.112 7.462 2.944 9.163 6.555 1.561 3.318 1.91 7.41 1.344 11.89a30.68 30.68 0 003.752-.98c3.328-7.19 6.423-14.024 9.208-20.168l1.887-4.164c-3.588 1.143-7.22 1.584-10.639 1.341-4.247-.3-8.168-1.655-11.277-4.025-2.519-1.92-4.5-4.499-5.686-7.717-.105.143-.213.288-.322.433l-.004.003-.002.004c-3.101 4.408-14.405 18.151-19.513 17.29-2.623-.442-4.29-3.266-5.117-7.273-1.227 2.717-2.819 5.89-4.502 8.41-1.928 2.888-4.025 4.95-5.969 4.674-1.456-.209-2.513-1.265-3.255-2.903-.542-1.2-.92-2.727-1.164-4.462-1.209 2.677-3.116 6.425-5.348 9.188-1.893 2.345-4.041 4-6.265 3.806-5.979-.519-5.987-14.125-5.056-24.844.53-6.11 1.356-11.3 1.528-12.382.17-1.054 2.037-.885 2.768-.76.717.123 2.184.487 2.027 1.486-.276 1.729-1.143 7.181-1.82 13.292-1.052 9.483-1.711 20.533.913 20.824 1.496.167 3.2-1.468 4.812-3.745 2.83-3.998 5.264-9.917 6.077-12.101-.057-3.597.159-7.548.476-11.244a207.073 207.073 0 011.696-13.882c.155-.968 1.803-.99 2.544-.891.759.103 2.408.6 2.25 1.613-.386 2.43-1.758 11.246-2.486 19.433-.698 7.872-.9 15.158.758 15.149 1.826-.011 3.745-2.355 5.472-5.49 1.581-2.87 2.968-6.375 3.996-9.436-.158-2.392-.12-5.009.097-7.572.35-4.129 1.17-10.081 2.407-13.768 1.362-4.062 4.362-10.641 9.425-10.808 2.445-.066 3.93 2.542 4.708 5.69zm26.976 54.434c2.212-.838 4.48-1.928 6.775-3.244 21.081-12.084 40.462-40.193 45.65-63.857.882-4.019 2.58-14.053-2.544-16.035-.802-.309-1.766-.417-2.9-.298l-.07.002a.608.608 0 01-.599-.616c.084-5.018-.579-8.398-1.596-10.49-.547-1.124-1.184-1.851-1.85-2.243a2.418 2.418 0 00-1.894-.27c-.603.16-1.192.54-1.716 1.095-2.583 2.739-3.663 6.836-3.772 10.931-.008.287-.01.575-.008.861 3.148 1.159 9.24 9.895 6.945 13.378-.409.62-1.06.97-1.993.945-4.365-.117-6.012-9.885-6.147-13.39-6.902-1.535-13.654 2.431-18.941 8.04a23.911 23.911 0 017.524 4.25 22.946 22.946 0 013.423 3.557l.092.032c1.476.54 2.825 1.486 3.937 2.792l.028.032c4.272 5.066 3.373 12.812 1.265 18.583-3.984 10.897-11.525 17.903-19.594 21.254-.311.129-.622.252-.932.37l-2.367 5.217c-2.648 5.843-5.576 12.306-8.716 19.104zm27.724-65.293c1.848 3.047 2.981 6.585 2.997 10.164.031 7.115-4.372 13.065-10.05 16.984a31.58 31.58 0 01-4.398 2.53 877.805 877.805 0 00-4.461 9.69c7.685-3.276 14.844-10.012 18.653-20.433 1.947-5.327 2.914-12.68-1.049-17.384l-.025-.031a8.7 8.7 0 00-1.667-1.52zm-55.441 14.873c-1.218 1.592-2.131 6.05-.854 6.362.935.194 1.428-5.232.854-6.362zm43.08 13.891c.914-1.939 1.75-3.672 2.504-5.17a7.568 7.568 0 01-2.278.05c-2.673-.36-5.286-2.27-6.558-6.997l-.007-.027c-.193-.737-.239-1.713-.136-2.835-.025.039-.053.076-.081.114-.416.532-1.052.821-1.947.764-1.721-.112-2.693-1.182-3.023-2.899-.305-1.596-.012-3.793.775-6.284-1.132-.904-2.89-1.228-4.297-1.397-3.298-.399-6.29.354-8.668 1.868-3.007 1.91-5.035 5.028-5.462 8.564-1.218 10.085 7.42 17.054 17.078 17.012 4.06-.019 8.269-1.011 12.1-2.763zm-6.086-17.308c.37-1.575.974-3.28 1.818-4.94 1.965-3.864 5.236-7.524 9.89-8.776l.079-.021a9.054 9.054 0 013.272-.254 21.685 21.685 0 00-2.253-2.18 22.728 22.728 0 00-7.64-4.2 46.456 46.456 0 00-4.492 6.022c-1.728 2.752-3.078 5.529-3.942 8.018 1.551 1.547 2.992 4.111 3.268 6.331zm-1.62-44.641c.242-.516.474-1.032.694-1.543 1.226-3.084 3.417-9.204 2.128-9.467-1.44-.293-2.706 9.234-2.822 11.01zM60.945 103a.61.61 0 01.172 1.205c-2.64.382-3.572-2.009-2.954-4.137.564-1.937 2.012-3.08 4.018-3.113 2.818-.051 4.477 1.872 4.771 4.544.227 2.102-.59 4.076-2.398 5.202 1.519.778 2.487 2.559 2.342 4.256-.083.982-.547 1.964-1.363 2.543a.606.606 0 11-.708-.985c.534-.43.799-.974.857-1.658.15-1.762-1.224-3.522-2.982-3.408-1.845.122-3.794 1.199-3.674 4.327.119 3.05 2.536 4.803 5.353 5.33 4.857.913 8.724-1.857 9.87-6.631.649-2.702.495-6.166-.945-10.296-1.425-4.086-3.257-6.788-5.208-8.38-2.196-1.792-4.548-2.159-6.614-1.503-5.445 1.708-8.518 7.092-10.045 12.263l.064.052c3.106 2.49 7.495 4.064 9.804 3.805 2.078-.232 4.744-1.583 4.438-4.788-.195-2.041-1.37-3.499-3.544-3.459-1.464.026-2.457.818-2.869 2.236-.365 1.258-.08 2.84 1.615 2.595zM36.85 31.33c4.138-.43 8.64-.106 12.848.82l.05.014c4.619 1.024 8.895 2.779 11.961 5.064 8.775-.515 17.235-.019 25.901 1.455-1.6-3.815-4.388-7.234-7.546-9.635-9.878-7.507-33.77-10.243-42.39 1.1-.302.397-.574.79-.824 1.181zM88.11 40c-8.459-1.486-16.83-2.058-25.023-1.633 5.348 4.919 4.378 12.673-2.722 14.244-4.736 1.047-8.797-1.688-8.797-6.739 0-4.958 3.653-7.896 8.252-8.474-2.806-1.794-6.438-3.186-10.336-4.05l-.048-.009c-4.39-.967-9.099-1.26-13.333-.699-4.997 9.97 6.26 18.098 14.192 23.307 12.262 8.545 34.502 6.261 38.196-6.599.895-3.116.64-6.329-.382-9.348zM34.67 32.868c-3.016.557-5.727 1.588-7.805 3.164 3.119 3.357 6.404 6.632 9.776 9.655-3.156-4.103-3.792-8.542-1.97-12.819zM95.63 76.915c6.076 1.892 13.176 3.98 17.887 2.66 1.113-.312 1.34-1.636 1.235-2.654-.43-4.112-1.71-11.004-6.964-11.585-5.651-.061-9.977 7.127-12.158 11.579zM2.292 1.925c-.007.014.001 0 .007-.006h-.004zm101.447 203.823c3.653-.64.854-1.626 0 0zm.784-25.666c.478.402.995.767 1.547 1.095 5.378-.63 10.455-4.439 10.137-10.302-.173-3.159-1.808-5.702-4.76-6.723a8.05 8.05 0 00-4.3-.268c-6.808 1.485-7.883 11.77-2.624 16.198zm66.86-68.397l.002.002zM46.746 74.371a26.815 26.815 0 00-.652 2.36c1.764.91 3.82 1.821 5.819 1.869 2.28.053 4.418-1.412 4.476-3.832.04-1.804-1.476-4.42-3.397-4.688-3.05-.428-5.318 1.508-6.246 4.29zM61.37 38.497l-.032-.024c-4.458.33-8.553 2.215-8.553 7.4 0 4.267 3.336 6.432 7.317 5.554 6.723-1.487 6.562-8.746 1.268-12.93zm78.654 25.286c-3.28 1.464-4.675 3.502-4.539 7.385 1.866-.08 5.755 1.215 5.294 3.619-.295 1.54-1.662 2.449-3.194 2.154-2.154-.413-2.877-2.396-3.178-4.333-2.597.39-6.211 2.277-6.26 4.177-.074 2.735 8.297 3.944 9.86 4.135 4.146.504 8.224.275 8.956-1.38 1.649-3.697-4.546-12.912-6.939-15.757zm-4.427 8.598c.207 1.376.631 3.062 2.216 3.366.874.166 1.603-.307 1.771-1.188.261-1.379-2.96-2.208-3.987-2.178zm35.586 107.847c.768-1.288 1.178-2.36 1.332-3.217.156-.884.073-2.421-1.227-2.012-1.385.439-1.717 1.517-1.273 2.917.224.709.621 1.489 1.168 2.312zm6.146 6.273c3.402 2.644 7.59 5.012 11.815 6.273 7.79 2.325 15.723.828 18.924-9.896 1.519-5.085-.94-11.616-6.295-13.213-1.852-.553-4.029-.49-6.453.457-7.615 2.976-13.033 10.146-17.99 16.379zm-9.656 10.357c-12.046-2.245-29.921 2.082-38.52 11.346l-.028.032c-6.503 7.036-3.528 16.486 6.315 14.15 11.299-2.683 25.247-16.925 32.233-25.528zm2.804 40.867a28.653 28.653 0 008.844-4.484c.548-4.576.595-11.981-3.557-15.059-1.507-1.12-3.584-1.097-5.725-.397a9.855 9.855 0 01-.244 3.516c-.635 2.479-1.55 4.372-2.564 5.757-1.318 1.8-4.398 4.307-6.676 2.635-3.966-2.903 1.492-8.464 4.005-10.34 1.276-.952 2.687-1.772 4.117-2.351-.449-2.006-1.732-4.074-3.833-4.612-7.705-1.969-15.404 11.371-12.156 19.7 2.83 7.255 11.267 7.598 17.79 5.635zM168.615 221a8.67 8.67 0 00.244-2.767 18.094 18.094 0 00-3.571 2.095c-1.725 1.289-6.967 6.222-4.015 8.384 1.603 1.175 4.12-1.204 4.976-2.374.93-1.268 1.772-3.02 2.366-5.338zm5.674 28.146c-.328-1.09-.766-2.122-1.329-3.042-1.428-2.333-3.67-3.954-6.915-3.986h-.028c-4.532-.032-9.504 3.616-9.536 8.38-.022 3.246 2.903 5.837 5.998 6.208 4.976.595 9.478-3.521 11.81-7.56zm44.127-109.14c.481-.783.85-1.495 1.081-2.11.676-1.797.67-2.909.355-3.458-.1-.176-.235-.27-.375-.286-.176-.02-.384.051-.589.207-.54.412-.979 1.327-.888 2.675.07 1.038.21 2.029.416 2.972zm43.204-29.374c-1.319-.396-2.743-.426-4.175-.05l-.073.02c-4.265 1.148-7.288 4.552-9.12 8.153-1.832 3.603-2.473 7.356-1.98 9.243l.007.021c1.114 4.144 3.314 5.807 5.545 6.107.963.13 1.937.012 2.839-.267 1.398-4.117 3.332-5.607 4.386-5.161.708.3 1.108 1.62.36 3.054-.736 1.432-2.41 2.55-3.902 3.104a189.98 189.98 0 00-2.319 4.724c.992-.53 1.95-1.114 2.865-1.745 5.338-3.683 9.555-9.277 9.526-15.979-.018-4.038-1.559-8.01-3.959-11.224zm-5.515 22.658c.756-.256 3.279-2.591 2.351-3.178-.704-.446-2.192 2.616-2.35 3.178zm16.52-65.702c4.799-11.3.096-28.949-12.308-24.997-4.944 1.573-5.054 8.136-3.048 11.97 1.131 2.16 3.28 4.533 5.823 4.883-.996-1.604-2.056-3.764-2.068-5.664-.015-2.29 1.508-3.324 3.657-3.236 2.432.099 4.478 3.134 4.383 5.47-.088 2.137-1.836 3.848-3.807 4.453 1.792 2.405 4.307 4.93 7.368 7.121zm-8.116-8.182c1.612-.328 3.27-1.7 3.342-3.44.066-1.667-1.48-4.138-3.218-4.208-1.446-.059-2.405.436-2.396 2.017.014 1.83 1.267 4.121 2.272 5.63zm34.422-14.378c-4.772-6.269-18.396-14.308-26.388-11.373-7.302 2.683-1.627 8.539 2.886 10.59 6.694 3.04 16.708 3.953 23.502.783zm7.522-14.918c-.669-4.414-4.284-7.824-8.722-8.123-2.856-.193-5.487 1.1-5.751 4.245-.33 3.923 1.344 6.963 5.439 7.307 3.378.284 6.5-1.34 9.034-3.43zm-64.789 88.012c-.593 2.05-.804 3.822-.559 5.101.218 1.137.831 1.843 1.903 1.912.452.03.747-.084.913-.297.196-.251.274-.658.255-1.16-.07-1.831-1.35-4.212-2.512-5.556zm29.924-23.971c.148 2.677 1.704 11.69 4.941 11.775.468.012.776-.135.951-.399 1.675-2.541-3.593-10.23-5.892-11.376zm-42.12 84.582c.605-4.398.308-8.392-1.192-11.58-1.487-3.156-4.345-5.958-8.035-5.859-4.032.109-6.78 3-6.67 7.057.229 8.566 8.377 11.444 15.897 10.382" fill="#400405"/></svg>