<svg xmlns="http://www.w3.org/2000/svg" width="324" height="278.667"><path d="M220.076 51.972c-.27-.139-.528-.5-.572-1.077-.028-.37.03-.848.232-1.438.199-.574.535-1.205 1.012-1.589.321-.26.65-.341.901-.256 1.918.895 3.73 1.332 5.852.955 1.787-.319 3.267-1.182 4.142-2.808.178-.359 1.49-1.015 2.376-1.307.312-.103.878-.296 1.148-.036a.41.41 0 01.124.372 8.742 8.742 0 01-.883 2.743c-1.015 1.966-2.735 3.488-4.748 4.433-2.007.941-4.31 1.315-6.504.99a9.815 9.815 0 01-3.08-.982zm-99.35 168.262a1.33 1.33 0 012.426-1.083c5.643 12.635 15.084 27.863 24.53 39.287 7.962 9.63 15.811 16.493 21.125 16.585 9.312.162 29.488-21.786 51.981-52.176 20.879-28.207 53.904-81.126 59.316-116.758 1.196-7.874 2.493-14.573-2.257-16.474-.68-.272-1.388-.471-2.116-.598l-.006-.001c-5.406-.943-11.845 2.015-17.66 6.945a50.518 50.518 0 00-5.849 5.886c6.837 2.413 12.652 7.841 14.857 14.833 1.115 3.535 1.171 7.181.208 10.653-1.838 6.624-6.005 10.142-10.584 11.191a13.777 13.777 0 01-6.228-.04 14.694 14.694 0 01-5.648-2.7c-3.916-3.045-6.404-8.164-5.282-14.592 1.106-6.34 4.333-12.628 8.081-17.788-2.576-.428-5.328-.396-8.11.317-4.546 1.168-8.191 4.099-10.822 8.018-2.917 4.349-4.59 9.905-4.875 15.645-.108 2.185.06 5.364.663 8.563 2.373-1.174 5.241-1.767 7.865-1.326 4.14.698 6.574 3.7 7.616 7.603 1.22 4.572-2.578 8.494-7.104 8.216-5.384-.332-8.55-5.397-10.001-9.992-5.604 5.6-9.35 11.859-15.727 17.445-3.054 2.676-6.03 4.528-8.15 4.17-3.036-.51-4.482-3.826-5.172-6.48-.838 1.805-2.191 4.572-3.78 7.019-1.983 3.048-4.35 5.597-6.626 5.274-2.962-.423-4.056-3.918-4.54-6.466-1.844 3.883-6.336 12.543-11.473 12.098-3.212-.278-4.804-3.942-5.46-8.924-.639-4.842-.407-10.951.06-16.33.264-3.043.605-5.88.901-8.094.294-2.19.546-3.77.632-4.313.216-1.355 2.214-1.242 3.203-1.074.964.166 2.528.664 2.335 1.922-.275 1.728-1.14 7.16-1.818 13.269-.524 4.733-.952 9.854-.92 13.816.031 3.786.434 6.475 1.5 6.593 3.774.419 9.17-12.06 10.471-15.538-.12-8.136.901-17.099 2.177-25.119.195-1.241 1.996-1.333 2.967-1.204 1.025.137 2.773.752 2.572 2.043-1.465 9.237-3.216 20.647-2.987 29.897.064 2.576.322 4.25.882 4.25 1.158-.02 2.602-1.675 4.002-3.883 2.283-3.597 4.372-8.609 5.09-10.714-.324-5.08.241-10.46 1.113-15.448.835-4.774 2.413-10.286 5.63-13.997 1.506-1.739 4.294-3.667 6.75-2.86 1.625.536 2.752 2.25 3.48 4.392.705 2.075 1.045 4.573 1.105 6.764.031 1.187-.012 3.547-.448 4.648-.22.548-.842.879-1.421.81-.45-.053-.797-.366-.73-.847.149-.652.22-1.658.206-2.824-.023-1.939-.279-4.308-.792-6.252-.49-1.847-1.19-3.284-2.103-3.492-.598-.139-1.456.634-1.833 1.046-2.767 3.012-4.359 12.716-4.915 16.772-.28 2.038-.848 8.23-.629 13.202.125 2.879.505 5.324 1.339 6.227.985.336 3.682-1.507 6.904-4.35 5.72-5.05 9.926-11.387 15.43-16.392-.816-3.77-1.048-7.653-.92-10.244.308-6.212 2.134-12.248 5.323-17 2.979-4.439 7.144-7.768 12.375-9.112 3.678-.943 7.288-.848 10.576-.105 2.12-2.616 4.46-5.03 6.916-7.112 6.378-5.41 13.586-8.63 19.837-7.539.901.159 1.788.408 2.652.753 6.24 2.498 5.277 10.294 3.904 19.34-5.488 36.128-38.653 89.354-59.817 117.946-22.963 31.025-44.002 53.425-54.158 53.249-6.186-.108-14.72-7.365-23.136-17.545-9.581-11.588-19.168-27.054-24.904-39.901zm129.71-116.167c-3.815 5.029-7.175 11.296-8.272 17.582-.93 5.33 1.096 9.544 4.293 12.031a12.025 12.025 0 004.615 2.21c1.655.389 3.38.418 5.032.04 3.693-.847 7.077-3.765 8.615-9.306.824-2.968.773-6.097-.188-9.143-2.055-6.512-7.652-11.444-14.095-13.414zm-25.345 34.561c1.014 3.707 3.37 8.875 7.918 9.155 2.734.17 5.126-2.059 4.375-4.871-.767-2.873-2.396-5.145-5.48-5.665-2.236-.376-4.855.265-6.813 1.381zm-54.554 43.7c-.276-2.42-.168-4.443.34-5.807.616-1.652 1.732-2.505 3.375-2.3 3.1.388 2.967 2.658 1.45 5.477-.6 1.113-1.454 2.343-2.36 3.522.23 1.452.594 3.05 1.086 4.733a96.21 96.21 0 016.97-7.306c6.174-5.806 12.733-10.275 18.411-11.907 4.058-1.166 7.87-1.715 11.335-1.673 4.583.056 8.55 1.152 11.672 3.229 3.175 2.113 5.459 5.213 6.617 9.239.584 2.033.876 4.311.846 6.825l-.019.809c-.332 9.42-4.417 17.035-10.077 22.274-5.671 5.25-12.943 8.116-19.626 8.034l-.52-.012c-12.977-.459-22.122-12.912-26.565-24.143-2.493 3.204-4.743 6.518-6.607 9.777l-1.56 2.706c-8.277 14.363-18.088 31.388-11.906 46.665 1.64 4.052 4.212 6.863 6.99 8.729 3.778 2.535 7.912 3.34 10.611 3.15 2.792-.196 6.157-1.61 8.717-4.228 2.058-2.105 3.586-4.994 3.859-8.661v-.005c.043-.587.047-1.166.015-1.734-.171-2.894-1.288-5.653-3.114-7.74-1.797-2.056-4.292-3.458-7.246-3.677h-.004c-.496-.037-1-.041-1.507-.012-2.141.126-3.921 1.053-5.264 2.335-1.633 1.558-2.623 3.624-2.841 5.422-.156 1.273.106 2.882 1.022 4.204.707 1.02 1.822 1.875 3.462 2.275.88.215 1.796-.048 2.526-.57.451-.322.826-.737 1.075-1.193.228-.418.348-.871.319-1.312-.038-.548-.331-1.113-.971-1.615a1.328 1.328 0 111.636-2.094c1.301 1.02 1.904 2.267 1.99 3.532.066.96-.177 1.908-.64 2.76a6.308 6.308 0 01-1.867 2.089c-1.312.938-3.004 1.398-4.694.987-2.352-.574-3.976-1.835-5.022-3.349-1.323-1.91-1.704-4.216-1.482-6.036.286-2.35 1.558-5.029 3.652-7.028 1.762-1.68 4.107-2.897 6.942-3.063h.005a14.084 14.084 0 011.856.012c3.7.276 6.815 2.022 9.053 4.582 2.212 2.53 3.566 5.857 3.77 9.335.041.698.037 1.396-.015 2.088-.327 4.364-2.15 7.808-4.61 10.322-3.04 3.111-7.073 4.794-10.435 5.03-3.154.223-7.954-.695-12.276-3.597-3.182-2.136-6.12-5.34-7.98-9.938-6.667-16.473 3.497-34.109 12.072-48.988l1.55-2.706c2.179-3.808 4.866-7.687 7.852-11.393a47.896 47.896 0 01-1.241-4.44c-1.185 1.427-2.416 2.689-3.699 3.708-2.066 1.642-4.27 2.659-6.646 2.727-3.331.095-5.919-1.1-7.934-3.043-1.992-1.92-3.414-4.57-4.441-7.417-1.277-3.543-1.977-7.516-2.352-11.545-.276-2.978-.376-5.988-.401-8.877-3.778 14.41-9.1 30.514-15.955 41.837-4.092 6.761-11.42 16.013-20.441 14.7-4.063-.593-6.974-3.91-7.138-7.99-15.166 1.746-21.91-18.377-20.448-30.415a58.04 58.04 0 01.79-4.814c-6.888-4.881-13.59-11.157-19.654-18.438-11.41-13.701-20.588-30.992-24.5-49.277-2.43-11.37-2.876-20.342-1.87-26.938 1.174-7.7 4.352-12.306 8.72-13.853 3.023-1.07 6.332-.67 9.654.815 4.253 1.9 8.555 5.609 12.284 10.258 3.696 4.607 6.851 10.159 8.846 15.795 2.59 7.321 3.233 14.83.605 20.71-1.888 4.227-5.8 6.975-10.511 6.691-8.45-.513-15.191-10.054-14.706-18.045.28-4.623 3.382-7.963 8.017-8.172 5.59-.253 9.955 3.995 11.226 9.264 1.13 4.688-2.341 9.279-7.287 7.776-1.819-.552-3.294-1.927-3.424-3.904-.064-.975.209-2.081.96-3.296a1.329 1.329 0 012.26 1.397c-.432.699-.594 1.274-.564 1.731.054.82.823 1.312 1.54 1.53 2.958.9 4.572-1.951 3.932-4.61-.969-4.015-4.215-7.425-8.528-7.232-3.259.147-5.28 2.445-5.476 5.672-.39 6.532 5.232 14.81 12.207 15.233 3.603.215 6.49-1.902 7.927-5.12 2.323-5.198 1.692-12.01-.689-18.74-1.896-5.356-4.895-10.634-8.408-15.013-3.48-4.339-7.44-7.776-11.294-9.499-2.71-1.21-5.35-1.557-7.687-.73-3.423 1.212-5.957 5.108-6.969 11.74-.961 6.304-.52 14.954 1.84 25.988 3.818 17.852 12.786 34.741 23.937 48.132 5.665 6.802 11.885 12.694 18.27 17.343 1.844-6.954 5.053-13.2 9.753-17.758 5.546-5.379 13.12-8.397 22.904-7.474 10.644 1.003 18.06 11.217 17.078 21.63-.64 6.789-4.194 12.797-10.644 15.725-11.88 5.391-27.395-1.143-37.358-7.697a56.245 56.245 0 00-.535 3.492c-1.234 10.162 4.602 29.81 17.938 27.395.213-2.078.73-4.408 1.482-6.424.989-2.654 3.227-6.807 6.694-5.516 2.538.945 2.07 4.769 1.323 6.774-.622 1.669-1.76 3.473-3.552 5.081a11.225 11.225 0 01-3.35 2.095c-.027 2.763 1.444 5.045 4.268 5.56 3.87.701 7.638-1.3 10.361-3.89 2.965-2.82 5.697-7.02 8.346-12.27 3.847-7.63 7.296-16.974 10.22-26.338 4.058-13 7.102-26.036 8.795-34.586.297-1.37.38-2.594.587-3.869.19-1.176.012-2.528 1.266-3.064.794-.337 1.84-.475 2.708-.532.771-.05 3.074-.201 3.115.988-.185 4.15-.725 9.255-1.19 13.427-.698 6.254-1.4 12.552-1.309 19.526.086 6.483.591 12.603 1.979 17.173 1.355 4.462 3.548 7.427 7.019 7.75 1.258.119 2.593-.37 3.846-1.152 1.65-1.03 3.154-2.564 4.195-3.928l.028-.032c.515-.538.873-1.035 1.228-1.526zm2.538-3.391c.1-.17.194-.337.282-.5.471-.873.764-1.546.572-1.57-.225-.028-.414.186-.562.581-.147.398-.246.899-.292 1.489zm2.328 11.985c3.914 10.81 12.509 23.455 24.728 23.886l.457.012c6.032.075 12.623-2.54 17.793-7.325 5.18-4.794 8.919-11.774 9.223-20.42l.019-.746c.028-2.232-.232-4.257-.752-6.064-.976-3.393-2.883-5.993-5.524-7.75-2.696-1.795-6.175-2.742-10.234-2.792-3.192-.039-6.749.48-10.574 1.58-5.255 1.51-11.434 5.748-17.318 11.282a93.88 93.88 0 00-7.818 8.337zm-69.138 10.917a24.225 24.225 0 00-1.166 4.445 8.893 8.893 0 001.37-1.013c1.438-1.29 2.345-2.718 2.833-4.03.264-.708.749-2.712.2-3.37-1.413-.464-2.866 2.973-3.237 3.968zm-11.5-45.669c-4.549 4.411-7.599 10.593-9.277 17.488 9.194 6.22 24.434 13.157 35.666 8.06 5.535-2.513 8.545-7.733 9.092-13.549.846-8.958-5.49-17.864-14.682-18.733-8.92-.842-15.794 1.88-20.8 6.734zm-4.123-77.906c-5.473-2.121-11.36-4.776-17.257-7.77-9.951-5.05-19.945-11.066-28.042-17.109a195.483 195.483 0 01-18.54-15.769c-8.55-8.233-15.305-16.219-19.701-22.444C2.397 8.509.4 3.491 1.628 1.847l.168-.195c3.416-3.547 32.307 4.815 63.68 17.913 25.253 10.546 52.308 24.05 68.988 36.608a48.45 48.45 0 016.972 6.43c2.176-.74 4.775-1.127 7.481-1.151 3.264-.03 6.718.46 9.776 1.481 3.147 1.051 5.904 2.676 7.676 4.894l.066.089c1.254 1.604 1.996 3.497 2.016 5.681a7.119 7.119 0 01-.254 1.975 6.328 6.328 0 01-2.165 3.304 5.998 5.998 0 01-3.692 1.297 6.483 6.483 0 01-1.788-.237c-2.783-.77-4.112-2.508-4.423-4.293a4.81 4.81 0 01.287-2.627 4.563 4.563 0 011.615-2.037c1.302-.906 3.084-1.106 4.968.064a1.329 1.329 0 01-1.396 2.261c-.842-.523-1.57-.48-2.063-.139a1.9 1.9 0 00-.656.851 2.177 2.177 0 00-.13 1.179c.151.864.897 1.733 2.506 2.178.364.1.72.147 1.059.144a3.361 3.361 0 002.068-.724c.582-.461 1.026-1.126 1.249-1.929a4.58 4.58 0 00.159-1.245c-.015-1.554-.546-2.907-1.443-4.06l-.065-.076c-1.43-1.788-3.748-3.131-6.438-4.028-2.778-.93-5.928-1.374-8.912-1.347-2.032.019-3.974.253-5.65.699 1.782 2.26 3.22 4.509 4.302 6.586 2.455 4.716 3.068 8.791 1.78 10.502l-.077.094c-1.305 1.583-3.681 2.308-6.41 2.426-2.507.109-5.36-.279-7.9-.959-2.593-.693-4.917-1.713-6.291-2.845-.956-.788-1.527-1.684-1.57-2.656-.062-1.458 1.107-2.887 2.852-3.996 1.27-.808 2.893-1.495 4.527-1.898.012-.605.067-1.218.17-1.826.377-2.184 1.377-4.33 3.16-5.755.325-.26.68-.503 1.06-.73a45.782 45.782 0 00-6.02-5.451C116.39 45.892 89.544 32.5 64.453 22.024 34.097 9.348 6.599.764 3.745 3.469c-.458.77 1.576 4.567 5.534 10.171 4.315 6.11 10.953 13.957 19.368 22.06a192.65 192.65 0 0018.29 15.55c7.99 5.962 17.84 11.893 27.647 16.869 5.945 3.017 11.87 5.684 17.35 7.793.322-.55.65-1.092.988-1.62 4.1-6.425 9.38-11.05 15.782-10.616 3.439.232 6.004 2.248 7.861 5.004 2.48 3.68 3.694 8.693 4.04 12.477.097 1.046-.345 1.726-1.069 2.172-.66.407-1.552.599-2.46.698-2.184.353-5.374.069-8.815-.548-4.195-.754-8.776-2.003-12.341-3.188-3.395 7.609-5.442 16.309-6.548 24.546-1.124 8.39-2.118 24.468 3.79 31.448 1.37 1.618 3.177 2.759 5.563 2.927 6.447.464 11.959-6.493 15.005-11.333a58.62 58.62 0 004.408-8.522c.022-1.682.09-3.426.19-5.178.115-2.003.273-4.038.453-6.007.224-2.45.477-4.759.722-6.772.335-2.767.661-5.039.872-6.36.199-1.235 2.092-1.205 3.057-1.03 1.044.189 2.064.558 2.262 1.706l-.155 1.01c-.301 1.96-.868 5.811-1.388 10.23a204.44 204.44 0 00-.875 8.981c-.29 4.007-.42 7.802-.2 10.459.166 2.019.494 3.325 1.053 3.448 4.08.101 9.136-11.83 10.527-15.543a106.5 106.5 0 01.185-5.169 167.9 167.9 0 01.475-6.056c.236-2.467.51-4.83.772-6.905.424-3.352.819-5.934.984-6.976.19-1.2 1.868-1.34 2.828-1.208.996.138 2.667.798 2.467 2.049-.283 1.779-1.08 7.48-1.715 13.79-.388 3.855-.715 7.934-.828 11.478-.079 2.507-.079 4.772.068 6.435.132 1.49.336 2.428.64 2.48 1.66.284 7.808-10.407 8.543-13.12a2.52 2.52 0 00.066-.311l.286-3.536c.629-7.845 1.274-15.903 2.505-23.636.192-1.196 1.97-1.325 2.903-1.204.969.124 2.836.779 2.636 2.045-.586 3.676-.844 7.228-1.106 10.823l-.001.019c-.112 1.532-.224 3.074-.367 4.686a7.555 7.555 0 011.772-.709c.774-.204 1.519-.283 2.268-.363.982-.104 1.976-.21 3.023-.686 1.033-.47 2.141-1.307 3.39-2.87a325.015 325.015 0 011.711-13.25c.215-1.448.45-2.968.702-4.556.188-1.184 1.701-1.336 2.66-1.247 1.08.1 3.073.715 2.861 2.087a336.33 336.33 0 00-.708 4.676c-.23 1.59-.445 3.15-.645 4.682-.908 6.959-2.154 15.694-1.119 22.584.356 2.367.865 2.427 2.455.674 2.485-2.743 4.124-6.908 5.305-10.372.904-2.652 1.699-5.483 2.372-8.219.044-1.556.121-3.121.221-4.659.114-1.746.258-3.485.416-5.149.195-2.048.407-3.939.608-5.576.275-2.219.539-4.044.72-5.18.203-1.287 2.27-1.19 3.196-1.03 1.064.18 2.587.686 2.312 2.06-.48 3.005-2.564 16.105-2.738 25.3-.048 2.494.026 4.683.285 6.245.233 1.392.575 2.234 1.06 2.244.628.012 1.31-.32 2.01-.89 3.418-2.78 6.885-10.612 8.397-14.656-.136-9.296 1.76-21.029 2.33-24.568l.115-.709c.192-1.195 1.721-1.199 2.803-1.048.997.139 2.662.795 2.466 2.045-.21 1.322-1.016 6.794-1.712 13.056-.4 3.608-.764 7.472-.954 10.939a84.913 84.913 0 00-.14 4.445c0 1.236.04 2.351.13 3.288.236 2.42.276 3.42 2.635 1.051 3.599-3.615 6.601-11.7 8.023-16.476.018-4.667.476-9.719.977-13.91.501-4.191 1.055-7.55 1.255-8.767.262-1.616 1.722-1.643 3.117-1.391 1.045.19 2.06.556 2.263 1.705l-.11.68c-.136.856-.356 2.215-.636 4.087-.27 1.797-.576 3.923-.862 6.15-.643 4.995-1.256 10.8-1.352 15.397-.092 4.416.249 7.67 1.43 7.822 3.866.499 9.494-12.889 10.486-15.538-.067-4.642.37-9.883.896-14.41a228.18 228.18 0 011.436-10.156l.113-.71c.192-1.195 1.721-1.2 2.803-1.051.997.139 2.664.796 2.468 2.048a318.283 318.283 0 00-1.495 10.996c-.583 4.89-2.144 17.523-.907 22.428.695 2.757 5.066-3.05 5.57-3.763.473-.668.937-1.376 1.386-2.104-.166-2.506.03-5.626.548-9.402.778-5.655 2.144-8.988 3.406-10.39 1.196-1.329 2.448-1.452 3.508-.552.72.611 1.208 1.824 1.294 3.511.296 5.727-3.292 13.177-6.018 17.821.176 1.331.505 2.364.998 3.111 1.155 1.75 3.612 1.755 7.568.208 24.128-10.444 42.923-32.127 54.176-50.95 4.686-7.835 8.055-15.166 9.951-20.971 2.375-8.475 3.964-13.107-6.425-10.824-5.09 1.118-11.872 3.601-19.379 6.781-12.524 5.307-26.952 12.556-39.048 18.741-15.85 8.106-33.69 16.651-49.95 22.991-16.389 6.39-31.23 10.552-40.97 9.824-2.197-.165-4.275-.787-5.73-2.187-1.257-1.209-2.006-2.929-1.925-5.328l.007-.209c.104-1.639.82-3.137 2.021-4.21 1.172-1.049 2.794-1.678 4.731-1.617l.265.011c1.367.087 2.462.628 3.236 1.4a4.436 4.436 0 011.318 3.263 5.707 5.707 0 01-.027.414c-.092.934-.405 1.847-1.067 2.546-.685.726-1.678 1.18-3.08 1.134a6.3 6.3 0 01-.418-.026 1.329 1.329 0 11.261-2.646l.241.016c.539.018.872-.104 1.059-.301.212-.224.32-.585.359-.984l.016-.236a1.766 1.766 0 00-.536-1.295c-.346-.344-.86-.586-1.528-.629l-.184-.01c-1.212-.037-2.192.329-2.875.938-.673.601-1.076 1.456-1.135 2.4l-.008.128c-.052 1.556.382 2.621 1.112 3.324.946.91 2.444 1.325 4.084 1.448 9.307.696 23.762-3.39 39.814-9.648 16.178-6.308 33.926-14.81 49.7-22.875 12.144-6.209 26.632-13.489 39.225-18.825 12.83-5.436 23.81-8.856 28.703-7.15a3.244 3.244 0 011.64 1.275c1.453 2.134 1.076 6.906-.975 13.188-1.95 5.971-5.405 13.492-10.201 21.515-11.482 19.204-30.703 41.344-55.447 52.043l-.043.017c-5.297 2.075-8.776 1.781-10.754-1.216-.291-.44-.54-.941-.748-1.504-.234.332-.47.656-.708.97-2.294 3.02-4.842 5.166-7.226 4.73-2.965-.424-4.056-3.93-4.537-6.463-1.847 3.904-6.163 12.183-11.192 12.106-3.803-.058-5.008-4.552-5.488-7.604-1.67 3.749-4.824 10.27-8.084 12.726-.984.742-1.981 1.116-2.964.978a3.834 3.834 0 01-2.048-.967c-1.461-1.304-2.132-3.619-2.49-5.5-1.725 3.635-4.725 9.141-8.225 11.243-1.06.634-2.165.961-3.296.849-3.586-.356-4.642-4.959-5.11-7.912-1.504 4.153-5.516 13.632-10.852 13.93a3.311 3.311 0 01-2.156-.605c-3.259-2.29-3.41-10.621-3.323-14.601a9.765 9.765 0 01-2.264 1.108c-.941.324-1.865.503-2.765.677-1.136.22-2.235.434-3.228.984-.974.54-1.88 1.419-2.69 2.978-.113 1.177-.229 2.434-.35 3.8a352.316 352.316 0 00-.604 7.832 272.268 272.268 0 00-.228 3.945c-.007.055-.012.12-.023.172-.081.352-.301.625-.612.825-.3.192-.69.315-1.117.372a5.706 5.706 0 01-1.01.042 5.459 5.459 0 01-.996-.132c-.417-.096-.79-.256-1.07-.483-.286-.23-.475-.527-.523-.892-.081-.879.107-2.303.161-3.25-.401.643-.833 1.31-1.284 1.969-1.39 2.037-4.62 6.572-7.209 6.76-.933.069-1.724-.25-2.392-.83-1.483-1.288-2.253-3.806-2.66-5.714-1.816 3.834-6.357 12.666-11.444 12.212-1.186-.106-2.126-.695-2.87-1.567-1.305-1.536-1.956-3.873-2.311-5.852a53.024 53.024 0 01-4.082 6.525c-4.157 5.646-10.395 11.419-17.945 10.694-3.252-.315-5.816-1.864-7.823-4.219-6.664-7.824-7.138-24.481-6.19-34.284.558-5.737 3.29-16.868 8.035-26.012zm6.46-.485l.067.021c2.91.93 6.312 1.915 9.558 2.532 3.397.645 5.276.843 7.568.2.383-.107.641-.377.799-.716.571-1.232-.354-7.52-.976-8.644-1.236-2.239-2.975-4.032-5.447-4.31-2.684-.02-5.072 1.69-7.054 3.94-1.91 2.167-3.442 4.834-4.515 6.977zm48.123-5.156c-1.118-2.147-2.641-4.49-4.554-6.826a7.49 7.49 0 00-1.186.767c-1.217.972-1.913 2.517-2.189 4.119a10.05 10.05 0 00-.124 1.078c.944.063 1.93.3 2.757.698.566.272 1.07.62 1.462 1.038.456.488.766 1.068.868 1.736.093.623-.003 1.295-.342 2.003l-.002.004c-.272.57-.66.979-1.116 1.257-.575.352-1.22.47-1.86.426h-.007a4.565 4.565 0 01-1.615-.444l-.08-.043c-.68-.345-1.268-.85-1.582-1.365-.394-.644-.696-1.44-.892-2.324-1.222.337-2.414.858-3.362 1.462-.978.622-1.64 1.231-1.623 1.631.007.159.227.41.6.717 1.076.887 3.035 1.723 5.291 2.326 2.31.618 4.876.972 7.098.876 2.006-.087 3.676-.519 4.452-1.434l.025-.034c.69-.915-.044-3.875-2.019-7.668zm-6.441 2.232a4.728 4.728 0 00-1.367-.4c.128.469.298.886.508 1.23.068.111.248.247.488.368l.062.028c.208.1.434.171.645.186.127.008.232-.003.293-.04.034-.02.071-.066.107-.143.09-.185.12-.336.103-.455a.63.63 0 00-.18-.318 2.243 2.243 0 00-.659-.456zm107.465-1.242a74.96 74.96 0 00-.46 4.106c1.548-3.127 2.6-5.79 3.172-9.128.33-1.923.487-3.79.02-3.922-.678-.192-2.041 3.914-2.732 8.944" fill="#400405"/></svg>