<?xml version="1.0" encoding="UTF-8" standalone="no"?>
<svg
   xmlns:dc="http://purl.org/dc/elements/1.1/"
   xmlns:cc="http://creativecommons.org/ns#"
   xmlns:rdf="http://www.w3.org/1999/02/22-rdf-syntax-ns#"
   xmlns:svg="http://www.w3.org/2000/svg"
   xmlns="http://www.w3.org/2000/svg"
   xmlns:sodipodi="http://sodipodi.sourceforge.net/DTD/sodipodi-0.dtd"
   xmlns:inkscape="http://www.inkscape.org/namespaces/inkscape"
   version="1.1"
   id="svg2"
   xml:space="preserve"
   width="321.33334"
   height="276"
   viewBox="0 0 321.33334 276"
   sodipodi:docname="Синий_Лис_Основной_Лого_Светлый.eps"><metadata
     id="metadata8"><rdf:RDF><cc:Work
         rdf:about=""><dc:format>image/svg+xml</dc:format><dc:type
           rdf:resource="http://purl.org/dc/dcmitype/StillImage" /></cc:Work></rdf:RDF></metadata><defs
     id="defs6" /><sodipodi:namedview
     pagecolor="#ffffff"
     bordercolor="#666666"
     borderopacity="1"
     objecttolerance="10"
     gridtolerance="10"
     guidetolerance="10"
     inkscape:pageopacity="0"
     inkscape:pageshadow="2"
     inkscape:window-width="640"
     inkscape:window-height="480"
     id="namedview4" /><g
     id="g10"
     inkscape:groupmode="layer"
     inkscape:label="ink_ext_XXXXXX"
     transform="matrix(1.3333333,0,0,-1.3333333,0,276)"><g
       id="g12"
       transform="scale(0.1)"><path
         d="m 1645.02,1691.34 c -2.25,1.14 -4.38,6.16 -1.17,15.42 3.2,9.26 8.73,13.15 10.97,11.99 28.31,-14.61 65.52,-9.7 78.17,15.41 1.64,3.25 22.46,11.74 22.05,8.96 -7.19,-48.67 -67.99,-73.48 -110.02,-51.78 z M 859.5,939.457 c 0.797,2.387 3.379,3.672 5.766,2.875 2.386,-0.797 3.672,-3.379 2.875,-5.766 -3.059,-9.148 -3.629,-17.726 -2.254,-25.472 5.402,-30.348 38.562,-44.961 66.758,-39.949 11.816,2.101 22.5,7.355 30.816,15.085 -19.008,46.926 -61.891,73.325 -111.09,78.383 -117.578,12.067 -206.492,-83.976 -226.219,-194.804 28.571,-19.504 57.395,-35.032 85.032,-45.332 24.476,-9.122 47.976,-14.129 69.457,-14.141 -0.871,0.68 -1.727,1.375 -2.571,2.086 -45.359,38.195 -34.91,124.605 23.614,137.371 12.476,2.719 25.57,1.668 37.132,-2.328 25.645,-8.867 40.344,-31.113 41.836,-58.559 2.368,-43.613 -31.035,-75.347 -71.203,-84.574 23.434,-9.363 50.52,-10.664 74.934,-4.734 41.25,10.027 78.734,41.507 87.211,99.32 l 0.015,0.117 c 4.375,29.961 2.25,55.992 -4.816,78 -9.133,-7.555 -20.336,-12.707 -32.574,-14.887 -33.098,-5.89 -71.02,11.969 -77.328,47.375 -1.625,9.145 -0.965,19.231 2.609,29.934 z m 110.742,-45.668 c 7.313,9.84 11.52,22.356 11.102,36.727 -1.129,38.39 -31.563,70.074 -69.465,74.074 -50.168,5.29 -106.512,-14.469 -163.578,-34.481 -76.848,-26.953 -155.004,-54.359 -223.953,-23.437 -47.176,21.164 -69.653,53.133 -74.969,84.618 -9.723,57.54 38.316,113.62 98.144,99.33 36.278,-8.66 63.059,-40.58 59.606,-78.64 -1.641,-18.26 -10.961,-34.73 -25.664,-45.71 -11.606,-8.672 -25.543,-13.036 -38.211,-11.887 -17.91,1.617 -34.332,15.657 -38.566,33.167 -4.09,16.96 4.347,31.37 18.144,41.05 2.059,1.45 4.902,0.96 6.356,-1.1 1.449,-2.06 0.953,-4.91 -1.106,-6.36 -10.633,-7.46 -17.738,-18.21 -14.539,-31.44 3.305,-13.71 16.547,-25 30.531,-26.25 10.426,-0.94 22.074,2.78 31.926,10.14 12.645,9.45 20.641,23.52 22.066,39.21 3.036,33.54 -20.773,61.36 -52.648,68.96 -53.418,12.77 -95.684,-37.8 -87.039,-88.97 4.851,-28.74 25.719,-58.075 69.684,-77.798 65.64,-29.441 142.078,-2.637 217.242,23.723 58.031,20.355 115.324,40.445 167.504,34.945 42.461,-4.48 76.379,-39.906 77.636,-82.894 0.52,-17.707 -5.121,-33.043 -14.765,-44.813 -0.512,-0.625 -1.039,-1.238 -1.575,-1.848 8.59,-24.144 11.418,-52.988 6.54,-86.39 l -0.032,-0.188 c -9.148,-62.105 -49.578,-95.964 -94.09,-106.785 -30.543,-7.422 -65.253,-4.328 -92.972,11.067 -26.051,-2.414 -55.153,2.812 -85.543,14.136 -27.192,10.133 -55.465,25.172 -83.504,43.981 -16.356,-104.903 10.473,-243.223 143.23,-234.274 16.512,38.469 64.055,-0.609 7.11,-8.484 -5.469,-29.207 12.246,-51.898 42.594,-53.867 54.542,-3.539 97.222,44.125 137.23,123.453 69.082,136.984 120.982,347.176 142.862,457.666 2.01,15.39 4.7,30.24 7.02,45.49 0.88,3.69 8.74,6.29 17.63,7.51 4.57,0.63 9.46,0.95 13.75,0.9 4.4,-0.05 8.22,-0.51 10.51,-1.41 1.9,-0.76 3.01,-1.9 3.07,-3.47 -3.8,-83.37 -19.93,-157.659 -18.75,-247.088 1.29,-97.723 17.72,-186.586 72.51,-191.7 27.02,-2.515 59.09,31.93 75.28,55.379 -5.78,8.117 -9.95,15.867 -12.16,22.848 -5.01,15.84 -0.92,28.133 15.52,33.336 16.86,5.34 23.48,-11.106 20.94,-25.367 -1.44,-8.067 -5.47,-18.258 -13.22,-30.512 8.46,-10.828 19.85,-22.305 33.23,-33.387 38.47,48.356 79.53,102.496 138.72,125.633 20.24,7.91 38.59,8.383 54.33,3.684 45,-13.434 66.19,-67.453 53.35,-110.453 -25.97,-87.004 -90.22,-99.192 -153.29,-80.364 -32.84,9.805 -65.33,28.164 -91.67,48.649 -13.6,-17.207 -28.75,-36.715 -45.89,-58.883 l -4.55,-5.836 c 50.92,-12.586 95.96,-40.887 124.78,-90.566 23.22,-40.036 25.43,-78.625 14.24,-112.723 -9.32,-28.375 -27.93,-53.539 -51.4,-73.754 -2.6,-2.246 -5.27,-4.426 -7.99,-6.551 l -0.68,-4.906 c -5.9,-40.024 -19.42,-80.895 -35.85,-110.652 3.45,-12.985 5,-26.786 4.91,-40.149 l -0.01,-0.473 c -0.33,-33.554 -28.11,-134.523 -69.82,-135.9214 -19.77,-0.125 -33.61,15.1836 -42.7,31.1523 -9.59,16.8594 -15.45,37.8829 -16.01,54.7461 -0.05,1.449 -0.06,2.887 -0.03,4.305 0.06,2.515 2.13,4.515 4.65,4.465 2.51,-0.051 4.51,-2.129 4.46,-4.641 -0.03,-1.231 -0.02,-2.52 0.02,-3.844 0.52,-15.5037 5.95,-34.9061 14.84,-50.535 7.19,-12.6484 18.57,-26.6484 34.48,-26.5468 35.07,1.1796 60.73,98.8358 61.01,126.8748 l 0.01,0.457 c 0.06,9.551 -0.75,19.321 -2.56,28.785 -19.28,-29.957 -55.3,-57.75 -92.69,-53.269 -27.85,3.332 -53.22,26.656 -53.02,55.668 0.28,40.867 41.59,72.187 80.66,71.91 l 0.24,-0.004 c 28,-0.277 47.31,-14.199 59.58,-34.242 3.16,-5.176 5.85,-10.762 8.09,-16.621 13.52,26.883 24.59,61.488 30.09,95.867 -19.16,-13.207 -40.44,-23.418 -61.97,-29.898 -53.83,-16.196 -121.43,-11.477 -144.53,47.699 -26.83,68.804 36.15,176.738 101.92,159.918 18.81,-4.805 30.81,-22.289 35.14,-40.348 18.32,5.656 36.38,5.449 49.94,-4.625 32.08,-23.852 34.47,-76.102 31.26,-112.246 l 0.6,0.516 c 22.28,19.191 39.91,42.98 48.68,69.683 10.43,31.762 8.31,67.805 -13.45,105.336 -28.16,48.535 -72.77,75.676 -123.18,87.238 -54.14,-67.363 -161.51,-177.343 -249.66,-198.277 -81.976,-19.457 -111.754,61.066 -56.183,121.195 l 0.269,0.27 c 67.694,72.91 207.514,106.324 302.004,86.93 2.41,3.046 4.81,6.105 7.19,9.179 17.18,22.211 32.36,41.762 46,59.02 -12.94,10.715 -24.16,21.887 -32.87,32.648 -19.27,-27.023 -50.03,-62.84 -85.1,-63.844 -48.27,-1.39 -74.94,34.625 -90.07,76.575 -18.99,52.656 -20.8,118.246 -20.52,174.441 -49.77,-197.355 -139.685,-449.894 -268.806,-444.074 -37.734,1.699 -59.633,35.137 -54.293,70.84 -140.297,-6.121 -167.718,137.402 -149.343,249.234 -78.051,54.524 -150.184,134.586 -194.227,218.477 -13.914,26.502 -25.199,53.922 -33.941,81.472 -22.411,70.61 -28.305,142.39 -19.024,201.59 1.656,10.57 3.805,20.74 6.426,30.45 -56.781,49.56 -54.266,124.25 -40.094,192.1 -87.398,47.8 -247.41,217.59 -147.101,310.97 -17.055,18.62 -33.403,37.5 -48.801,56.12 -77.1096,93.25 -130.66819,180.91 -131.23459,198.53 -0.04688,1.5 0.17578,2.82 0.67968,3.94 13.42581,30.09 208.71891,-41.52 237.58191,-51.59 2.375,-0.83 3.629,-3.43 2.805,-5.8 -0.828,-2.38 -3.43,-3.63 -5.805,-2.81 -25.082,8.75 -216.2538,78.11 -226.2382,56.54 h 0.0313 c 0.0273,0.03 0.0469,0.04 0.0469,0 0.5273,-16.27 53.2265,-101.16 129.164,-192.99 15.383,-18.6 31.711,-37.46 48.746,-56.05 17.848,13.73 41.395,22.37 67.527,26.64 l 2.219,0.36 c 2.938,5.32 6.383,10.6 10.348,15.82 67.902,89.34 252.394,69.49 330.676,9.99 26.535,-20.17 49.289,-49.12 61.394,-81.31 126.426,-22.94 298.352,-75.98 385.403,-175.47 55.04,21.35 194.32,4.19 198.48,-67.63 1.46,-25.37 -9.29,-48.44 -36.71,-51.95 -19.38,-2.48 -42.54,10.55 -45.16,31.05 -1.86,14.54 8.7,30.2 23.59,32.11 5.98,0.76 12.64,-0.65 19.49,-5.23 2.08,-1.41 2.64,-4.24 1.24,-6.32 -1.4,-2.09 -4.23,-2.65 -6.32,-1.25 -4.84,3.24 -9.34,4.26 -13.27,3.76 -9.88,-1.26 -16.91,-12.46 -15.7,-21.92 1.97,-15.43 20.64,-25.01 34.98,-23.17 22.43,2.85 29.93,22.16 28.75,42.42 -3.64,63.28 -134.3,78.26 -183.08,60.73 20.23,-24.49 65.57,-93.82 51.48,-125.47 -7.64,-17.14 -42.26,-19.93 -76.8,-15.71 -14.21,1.73 -83.556,11.3 -82.295,40.56 0.817,19 35.02,37.15 55.645,40.17 -1.51,31.51 9.76,51.3 36.87,64.07 -84.569,94.92 -251.538,146.61 -373.241,169.37 6.902,-22.91 8.265,-47.12 1.738,-70.74 -24.293,-87.86 -149.965,-110.83 -226.555,-88.06 74.883,-41.04 156.61,-76.82 237.235,-104.98 25.648,44.83 67.879,97.68 125.109,93.82 25.324,-1.72 43.899,-16.78 57.25,-36.94 18.762,-28.32 27.125,-66.91 29.391,-91.61 1.207,-13.14 -11.051,-17.05 -23.996,-18.45 -36.297,-5.95 -110.621,15.05 -158.969,30.69 -43.574,-96.13 -77.43,-276.4 -45.188,-381.94 11.625,-38.05 31.813,-63.73 62.614,-67.87 70.683,-9.45 130.293,96.59 152.66,150.74 0.336,27.02 2.293,56.58 4.82,84.22 3.93,42.99 9.231,81.36 11.926,98.31 1.164,7.16 14.617,6.3 19.644,5.38 6.016,-1.09 15.25,-4.83 14.606,-10.06 l -1.098,-7.11 c -3.738,-24.23 -12.855,-87.04 -17,-144.3 -3.996,-55.2 -3.965,-105.09 8.867,-107.32 h 0.075 c 11.066,-1.7 23.816,10.36 35.941,27.38 21.516,30.2 40.129,75.44 46.101,91.47 0.24,26.93 2.29,56.63 4.95,84.46 4.64,48.45 11.14,91.29 13.15,103.93 0.62,3.86 5.19,5.97 8.63,6.62 2.8,0.53 6.15,0.54 9.4,0.08 3.27,-0.45 6.53,-1.37 9.16,-2.69 3.27,-1.62 7.6,-5.33 6.94,-9.43 -3.44,-21.56 -16.86,-119.56 -19.1,-189.87 -1.21,-37.89 0.34,-67.16 7.65,-69.74 l 0.2,-0.03 c 6.53,-0.68 20.24,16.14 33.68,36.46 14.11,21.35 27.33,46.37 32.23,60.31 0.95,2.71 1.56,4.92 1.76,6.47 l 2.14,26.56 c 4.71,58.85 9.56,119.28 18.76,177.1 0.49,3.03 3.72,5.01 6.41,5.91 3.34,1.12 7.84,1.33 12.22,0.77 4.33,-0.56 8.72,-1.89 11.88,-3.85 2.69,-1.66 6,-4.79 5.44,-8.25 -4.42,-27.78 -6.35,-54.45 -8.32,-81.45 -0.98,-13.43 -1.96,-26.94 -3.27,-40.84 12.04,8.28 22.91,9.44 33.93,10.61 15.2,1.62 30.72,3.28 50.54,28.37 2.41,22.38 5.11,44.38 8.1,66.42 3.04,22.36 6.39,44.82 10.04,67.8 1.12,6.96 11.39,7.5 16.91,6.98 2.86,-0.26 5.79,-0.84 8.37,-1.68 4.27,-1.38 11.42,-5.26 10.56,-10.72 -3.72,-23.39 -7.11,-46.82 -10.17,-70.25 -3.05,-23.39 -5.81,-46.86 -8.28,-70.38 -2.6,-24.82 -3.65,-59.03 -1.71,-84.9 0.79,-10.54 2.06,-19.59 3.91,-25.91 1.32,-4.54 2.49,-7.26 3.37,-7.33 13.95,3.76 26.95,20.26 38.59,43.23 15.28,30.15 27.89,71.08 37.34,109.51 0.7,24.79 2.55,50.36 4.77,73.69 3.38,35.54 7.62,65.93 9.94,80.5 0.55,3.47 4.67,5.11 7.76,5.67 3.63,0.65 8.48,0.48 12.94,-0.28 4.63,-0.79 9.1,-2.28 11.78,-4.23 3.38,-2.46 3.83,-4.35 3.27,-7.87 -3.55,-22.32 -19.27,-120.96 -20.59,-190.28 -0.72,-37.75 2.25,-66.32 12.88,-66.52 11.61,-0.22 24.43,12.43 36.43,29.63 20.65,29.59 38.14,72.23 44.48,89.28 -1.09,69.56 13.16,157.77 17.45,184.33 1,6.23 1.55,9.26 9.3,10.73 2.8,0.53 6.14,0.54 9.4,0.08 3.26,-0.46 6.53,-1.38 9.16,-2.69 3.28,-1.63 7.57,-5.34 6.93,-9.43 -2.49,-15.68 -16.12,-108.93 -20.02,-180.23 -1.27,-22.95 -1.52,-43.55 -0.06,-58.42 1.24,-12.72 3.19,-20.61 6.08,-20.78 l 0.29,0.02 c 12.69,2.21 26.01,17.74 38.25,38.42 17.74,29.95 32.74,70.25 40.94,97.87 0.23,69.85 13.71,151.89 16.7,170.05 0.87,5.29 1.73,7.26 8.17,8.42 3.4,0.61 7.83,0.43 11.92,-0.31 4.23,-0.77 8.33,-2.2 10.89,-4.06 4.66,-3.39 3.73,-5.91 2.98,-10.62 -2.16,-13.43 -6.86,-42.74 -11.25,-76.86 -9.66,-75.08 -18.46,-174.53 3.04,-177.29 11.14,-1.44 23.91,10.75 36.02,27.82 21.34,30.07 39.75,74.78 45.8,91.02 -1.09,69.54 13.15,157.7 17.44,184.29 l 0.79,4.88 c 1.8,3.63 4.59,5.14 8.51,5.89 2.8,0.53 6.15,0.54 9.4,0.08 3.27,-0.46 6.54,-1.38 9.17,-2.69 3.61,-1.79 6.26,-4.43 6.92,-7.88 l 0.14,-0.75 -0.12,-0.8 c -2.43,-15.22 -13.56,-90.17 -18.63,-156.45 -2.14,-28.03 -3.19,-54.43 -2.02,-73.9 1.04,-17.36 3.29,-28.59 7.32,-29 l 0.2,-0.01 c 9.02,-0.11 19.04,7.65 28.94,19.68 0.1,0.2 0.22,0.38 0.36,0.57 8.18,10.89 15.49,22.18 21.9,33.43 l 1.64,3.03 c -1.08,20.63 8.34,114.59 32.11,109.59 10.97,-2.31 10.6,-19.9 5.79,-40.89 l -0.01,-0.05 c -6.91,-30.14 -22.94,-67.29 -27.67,-76.32 l -0.34,-0.73 c 1.47,-19.9 7.17,-41.24 31.97,-41.13 39.72,0.16 95.95,28.95 139.36,78.71 15.79,18.11 29.86,38.99 40.77,62.28 -25.94,18.3 -47.03,39.88 -61.45,60.2 -25.85,-0.61 -46.75,20.34 -57.99,41.79 -17.81,34.01 -14.65,89.03 28.18,102.67 101.25,32.24 143.05,-108.05 102.82,-201.17 115.35,-67.53 261.07,66.97 194.9,166.66 -53.63,-25.78 -132.3,-19.01 -185.38,5.11 -46.87,21.3 -80.46,74.49 -21.04,96.31 64.77,23.78 171.35,-38.88 209.21,-89.67 30.95,17.46 51.56,48.22 49.24,96.81 -19.9,-15.24 -43.87,-26.09 -69.49,-23.94 -35.76,3 -52.05,30.14 -49.15,64.64 2.42,28.72 26.35,42 52.85,40.21 35.24,-2.38 65.19,-28.38 72.79,-63.02 29.49,27.49 119.12,172.26 85.62,203.26 -23.96,22.19 -256.28,-71.72 -292.66,-90.07 -257.74,-129.99 -715.88,-373.84 -896.31,-347.96 -12.11,1.74 -24.02,7.89 -32.02,17.45 -7.12,8.5 -11.16,19.62 -9.6,32.67 1.34,11.26 6.05,22.17 14.98,29.61 7.52,6.27 17.91,9.99 31.61,9.27 14.59,-0.77 24.11,-9.56 28.02,-19.78 1.48,-3.85 2.15,-7.93 1.99,-11.9 -0.16,-4.05 -1.2,-7.97 -3.14,-11.38 -4.28,-7.52 -12.67,-12.53 -25.35,-11.15 -2.5,0.26 -4.32,2.51 -4.05,5.01 0.26,2.51 2.51,4.32 5.01,4.06 8.49,-0.93 13.88,2.05 16.46,6.57 1.21,2.13 1.86,4.64 1.97,7.25 0.11,2.71 -0.37,5.55 -1.42,8.29 -2.75,7.19 -9.52,13.38 -19.95,13.92 -11.19,0.59 -19.48,-2.28 -25.33,-7.16 -6.95,-5.79 -10.65,-14.54 -11.74,-23.68 -1.23,-10.3 1.95,-19.07 7.54,-25.75 6.53,-7.79 16.32,-12.83 26.31,-14.26 177.6,-25.48 634.09,217.54 890.91,347.07 40.5,20.42 273.57,115.8 302.95,88.6 41.59,-38.51 -54.82,-189.9 -90.13,-220.73 4.08,-46.81 -10.62,-87.45 -52.64,-111.43 70.51,-107.59 -83.94,-250.21 -206.74,-179.26 -11.22,-23.68 -25.59,-44.94 -41.7,-63.4 -45.11,-51.72 -104.15,-81.64 -146.17,-81.82 -23.1,-0.09 -34.05,16.91 -38.82,36.53 -16.48,-31.31 -37.19,-56.9 -59.16,-52.77 -10.92,1.56 -18.85,9.48 -24.41,21.76 -4.07,9 -6.89,20.44 -8.73,33.45 -8.93,-19.83 -22.75,-47.06 -39,-67.55 -13.88,-17.51 -29.68,-30.22 -46.2,-29.97 -14.52,0.23 -24.46,10.03 -30.98,26.01 -4.27,10.45 -7.07,23.69 -8.75,38.61 -9.99,-23.34 -25.03,-54.88 -41,-78.07 -13.94,-20.21 -28.94,-34.3 -42.92,-32.31 -10.92,1.56 -18.85,9.48 -24.41,21.76 -4.08,9 -6.9,20.46 -8.73,33.47 -9.09,-20.11 -23.48,-48.38 -40.31,-69.15 -14.24,-17.58 -30.4,-29.92 -47.11,-28.26 -17.18,1.71 -26.69,18.23 -32.01,38.16 -2.64,9.87 -4.26,20.62 -5.3,30.67 -8.49,-25.19 -18.55,-49.29 -30.18,-68.78 -12.73,-21.33 -27.45,-37.25 -44.24,-43.36 -2.95,-1.07 -5.76,-1.66 -8.43,-1.82 -11.55,-0.67 -19.75,6.48 -25.5,17.95 -5.2,10.35 -8.37,24.4 -10.23,39.1 -2.78,21.82 -2.73,45.21 -2.22,59.81 -14.01,-10.97 -27.95,-13.67 -41.23,-16.25 -17.5,-3.39 -33.77,-6.55 -46.61,-31.68 -1.88,-19.4 -3.59,-38.65 -5.11,-58.32 -1.53,-19.74 -2.82,-39.33 -3.83,-59.17 l -0.02,-0.45 -0.09,-0.35 c -0.9,-3.9 -5.2,-6.09 -10.58,-6.82 -2.18,-0.29 -4.62,-0.38 -7.03,-0.27 -2.45,0.11 -4.87,0.41 -7,0.91 -5.23,1.22 -9.24,3.81 -9.78,7.91 l -0.06,0.42 0.02,0.41 c 0.48,9.36 1,18.62 1.56,27.74 l 0.42,6.75 c -8.32,-14.21 -19.68,-31.5 -31.16,-45.65 -12.39,-15.27 -25.23,-27.06 -35.41,-28.21 -0.24,0 -0.64,-0.03 -0.87,-0.08 -13.34,-0.97 -22.34,10.06 -28.29,24.56 -3.96,9.67 -6.6,20.96 -8.25,30.89 -9.035,-19.98 -23.496,-48.45 -40.305,-69.4 -14.113,-17.61 -30.066,-30.04 -46.422,-28.57 -16.14,1.44 -25.707,16.18 -31.379,33.33 -3.105,9.4 -5.054,19.55 -6.281,28.44 -32.234,-63.92 -86.793,-139.59 -166.379,-135.27 -51,2.77 -78.621,51.57 -92.672,108.77 -30.257,123.14 -7.246,263.52 51.793,374.29 -100.019,35.39 -203.875,85.29 -293.293,142.43 -64.906,35.82 -131.07,95 -189.398,157.8 -93.805,-87.7 62.34,-250.06 142.906,-294.91 1.469,6.05 3.008,11.48 4.547,16.1 8.371,25.12 29.398,42.2 56.734,38.37 19.098,-2.67 33.743,-26.23 33.325,-44.4 -0.532,-23.13 -20.469,-38.16 -42.891,-37.64 -15.828,0.38 -31.422,6.81 -45.414,13.89 -12.383,-61.94 -15.746,-131.51 34.543,-177.97 12.785,40.68 37.504,80.63 80.113,94.16 18.305,5.82 38.985,2.7 58.102,-12.9 15.859,-12.95 30.629,-34.56 41.918,-66.92 11.422,-32.76 12.578,-60.51 7.34,-82.33 -9.735,-40.56 -43.372,-64.32 -84.567,-56.6 -25.402,4.77 -46.515,21.4 -47.566,48.62 -0.457,11.71 3.324,23.77 11.789,32.1 -20.34,2.77 -42.692,12.8 -62.219,27.81 -2.066,-8.17 -3.793,-16.69 -5.172,-25.5 -9.066,-57.84 -3.258,-128.13 18.738,-197.44 8.618,-27.16 19.696,-54.1 33.301,-80.011 42.817,-81.567 112.473,-159.176 187.895,-212.774 21.804,113.91 114.789,210.531 235.375,198.145 50.808,-5.215 95.793,-32.207 116.941,-79.891 z m 594.938,174.341 c -3.31,-3.64 -7.31,-4.88 -11.17,-3.9 -3.56,0.9 -6.71,3.75 -8.69,8.38 -3.46,8.09 -3.53,22.92 5.38,43.07 2.32,5.23 4.76,10.49 7.35,15.76 -3.84,22.64 -11.42,42.84 -23.31,42.7 l -0.41,-0.03 c -4.78,-1.12 -9.33,-4.22 -13.65,-8.91 -18.25,-19.88 -30.93,-78.9 -37.57,-127.34 -6.69,-48.766 -7.17,-101.325 -1.03,-129.856 1.96,-9.086 4.48,-15.613 7.54,-18.641 27.47,-14.05 122.19,94.575 141.61,120.237 v -0.07 l 0.06,0.08 c -2.79,9.95 -4.63,20.62 -5.39,32.02 -0.91,13.58 4.1,23.25 10.23,27.92 3.46,2.63 7.34,3.79 10.98,3.37 3.92,-0.47 7.4,-2.65 9.71,-6.68 3.52,-6.15 4.13,-17.25 -2.05,-33.68 -2.59,-6.88 -7.28,-15.24 -13.51,-24.45 7.94,-25.305 22.59,-45.309 41.65,-59.837 21.87,-16.664 49.59,-26.203 79.69,-28.335 27.03,-1.918 55.97,2.136 84.32,12.351 12.01,26.43 23.06,50.586 33.01,71.891 -27.24,-11.067 -56.52,-17.262 -84.89,-17.391 -77.97,-0.348 -146.99,56.651 -137.18,137.761 3.52,29.2 20.31,55.09 45.13,70.88 19.54,12.41 44.05,18.62 70.98,15.36 10.88,-1.32 25.11,-4.1 34.22,-10.57 6.71,18.43 16.7,38.67 29.27,58.67 9.27,14.77 19.97,29.41 31.8,43.13 -15.85,4.18 -33.06,6.45 -51.55,6.37 -13.09,-0.07 -26.83,-1.31 -41.18,-3.88 -49.08,-8.82 -90.5,-31.78 -124.54,-61.86 -34.38,-30.37 -61.26,-68.03 -80.97,-105.78 2.16,-13.75 6.14,-55.62 -5.84,-68.74 z m 3.04,82.77 c 19.6,35.3 45.43,70.03 77.73,98.57 35.21,31.1 78.09,54.85 128.98,64 14.86,2.67 29.13,3.96 42.75,4.02 21.04,0.09 40.53,-2.74 58.33,-7.88 41.51,45.2 95.54,77.94 151.49,66.61 l 0.07,4.33 c 0.87,32.73 9.67,65.65 30.75,88.01 5.1,5.41 11,9.15 17.19,10.79 6.99,1.85 14.26,1.05 21.13,-2.99 6.5,-3.83 12.55,-10.57 17.49,-20.72 7.82,-16.1 13.05,-41.29 12.91,-77.82 7.85,0.29 14.8,-0.81 20.9,-3.17 44.72,-17.28 32.58,-94.83 24.72,-130.67 C 2133.2,1064.02 1986.18,850.941 1825.88,759.043 1805.3,747.242 1784.94,737.789 1765.16,731.012 1613.19,403.012 1397.49,-21.7656 1247.55,3.16016 1222.07,7.39453 1167.4,42.0313 1097.9,122.895 1049.39,179.344 993.328,258.543 934.484,365.98 c -1.203,2.208 -0.386,4.977 1.825,6.176 2.207,1.199 4.972,0.383 6.175,-1.824 58.476,-106.773 114.176,-185.449 162.346,-241.508 67.91,-79.0232 120.24,-112.6873 144.19,-116.6677 142.78,-23.7344 353.8,390.6247 504.36,715.1207 -8.24,-2.402 -16.37,-4.324 -24.35,-5.73 -2.26,-13.992 -5.64,-28.418 -9.99,-43.09 -15.79,-53.266 -44.33,-109.871 -78.17,-159.973 -21.3,-31.527 -116.55,-151.765 -159.34,-144.043 -26.42,4.758 -42.74,49.579 -48.73,72.227 -8.25,31.215 -10.19,65.203 -2.09,84.484 6.94,16.532 19.1,28.395 37.59,30.7 29.56,3.687 68.93,-15.379 73.83,-46.77 3.03,-19.434 -3.67,-42.488 -18.44,-55.859 -8.07,-7.305 -18.39,-11.602 -30.55,-10.739 -2.51,0.18 -4.41,2.36 -4.23,4.875 0.18,2.512 2.36,4.407 4.88,4.231 28.53,-2.027 43.12,31.91 39.34,56.098 -4.12,26.48 -39.14,42.164 -63.72,39.101 -15.18,-1.894 -24.63,-11.715 -30.28,-25.172 -7.32,-17.433 -5.31,-49.133 2.49,-78.629 4.84,-18.289 19.99,-61.711 41.51,-65.59 36.67,-6.625 131.35,112.332 150.17,140.192 33.37,49.398 61.48,105.113 76.99,157.437 3.94,13.313 7.08,26.391 9.26,39.082 -61.51,-7.796 -125.03,18.446 -126.87,87.036 -0.96,35.558 23.67,61.296 58.92,62.246 31.45,0.839 55.96,-22.075 68.72,-49.161 11.71,-24.886 14.33,-55.578 10.08,-89.171 9.19,1.761 18.58,4.226 28.14,7.351 24.96,53.926 48.17,105.172 69.06,151.258 l 14.15,31.23 c -26.91,-8.574 -54.15,-11.882 -79.79,-10.062 -31.85,2.254 -61.26,12.414 -84.58,30.191 -18.89,14.395 -33.75,33.739 -42.64,57.875 -0.79,-1.074 -1.6,-2.16 -2.42,-3.246 l -0.03,-0.027 -0.01,-0.024 c -23.26,-33.066 -108.04,-136.136 -146.35,-129.675 -19.67,3.316 -32.17,24.496 -38.38,54.543 -9.2,-20.375 -21.14,-44.172 -33.76,-63.075 -14.46,-21.656 -30.19,-37.121 -44.77,-35.05 -10.92,1.562 -18.85,9.484 -24.41,21.769 -4.07,8.996 -6.9,20.453 -8.73,33.465 -9.07,-20.074 -23.37,-48.184 -40.11,-68.91 -14.2,-17.586 -30.31,-29.996 -46.99,-28.547 -44.84,3.895 -44.9,105.938 -37.92,186.336 3.98,45.819 10.17,84.749 11.46,92.859 1.27,7.91 15.28,6.64 20.76,5.7 5.38,-0.92 16.38,-3.65 15.2,-11.14 -2.07,-12.97 -8.57,-53.86 -13.65,-99.689 -7.89,-71.128 -12.83,-154.003 6.85,-156.187 11.22,-1.246 24,11.012 36.09,28.09 21.22,29.984 39.48,74.375 45.58,90.761 -0.43,26.973 1.19,56.606 3.57,84.325 4.16,48.36 10.69,91.41 12.72,104.12 1.16,7.26 13.52,7.42 19.08,6.68 5.69,-0.77 18.06,-4.5 16.87,-12.1 -2.89,-18.22 -13.18,-84.34 -18.64,-145.743 -5.24,-59.039 -6.75,-113.688 5.68,-113.617 13.7,0.082 28.09,17.66 41.04,41.168 11.86,21.527 22.26,47.82 29.97,70.777 -1.18,17.941 -0.9,37.562 0.73,56.785 2.62,30.97 8.78,75.61 18.05,103.26 10.22,30.47 32.72,79.81 70.69,81.06 18.34,0.5 29.47,-19.06 35.31,-42.67 z m 202.32,-408.255 c 16.59,6.281 33.6,14.457 50.81,24.324 158.11,90.633 303.47,301.451 342.38,478.931 6.61,30.14 19.35,105.4 -19.08,120.26 -6.02,2.32 -13.25,3.13 -21.75,2.24 l -0.53,-0.02 c -2.52,0.04 -4.52,2.11 -4.49,4.62 0.63,37.64 -4.34,62.99 -11.97,78.68 -4.1,8.43 -8.88,13.88 -13.88,16.82 -4.62,2.73 -9.51,3.27 -14.2,2.03 -4.52,-1.2 -8.94,-4.05 -12.87,-8.22 -19.37,-20.54 -27.47,-51.27 -28.29,-81.98 -0.06,-2.15 -0.08,-4.31 -0.06,-6.46 23.61,-8.69 69.3,-74.21 52.09,-100.33 -3.07,-4.65 -7.95,-7.28 -14.95,-7.09 -32.74,0.88 -45.09,74.14 -46.1,100.43 -51.77,11.51 -102.41,-18.24 -142.06,-60.31 21.62,-7.52 40.52,-18.54 56.43,-31.87 9.69,-8.12 18.27,-17.1 25.67,-26.68 l 0.69,-0.24 c 11.07,-4.05 21.19,-11.14 29.53,-20.94 l 0.21,-0.24 c 32.04,-37.99 25.3,-96.09 9.49,-139.37 -29.88,-81.73 -86.44,-134.273 -146.96,-159.406 -2.33,-0.965 -4.66,-1.89 -6.99,-2.777 l -17.75,-39.125 c -19.86,-43.82 -41.82,-92.293 -65.37,-143.277 z m 207.93,489.695 c 13.86,-22.85 22.36,-49.39 22.48,-76.23 0.23,-53.36 -32.79,-97.99 -75.38,-127.38 -10.36,-7.15 -21.43,-13.5 -32.98,-18.98 -9.96,-21.191 -21.17,-45.641 -33.46,-72.664 57.64,24.566 111.33,75.084 139.9,153.244 14.6,39.95 21.85,95.1 -7.87,130.38 l -0.19,0.23 c -3.79,4.46 -7.99,8.27 -12.5,11.4 z m -415.81,-111.55 c -9.13,-11.94 -15.98,-45.37 -6.4,-47.71 7.01,-1.46 10.71,39.24 6.4,47.71 z m 323.1,-104.18 c 6.86,14.54 13.13,27.54 18.78,38.78 -5.56,-0.95 -11.33,-1.15 -17.08,-0.38 -20.05,2.7 -39.65,17.03 -49.19,52.48 l -0.05,0.2 c -1.45,5.53 -1.79,12.85 -1.02,21.26 -0.19,-0.29 -0.4,-0.57 -0.61,-0.85 -3.12,-3.99 -7.89,-6.16 -14.6,-5.73 -12.91,0.84 -20.2,8.86 -22.67,21.74 -2.29,11.97 -0.09,28.45 5.81,47.13 -8.49,6.78 -21.68,9.21 -32.23,10.48 -24.73,2.99 -47.17,-2.66 -65.01,-14.01 -22.55,-14.33 -37.76,-37.71 -40.96,-64.23 -9.14,-75.64 55.65,-127.906 128.08,-127.589 30.45,0.136 62.02,7.579 90.75,20.719 z m -45.64,129.81 c 2.77,11.81 7.3,24.6 13.63,37.05 14.74,28.98 39.27,56.43 74.18,65.82 l 0.59,0.16 c 8.29,2.17 16.55,2.76 24.54,1.9 -5.15,5.76 -10.79,11.24 -16.9,16.35 -16,13.41 -35.2,24.36 -57.3,31.5 -12.59,-14.24 -23.94,-29.64 -33.69,-45.16 -12.96,-20.64 -23.08,-41.47 -29.56,-60.14 11.63,-11.6 22.44,-30.83 24.51,-47.48 z m -12.15,334.81 c 1.81,3.87 3.55,7.74 5.2,11.57 9.2,23.13 25.63,69.03 15.96,71 -10.8,2.2 -20.29,-69.25 -21.16,-82.57 z M 457.09,1297.5 c 2.496,0.35 4.805,-1.38 5.164,-3.88 0.351,-2.49 -1.383,-4.8 -3.875,-5.16 -19.801,-2.86 -26.793,15.07 -22.156,31.03 4.226,14.53 15.086,23.1 30.132,23.35 21.141,0.38 33.583,-14.04 35.786,-34.08 1.703,-15.77 -4.426,-30.57 -17.989,-39.02 11.395,-5.83 18.657,-19.19 17.567,-31.92 -0.625,-7.36 -4.102,-14.73 -10.219,-19.07 -2.039,-1.47 -4.883,-1.01 -6.352,1.03 -1.468,2.04 -1.007,4.89 1.036,6.36 4.007,3.22 5.996,7.3 6.433,12.43 1.129,13.22 -9.183,26.42 -22.367,25.56 -13.836,-0.91 -28.457,-8.99 -27.555,-32.45 0.891,-22.87 19.02,-36.02 40.145,-39.98 36.43,-6.84 65.433,13.93 74.031,49.74 4.863,20.26 3.711,46.24 -7.094,77.22 -10.687,30.64 -24.425,50.91 -39.054,62.85 -16.473,13.44 -34.11,16.19 -49.61,11.27 -40.836,-12.81 -63.883,-53.19 -75.336,-91.97 l 0.481,-0.39 c 23.297,-18.68 56.215,-30.48 73.527,-28.54 15.59,1.74 35.582,11.87 33.289,35.91 -1.461,15.31 -10.281,26.24 -26.578,25.94 -10.98,-0.19 -18.43,-6.13 -21.519,-16.77 -2.743,-9.43 -0.602,-21.3 12.113,-19.46 z m -180.719,537.53 c 31.035,3.22 64.801,0.79 96.356,-6.16 l 0.382,-0.1 c 34.633,-7.68 66.704,-20.84 89.704,-37.98 65.808,3.86 129.257,0.14 194.257,-10.91 -12.007,28.61 -32.914,54.25 -56.597,72.26 -74.082,56.3 -253.278,76.82 -317.93,-8.25 -2.262,-2.98 -4.301,-5.93 -6.172,-8.86 z m 384.442,-65.04 c -63.438,11.15 -126.219,15.44 -187.665,12.25 40.11,-36.89 32.832,-95.05 -20.421,-106.83 -35.516,-7.85 -65.977,12.66 -65.977,50.54 0,37.19 27.398,59.22 61.891,63.56 -21.047,13.45 -48.286,23.89 -77.516,30.37 l -0.359,0.07 c -32.93,7.25 -68.246,9.45 -100,5.24 -37.481,-74.77 46.949,-135.73 106.437,-174.8 91.965,-64.09 258.766,-46.96 286.469,49.49 6.715,23.37 4.805,47.47 -2.859,70.11 z m -400.786,53.5 c -22.625,-4.18 -42.957,-11.91 -58.539,-23.73 23.391,-25.18 48.032,-49.74 73.317,-72.41 -23.664,30.77 -28.438,64.06 -14.778,96.14 z m 457.188,-330.35 c 45.57,-14.19 98.82,-29.85 134.156,-19.95 8.348,2.34 10.055,12.27 9.258,19.9 -3.223,30.84 -12.82,82.53 -52.227,86.89 -42.382,0.46 -74.828,-53.45 -91.187,-86.84 z M 17.1875,2055.56 c -0.0469,-0.1 0.0117,0 0.0586,0.05 H 17.2148 Z M 778.039,526.887 c 27.402,4.801 6.41,12.199 0,0 z m 5.887,192.496 c 3.578,-3.012 7.461,-5.754 11.597,-8.211 40.34,4.719 78.415,33.293 76.028,77.269 -1.293,23.688 -13.559,42.762 -35.699,50.418 -10.028,3.461 -21.391,4.375 -32.243,2.008 -51.066,-11.133 -59.132,-88.265 -19.683,-121.484 z m 501.444,512.977 0.02,-0.01 z m -934.776,279.86 c -1.66,-4.99 -3.324,-10.97 -4.887,-17.7 13.227,-6.83 28.645,-13.66 43.637,-14.02 17.101,-0.4 33.136,10.59 33.57,28.74 0.301,13.53 -11.07,33.15 -25.473,35.16 -22.882,3.21 -39.886,-11.31 -46.847,-32.18 z m 109.679,269.05 -0.238,0.18 c -33.433,-2.47 -64.148,-16.61 -64.148,-55.5 0,-32 25.019,-48.24 54.875,-41.65 50.429,11.15 49.218,65.59 9.511,96.97 z m 589.907,-189.64 c -24.6,-10.98 -35.06,-26.27 -34.04,-55.39 13.99,0.6 43.16,-9.11 39.7,-27.14 -2.21,-11.55 -12.46,-18.37 -23.95,-16.16 -16.16,3.1 -21.58,17.97 -23.84,32.5 -19.472,-2.92 -46.581,-17.08 -46.952,-31.33 -0.551,-20.51 62.232,-29.58 73.952,-31.01 31.1,-3.78 61.68,-2.06 67.17,10.35 12.37,27.73 -34.09,96.84 -52.04,118.18 z m -33.2,-64.49 c 1.55,-10.32 4.73,-22.96 16.62,-25.24 6.55,-1.25 12.02,2.3 13.28,8.91 1.96,10.34 -22.2,16.56 -29.9,16.33 z m 266.89,-808.847 c 5.76,9.66 8.84,17.699 9.99,24.125 1.17,6.633 0.55,18.16 -9.2,15.086 -10.39,-3.289 -12.88,-11.371 -9.55,-21.875 1.68,-5.316 4.66,-11.164 8.76,-17.336 z m 46.1,-47.047 c 25.51,-19.832 56.92,-37.594 88.61,-47.051 58.42,-17.437 117.92,-6.207 141.93,74.223 11.39,38.133 -7.05,87.117 -47.21,99.098 -13.89,4.144 -30.22,3.675 -48.4,-3.434 -57.11,-22.32 -97.75,-76.094 -134.93,-122.836 z m -72.42,-77.68 c -90.35,16.84 -224.41,-15.617 -288.902,-85.097 l -0.207,-0.242 c -48.773,-52.766 -26.464,-123.645 47.359,-106.125 84.74,20.128 189.35,126.941 241.75,191.464 z m 21.03,-306.503 c 23.29,7.007 46.25,18.558 66.33,33.628 4.11,34.325 4.46,89.86 -26.68,112.942 -11.3,8.402 -26.88,8.226 -42.94,2.98 0.95,-8.574 0.42,-17.566 -1.83,-26.371 -4.76,-18.59 -11.62,-32.789 -19.23,-43.179 -9.88,-13.493 -32.98,-32.297 -50.07,-19.762 -29.74,21.777 11.19,63.48 30.04,77.547 9.57,7.148 20.15,13.297 30.88,17.64 -3.37,15.043 -12.99,30.555 -28.75,34.59 -57.79,14.762 -115.53,-85.289 -91.17,-147.75 21.23,-54.418 84.5,-56.988 133.42,-42.265 z m -13.97,125.429 c 1.77,6.922 2.32,13.969 1.83,20.754 -9.24,-4.004 -18.4,-9.461 -26.78,-15.715 -12.94,-9.664 -52.25,-46.66 -30.11,-62.875 12.02,-8.816 30.9,9.028 37.32,17.801 6.97,9.508 13.29,22.652 17.74,40.035 z m 42.56,-211.097 c -2.46,8.175 -5.75,15.914 -9.97,22.816 -10.71,17.5 -27.53,29.656 -51.86,29.894 h -0.21 c -33.99,0.239 -71.28,-27.121 -71.52,-62.843 -0.17,-24.348 21.77,-43.785 44.98,-46.563 37.32,-4.465 71.09,26.406 88.58,56.696 z m 330.95,818.555 c 3.61,5.87 6.38,11.21 8.11,15.82 5.07,13.48 5.02,21.82 2.66,25.94 -0.75,1.32 -1.76,2.02 -2.81,2.14 -1.32,0.15 -2.88,-0.38 -4.42,-1.55 -4.05,-3.09 -7.34,-9.95 -6.66,-20.06 0.53,-7.79 1.58,-15.22 3.12,-22.29 z m 324.03,220.3 c -9.89,2.97 -20.57,3.2 -31.31,0.38 l -0.55,-0.15 c -31.99,-8.61 -54.66,-34.14 -68.4,-61.15 -13.74,-27.02 -18.55,-55.17 -14.85,-69.32 l 0.05,-0.16 c 8.36,-31.08 24.86,-43.55 41.59,-45.8 7.22,-0.98 14.53,-0.09 21.29,2 10.49,30.88 24.99,42.05 32.9,38.71 5.31,-2.25 8.31,-12.15 2.7,-22.91 -5.52,-10.74 -18.08,-19.12 -29.27,-23.28 -5.16,-10.09 -10.98,-21.97 -17.39,-35.43 7.44,3.98 14.63,8.36 21.49,13.09 40.03,27.62 71.66,69.58 71.44,119.84 -0.13,30.29 -11.69,60.08 -29.69,84.18 z m -41.36,-169.93 c 5.67,1.92 24.59,19.43 17.63,23.83 -5.28,3.35 -16.44,-19.62 -17.63,-23.83 z m 123.9,492.76 c 35.99,84.75 0.72,217.12 -92.31,187.48 -37.08,-11.8 -37.91,-61.02 -22.86,-89.77 8.48,-16.2 24.6,-34 43.67,-36.63 -7.47,12.03 -15.42,28.23 -15.51,42.48 -0.11,17.18 11.31,24.93 27.43,24.27 18.24,-0.74 33.58,-23.5 32.87,-41.02 -0.66,-16.03 -13.77,-28.86 -28.55,-33.4 13.44,-18.04 32.3,-36.98 55.26,-53.41 z m -60.87,61.37 c 12.09,2.46 24.52,12.75 25.06,25.8 0.5,12.5 -11.1,31.03 -24.13,31.56 -10.85,0.44 -18.04,-3.27 -17.97,-15.13 0.1,-13.72 9.5,-30.91 17.04,-42.23 z m 258.16,107.83 c -35.79,47.02 -137.97,107.31 -197.91,85.3 -54.76,-20.12 -12.2,-64.04 21.65,-79.42 50.2,-22.81 125.31,-29.65 176.26,-5.88 z m 56.42,111.89 c -5.02,33.1 -32.13,58.68 -65.42,60.92 -21.42,1.45 -41.15,-8.25 -43.13,-31.84 -2.48,-29.42 10.08,-52.22 40.79,-54.8 25.34,-2.13 48.75,10.05 67.76,25.72 z m -485.92,-660.09 c -4.45,-15.38 -6.03,-28.67 -4.19,-38.26 1.63,-8.53 6.23,-13.82 14.27,-14.34 3.39,-0.22 5.6,0.63 6.85,2.23 1.47,1.88 2.05,4.93 1.91,8.7 -0.52,13.73 -10.12,31.59 -18.84,41.67 z m 224.43,179.78 c 1.11,-20.08 12.78,-87.68 37.06,-88.31 3.51,-0.09 5.82,1.01 7.13,2.99 12.56,19.06 -26.95,76.73 -44.19,85.32 z m -315.9,-634.368 c 4.54,32.985 2.31,62.946 -8.94,86.848 -11.15,23.676 -32.59,44.687 -60.26,43.945 -30.24,-0.812 -50.85,-22.496 -50.03,-52.922 1.72,-64.25 62.83,-85.832 119.23,-77.871"
         style="fill:#400405;fill-opacity:1;fill-rule:nonzero;stroke:none"
         id="path14" /></g></g></svg>
