<svg version="1" xmlns="http://www.w3.org/2000/svg" width="933.333" height="933.333" viewBox="0 0 700.000000 700.000000"><path d="M54.6 101.5c-2.3 2.3-1.7 5.7 2.5 13.9 11.7 23.2 54.7 66.6 87.4 88.3 19.8 13.2 42.1 25.3 61 33.3 5.5 2.4 10.1 4.4 10.3 4.5.2.2-1.1 3.3-2.7 7-3.9 8.5-8.5 23.6-10.5 34-2.2 11.8-1.5 38.4 1.3 48.8 2.8 10.5 5.2 15.7 9.5 20.5 13.1 14.5 33.9 7.7 49.4-16.2l4.5-6.9 1.2 3.7c4.9 14.2 16.3 11 26.4-7.4l2.9-5.2 1.2 3.6c1.5 4.6 4.6 7.6 7.8 7.6 2.5 0 9.3-6.2 13.8-12.5l2.2-3-.6 2.9c-.6 3.2 1.6 5.6 5.2 5.6 4 0 4.6-1.4 5.2-11 .4-5.2.8-10.1.9-11 .2-.8.4-3.2.4-5.2.1-5.5 3.8-9.2 10.8-11.1 3.2-.8 6.6-1.8 7.6-2.2 1.4-.6 1.7-.2 1.8 2.6.4 19.9 6 27.7 15.5 21.8 3.5-2.1 9.1-10.3 12.1-17.6 1-2.3 2.1-4.3 2.4-4.3.4 0 .9 1.7 1.3 3.7.8 5.3 4.8 9.3 9.2 9.3 4.6 0 10.6-5.5 15.9-14.6l3.9-6.6 1.1 3.2c.6 1.7 2.2 4.3 3.5 5.7 5.1 5.3 12.2.1 19.8-14.4l4-7.7 1.3 4.3c1.2 4.2 5.8 9.1 8.4 9.1 4.7 0 11.4-5.7 16.3-13.8 1.8-2.9 3.2-5.7 3.2-6.2 0-2.2 1.7-.8 2.8 2.4 1.9 5.3 4.7 7.1 10.5 6.7.9 0 3.7-2.1 6.1-4.6l4.5-4.5 3 3c1.6 1.7 3.7 3.1 4.5 3.1.9.1 2.2.2 2.9.3 2.7.4 9.3-1.7 17-5.3 28.4-13.5 57.6-39 80.4-70.1 26-35.5 42-74.6 35-85.3-2.7-4.2-9.4-4.4-24.2-.6-17 4.3-39.4 14.1-88 38.2-34.3 17.1-60.3 29.7-68.5 33.5-48.8 21.8-82.3 32.5-104 33.1-11.8.3-16.4-3-14.6-10.4 1.3-5.2 10.6-6.1 10.6-1.1 0 1.8-.6 2.5-2.2 2.8-1.5.2-2.4 1.1-2.6 2.5-.3 2 .1 2.3 3.2 2.3 8.8 0 8.8-13.4 0-15.6-3.7-.9-10.1 1.3-12 4.2-2.8 4.2-2.9 10.4-.2 14.3 4.1 6.1 13.3 7.4 31.5 4.5 17.8-2.8 52.3-14.1 75.8-24.9 1.7-.7 7.5-3.3 13-5.8 16.8-7.6 31.5-14.7 68.3-33.1 42.1-21 64.2-30.9 82.4-37 19.1-6.4 26.8-6.7 28.2-1 1.8 7-7.6 31.4-20.6 53.7-24.2 41.5-63.1 78.6-97.9 93.2-7.9 3.4-12.7 3.5-15.1.5-2.5-3.1-2.3-4.3 1.6-12.4 5-10.3 6.8-16.3 6.9-23.3.2-5.2-.2-6.6-2-8.5l-2.3-2.2-2.7 2c-4.7 3.5-8.2 17.2-8.6 33.4-.1 4.2-4.9 11.8-9.4 14.8-2.1 1.3-2.3 1.3-3.2-.9-.8-2.4-.7-23.6.3-29.4.2-1.7.7-5.5 1.1-8.5.4-3 .8-6.6 1-8 .2-1.4.7-5 1-8 .4-3 .9-5.8 1.1-6.1.7-1.2-2.2-4-4.6-4.4-4.8-.9-5.2-.1-7 13.4-1.7 13.5-2 16.5-2.4 25.6-.4 9.9-2.5 16.1-9.1 27.3-3.2 5.6-7.6 10.2-9.6 10.2-1.9 0-3.1-4.8-3.1-12.9 0-8.2.8-18.7 1.7-24.1.2-1.4.7-5 1-8 .3-3 .8-6.2 1-7 1-3.9 1.5-11.9.8-12.3-.4-.2-2-.7-3.4-1-4.3-1.1-5.7 1-6.9 10.3-.7 4.7-1.4 9.6-1.5 11-.2 1.4-.7 7.2-1.1 13-.9 14.7-6.9 30.6-14.5 38.7-4.8 5.3-5 5.1-5.3-7-.1-6.6 1.7-30.3 2.9-36.7.7-3.6 1.8-13.7 1.7-15.4-.1-2.4-1.9-3.6-5.5-3.6-3.2 0-4.1 1.7-5.2 10.5-.4 3.2-.8 6.7-1 7.7-.6 3.2-1.6 14.2-2 22.8-.3 7.8-.8 9.2-5.4 18.5-5.3 10.6-10 16.5-13.1 16.5-1.5 0-2-1-2.6-4.6-1.1-7.7.8-32.7 4.2-54.2.7-4.3-1-6.2-5.2-6.2-2.7 0-3.6.5-4.3 2.2-1 2.7-2.5 16.3-3.6 31.3-.9 14.3-9.2 35.9-15.8 41.4-1.4 1.1-1.8 1.1-2.4-.5-1.4-3.6-.7-29.8 1.1-39.9.2-1.1.9-6.4 1.7-11.9 1.2-9.3 1.2-9.9-.6-11.2-2.7-2-7.2-1.8-7.9.3-.9 2.9-2.8 15.8-4.2 27.4-.9 8.2-4.2 11.1-14.1 12.3-1.8.3-3.8.8-4.4 1.2-.8.5-1-1.5-.5-7.7 1-12.3 1.7-19.3 2.2-20.1.7-1-3.8-3.8-6.2-3.8-3 0-4.1 1.7-4.8 7.5-.3 2.7-.8 6.6-1.1 8.5-1 8-2.4 21.8-2.9 30.6-.5 6.8-1.1 8.5-6.2 17.1-4.9 8.2-9 13.1-10.1 11.9-.4-.4-.8-5.4-.8-11.1-.1-12.9.8-23.3 3.6-43.7 1.1-8.1.6-9.5-3.3-10.3-3.9-.9-5.6.8-6.2 6-.7 5.4-1.6 12.3-2.1 16.5-.3 1.9-.8 8.4-1.1 14.5-.6 10.5-.8 11.5-5.3 21-7.4 15.6-15.8 23-16.2 14.1-.6-11.6.3-27.7 2.1-40.6.5-3.6 1.2-8.8 1.6-11.5.3-2.8.8-5.3 1-5.7.7-1.2-3.9-3.7-6.4-3.5-3.1.2-3.9 1.8-4.7 10.7-.4 4.1-.8 7.7-1 8-.4.6-1.4 14.6-1.6 22.5-.4 10.2-13.2 30.5-23.5 37.4-14 9.2-25.6 1.7-29.5-19.1-1.2-7-1.5-26.4-.5-34.8 2.2-17 6.3-34 11-45.6l1.7-4.1 8.1 2.3c15.6 4.5 28.1 5.8 34.2 3.5 2.8-1.1 2.9-1.3 2.3-6.4-1.2-11.8-7.2-23.4-14.2-27.5-5.5-3.2-14.2-2.6-20.9 1.3-4.2 2.5-11.4 10-15.6 16.3l-1.5 2.3-6.5-2.6c-11.2-4.6-32-15-44.7-22.4-27.7-16.1-44.2-29-69.4-54.1-11.5-11.5-16.1-16.6-25.3-28.1-6.8-8.5-14.6-21.3-14.6-24.1 0-2 .4-2 6.5-1.4 19.8 2 82.4 23.9 126.2 44.1 4.1 1.9 7.6 3.5 7.9 3.5.8 0 39.2 19 48.4 24 21.4 11.7 42.6 25.5 52.4 34.2l4.9 4.4-3.2 3.4c-2.6 2.9-4.9 8.8-4.3 11.2.1.3-1.9 1.4-4.4 2.4-4.7 1.8-9.4 6.4-9.4 9.3 0 8.7 27.7 15.5 38.1 9.4 3.5-2.1 4.5-6.3 2.9-12.4-1.2-4.5-5.8-13.5-9.2-17.8-1.7-2.2-1.7-2.6-.3-3.4 1.8-1 11.8-1.1 18-.2 5.4.8 16.4 6.4 18.6 9.5 3.9 5.4 2.7 12.4-2.2 13.5-4 .9-6.8-.2-7.5-3-.9-3.6.3-4.8 4.1-4.1 3.8.7 5.4-1.4 2.9-3.9-2.4-2.3-7.1-1.9-9.9 1-6.4 6.3.7 16.7 10.3 15.1 9.8-1.5 12.6-13 5.5-22.4-2.7-3.6-11.3-8.3-18.4-10-4-1-20.5-1-25 0-.9.1-3.9-1.7-6.5-4.3-18-16.7-64.2-43-114.4-65-7.4-3.3-14.4-6.4-15.5-6.9-1.1-.5-4.9-2.1-8.5-3.5-48.7-19.5-84.2-30.6-103.1-32.2-5.4-.4-6.8-.2-8.3 1.2zm451 120.6c-.4 2.8-1.8 7.8-3.1 11.2l-2.5 6.2.6-5c1-9.3 3.4-17.5 5.1-17.5.3 0 .3 2.3-.1 5.1zM316 231.6c4.2 8.1 4.5 13.3 1 15.1-4.8 2.6-21.8 0-27.4-4.2-1.9-1.4-1.9-1.6-.2-3.4 1-1.1 3.1-2.4 4.6-3 2.6-.8 2.9-.7 4 1.9 1.3 3.2 5.8 5.5 9 4.5 2.8-.9 4.2-4.8 3-8-.8-2.2-2-3-7.8-5-1.6-.6 1-7.3 3.6-9.3 1.5-1.1 2.1-.9 4.3 1.8 1.5 1.8 4.1 6 5.9 9.6zm-61.9-8.9c4.1 2.4 7.1 10 6.7 17.1l-.3 5.7h-7c-3.8 0-8.3-.3-10-.7-7.2-1.4-14.5-4-14.5-5.1 0-.7 1.2-3 2.6-5.2 8-12.1 15.4-16 22.5-11.8zm50.9 13.8c1.4 1.6 1 1.8-1.4.9-.9-.3-1.6-1-1.6-1.5 0-1.4 1.6-1.1 3 .6z"/><path d="M478 179.8c-.8.3-3.2 2-5.3 3.8-2 1.9-4.6 3.5-5.7 3.5-1.1.1-2.6.2-3.2.3-.7.1-3.2-.3-5.4-1-4-1.1-4.2-1-5.8 1.7-1.6 2.7-1.6 2.9.4 4.9 4.4 4.4 17.8 2.3 23.2-3.7 2.2-2.4 5-9.1 4-9.6-.4-.2-1.4-.2-2.2.1zM134.6 219.5c-8.6 3-13.6 9.5-16.1 20.9-4.5 20.8 0 54.5 11.1 82.7 8.8 22.4 23.4 46.9 37.9 63.6 5.4 6.2 21.4 21.5 26.8 25.6l6.8 5.2-.7 6c-2.2 19.9 3.3 39.3 14.2 50.2 6.2 6.1 11.5 8.3 22.7 9.2.4.1.7 1.1.7 2.4 0 3.3 5.4 9.4 9.6 10.7 8.7 2.9 19.9-1.5 28.8-11 14-15.2 25.3-39 36.6-77.5l3.9-13 .1 6c.1 3.3.4 7.3.6 9 .6 4.4 1.7 11.9 1.9 12.5.1.3.5 2.1.9 4 .5 1.9 1.9 5.8 3.2 8.7 7.7 16.9 22.9 20.2 35.7 7.8 2.1-2 4-3.5 4.1-3.3.2.2.8 1.7 1.4 3.5 1 2.9.7 3.6-3 8.5-6.3 8.3-20.5 32.9-27.5 47.5-15.5 32.1-15.5 58.2 0 75 16.6 18 43 16 53.5-4.2 3.6-6.9 3.8-18.8.5-25.6-4.5-9.1-11.6-14-21.3-14.7-8.8-.6-15.8 3.5-20 11.8-6.7 13.1 4.3 27.4 17.3 22.4 2.9-1.1 6-7.1 5.2-10.2-.8-3.2-3.3-6.2-5.1-6.2-2.1 0-2.4 1.5-.8 4.5 3 5.8-1.5 9.8-8 7.1-12.1-5-3.8-24.6 10.4-24.6 11.9 0 21 11.2 19.7 24.5-1.2 12.3-11.7 22.7-23.1 22.7-17.9-.1-31.3-12.8-34.4-32.5-2.2-14 1.5-30.2 11.6-50.2 6.3-12.6 16.6-30.7 22.5-39.3l5-7.3 3.5 6.8c14.8 28.8 34.2 41 57.1 35.7 27.8-6.4 47.1-34.8 42.8-63.2-1.9-13.2-10.4-22.6-23.5-26.1-3.6-1-8.1-1.2-18.7-1-4.4.1-17.3 4.2-23.5 7.5-8.5 4.4-20.7 14.2-29.2 23.3l-6.7 7.1-.6-4.3c-.6-3.8-.2-5.2 2.4-9.9 2.6-4.6 3-6 2.1-8.2-.7-1.9-1.6-2.6-3.7-2.6-5.1 0-7.3 3.3-7.3 10.7 0 4.3-.5 5.3-3.7 8.7-7.9 8.1-13.7 9.6-19.3 4.9-4.7-3.9-7.8-12.1-9.6-25.3-.7-5.5-.8-32-.1-37.5.3-2.2.9-7.6 1.2-12 .4-4.4.9-8.2 1-8.5.2-.3.7-5.2 1-10.8l.7-10.2-2.3-.1c-5.8-.3-9.7.8-10.3 2.9-.2.9-.7 3.9-1.1 6.6-.3 2.7-1.2 7.6-2 11-.8 3.4-1.6 7.2-1.8 8.6-1.2 6.4-10 39.1-13.8 50.6-13.8 42.7-27.2 66.7-40.5 72.6-8 3.5-15 2.2-18-3.3-1.2-2.3-.8-5.9.7-5.9 1.7 0 8.1-6.4 10-10.1 5-9.8-.8-18.8-8.3-12.9-2.9 2.2-6.4 9.8-7.4 15.9-.4 2.7-1.2 4.2-2.3 4.3-13.7 1.2-23.6-8.5-29.2-28.8-2.6-9.6-2.8-27.2-.3-26.7.5.1 3.5 1.7 6.7 3.6 7.3 4.4 21.4 10.1 28.8 11.6 26 5.4 45.5-4.2 50.3-24.8 4.3-18.6-4.8-36.9-21.8-43.3-10.4-4-26.2-2.7-38.4 3.3-11.8 5.7-23.7 20.9-28.2 36.1-.6 2.1-1.4 3.8-1.7 3.8-1.4 0-14.5-11.4-22-19.1-15.8-16.2-28.4-34.1-38.7-55-23.2-46.9-27-104.1-7.4-112.9 7.6-3.4 17.7.3 28.3 10.5 15.8 15.1 25.8 36.6 25.9 55.5.1 7.2-.3 9.3-2.4 13.4-4.3 8.5-11.1 11.4-19.4 8.2-10.4-4-17.5-16-16.7-28.4 0-1.3 1.4-3.7 3-5.3 5.4-5.3 14.5-3.3 19.4 4.3 3.5 5.5 3.7 11.1.3 13.3-1.8 1.2-2.9 1.3-5.1.5-2.3-.9-2.6-1.4-2-3.7 1.1-4.6 1.1-4.7-1.2-5.1-1.7-.2-2.4.4-3.3 3.2-1.6 5 .3 8.7 5.3 10.3 4.5 1.5 9.4 0 12.1-3.8 4-5.8 0-18-7.7-23.4-3.6-2.6-5.1-3-10.4-3-10.3 0-15.6 5.7-15.4 16.7.1 10.9 7.5 22.8 17.2 27.9 5.5 2.9 14.8 3.2 19.7.6 14.1-7.6 15.6-33.4 3.3-58.3-13.1-26.3-35.9-43.9-50.5-38.9zm133.1 153.4c6.8 1.9 13.6 8 17.5 15.8 2.9 5.9 3.3 7.7 3.2 14.3-.3 24.3-20.6 35.8-49.3 28-7.5-2.1-25.4-10.3-29.9-13.8l-2.4-1.9 2.5-7.2c6.9-19.6 20.9-33.2 37.2-35.8 1.7-.3 3.1-.6 3.3-.8.7-.6 14.2.4 17.9 1.4zM445 409.6c8.2 1.4 14.9 6.9 18.8 15.3 6.4 13.8.9 36.7-11.8 50-10 10.5-20.7 15.3-34 15.5-7.8.1-9.2-.2-15.3-3.2-11.1-5.5-20.1-15.7-27.7-31.3l-3.9-8.2 4.1-4.9c5-6 18.1-18 24-22 15.1-10.2 30.3-14 45.8-11.2zm-194 52.9c0 3.3-2.1 7.3-5.5 10.5l-2.7 2.5.8-3c2.2-9.5 7.4-16.5 7.4-10z"/><path d="M541 257.5c-2.4.8-6 2.2-8 3.2-6 3.1-17.8 12.2-22.2 17.3l-4.3 4.9-6.3-.5c-11.2-1-20.9 2.4-29.4 10.3-11.6 10.9-17.2 28.4-15.6 48.6.7 9.1.7 9.2-2 11.7-1.5 1.4-5.6 5.9-9.2 10-9.4 10.7-19.5 20.3-24 22.9l-3.9 2.2-1.3-2.3c-2.2-3.9-1.8-26.9.6-40.3 1.3-7.1 1.8-9.3 3.7-15.1 2.1-6.4 4.9-10.4 7.5-10.4 3.1 0 5 8 5.4 23.2 0 1.2 2.8.9 3.6-.3 1.5-2.5.5-15.6-1.6-21.1-3.3-8.8-8.7-10.6-15.6-5.3-8.5 6.5-13.9 22.9-15 46.3-.6 10.9-.9 12.3-4.4 19.7-6.4 13.5-11.7 19.3-13.4 14.9-.6-1.6 0-24.8.8-30.9.9-7.2 1.8-13.6 3-21.5 1.3-8.1 1.3-8.6-.6-10.3-2.4-2-4.8-2.2-7-.5-2.1 1.7-4.2 17.7-5.3 39.1-.5 9.3-.8 10.4-5.2 19.5-4.4 8.8-10.9 17.2-13.3 17.2-4.1 0-4.3-17.7-.4-47 .8-6.3 1.7-12.5 1.9-13.7.2-1.2-.3-2.7-1-3.3-1.5-1.2-7.1-1.7-8.2-.7-2 2-3.8 22.5-3.7 41.7 0 14.5.3 17.1 2.1 21 2.3 5.2 4 6.8 7.4 7.4 5.2.8 11.8-4.8 17.7-15.2l3.7-6.2 1.2 3.7c1.6 4.7 4.6 7.3 8.3 7.3 3.5 0 10.2-7.2 14.3-15.4 1.6-3.1 3-5.6 3.3-5.6.2 0 1 1.5 1.8 3.3 2 4.9 6.1 7.8 10 7.1 6.4-1.1 14.9-8.2 26.3-21.8 9.1-10.9 14.1-16.6 14.7-16.6.2 0 1.4 2.1 2.6 4.6 6.6 13.5 21 17 27.7 6.7 3.6-5.5.6-15.5-6.1-20.1-4-2.7-11.7-3.5-16.8-1.7-2.1.7-3.8 1-3.9.6 0-.3-.2-1.5-.5-2.6-.2-1.1-.4-5.8-.5-10.5-.1-18.8 9-35.9 22.6-42.5 5.8-2.9 19.5-4.7 19.5-2.7 0 .7-1.5 3.5-3.3 6.4-7.3 11.6-11.3 24.5-10.4 33.7 1.2 13.6 10.8 23 24.3 23.9 17.8 1.2 30.5-16.2 26.9-36.8-1.7-9.9-11.3-21.9-22.1-27.7l-5.8-3.1 4.9-4.9c7.3-7 12.5-10.9 19.6-14.5 5.6-2.8 7.4-3.3 14.2-3.3 7.6 0 8 .1 10.8 3.3 1.6 1.8 3 4.3 3 5.7.1 1.4.2 3.1.2 3.7.1 1.7-1.1 13.5-1.8 17.3-1.3 7.3-2.9 14.9-4 19-9.7 38-37.4 94.1-75.3 153-12.2 19-43.6 62.2-55.1 75.8-1.1 1.2-5.6 6.6-10.1 12-17.9 21.5-37.5 40-49.5 46.8-6.2 3.5-12.8 3.2-19.9-1.1-6.6-4-18.5-15.2-27.3-25.6-13.6-16.1-31.9-44.4-41.4-64.1-4.2-8.5-5.2-10-6.9-9.6-1.1.3-2 1-2 1.5 0 1.8 8.2 18 15.3 30.2 26.7 46.2 59.2 79.1 75.3 76.2 10.7-2 30.3-17.5 49.9-39.6 3.2-3.6 7.2-8.1 8.9-10 1.8-1.9 7-8.2 11.6-14 4.6-5.8 8.7-10.7 9-11 .3-.3 5.8-7.6 12.3-16.2 53-70.9 95.8-149.8 109.7-202.2 1.6-6.1 3.2-12.9 3.5-15.1.3-2.2.8-4.7 1.1-5.5.3-.8.8-6.3 1.1-12.1.5-9.6.3-11.2-1.5-15.1-1.2-2.4-3.5-5.1-5.2-6.1-4.1-2.5-15.2-3.1-21-1.2zm-28.3 33c5.3 2.2 12.8 8.2 16.3 13.1 12.9 18 4.3 43.2-14.7 43.5-15.8.3-24.9-14.7-19.7-32.2 2.4-8.2 12-25.9 14-25.9.2 0 2.1.7 4.1 1.5zm-35.3 60c5.8 2.8 8.8 10.7 5.6 14.8-2.5 3.2-4.9 3.7-9.3 2.2-4.3-1.5-6-3.1-8.6-8.1-3.2-6.3-3.1-7.7.9-9.1 4.8-1.6 7.6-1.6 11.4.2z"/></svg>