<svg width="40" height="40" viewBox="0 0 40 40" fill="none"
    xmlns="http://www.w3.org/2000/svg">
    <path d="M17.196 28.112a3.59 3.59 0 00-3.586 3.586 3.59 3.59 0 003.586 3.586 3.59 3.59 0 003.585-3.586 3.59 3.59 0 00-3.585-3.586zm0 5.61a2.026 2.026 0 01-2.024-2.024c0-1.116.908-2.023 2.024-2.023 1.115 0 2.023.907 2.023 2.023a2.025 2.025 0 01-2.023 2.023zM31.34 25.403a2.73 2.73 0 00-2.726 2.726 2.73 2.73 0 002.726 2.726 2.73 2.73 0 002.727-2.726 2.73 2.73 0 00-2.727-2.726zm0 3.89a1.165 1.165 0 111.164-1.164c0 .642-.522 1.164-1.163 1.164zM8.556 21.351a2.562 2.562 0 00-2.56 2.56 2.562 2.562 0 002.56 2.558 2.562 2.562 0 002.559-2.559 2.562 2.562 0 00-2.56-2.559zm0 3.556a.997.997 0 010-1.993.997.997 0 010 1.993zM29.96 10.284a2.594 2.594 0 002.592-2.592 2.594 2.594 0 00-2.591-2.59 2.594 2.594 0 00-2.591 2.59 2.594 2.594 0 002.59 2.592zm0-3.62a1.03 1.03 0 010 2.057 1.03 1.03 0 010-2.057z" fill="#A44637"/>
    <path d="M39.956 17.102l-.082-.582a27.98 27.98 0 00-6.516-14.39 4.696 4.696 0 00-5.906-1.003L16.84 7.271a.782.782 0 00-.38.794 2.006 2.006 0 01-.57 1.737 2.02 2.02 0 01-2.69.152.781.781 0 00-.88-.066L2.262 15.712a4.526 4.526 0 00-1.597 1.564.777.777 0 00-.236.44A4.52 4.52 0 000 19.633v9.26c0 .432.35.782.781.782 1.116 0 2.023.907 2.023 2.023A2.025 2.025 0 01.781 33.72a.781.781 0 00-.781.781v.469a4.536 4.536 0 004.531 4.531h22.626c.431 0 .78-.35.78-.781 0-1.116.909-2.023 2.024-2.023s2.023.907 2.023 2.023c0 .432.35.781.781.781h2.704A4.536 4.536 0 0040 34.971V17.734c0-.211-.015-.424-.044-.632zM35.469 37.94H33.46a3.593 3.593 0 00-3.5-2.805 3.592 3.592 0 00-3.5 2.805H4.53a2.973 2.973 0 01-2.96-2.744 3.592 3.592 0 002.796-3.498 3.592 3.592 0 00-2.804-3.5v-8.565c0-.348.062-.688.178-1.006h5.316a.781.781 0 000-1.563H3.043l9.637-5.579a3.58 3.58 0 004.314-.579 3.603 3.603 0 001.05-2.526l10.191-5.9a3.133 3.133 0 013.94.67 26.417 26.417 0 016.151 13.587l.047.327H21.124a2.347 2.347 0 012.21-1.562.781.781 0 100-1.563 3.913 3.913 0 00-3.828 3.125h-5.678a.781.781 0 000 1.563h5.678a3.913 3.913 0 003.827 3.125 3.913 3.913 0 003.828-3.125h11.276V34.97a2.972 2.972 0 01-2.968 2.969zm-9.926-19.313a2.347 2.347 0 01-2.21 1.562 2.347 2.347 0 01-2.209-1.562h4.419z" fill="#A44637"/>
    <path d="M10.547 17.064a.787.787 0 00-.552.23.787.787 0 00-.23.552.787.787 0 00.781.781.787.787 0 00.553-.23.787.787 0 00.23-.551.787.787 0 00-.23-.553.787.787 0 00-.552-.229z" fill="#A44637"/>
</svg>
