<svg width="40" height="40" viewBox="0 0 40 40" fill="none"
    xmlns="http://www.w3.org/2000/svg">
    <path d="M37.331 29.733h-1.885l.633-.633a2.666 2.666 0 00-3.77-3.77L30.7 26.936a5.275 5.275 0 00-3.116-.478l-7.041 1.05.63-7.574a6.162 6.162 0 003.423 1.039c3.346 0 6.069-2.671 6.069-5.954 0-2.815-1.978-5.195-4.706-5.805.05-.329.075-.661.075-.994 0-3.7-3.07-6.71-6.84-6.71-.952 0-1.893.194-2.766.571A6.878 6.878 0 0011.476 0c-3.772 0-6.84 3.01-6.84 6.71 0 .833.158 1.658.465 2.431C2.215 9.6.005 12.061.005 15.02c0 3.283 2.722 5.954 6.069 5.954.731 0 1.457-.13 2.143-.384l.404 4.852a7.338 7.338 0 00-1.284-.113l-.126.001c-.551-1.047-1.36-1.726-2.379-1.981a.667.667 0 00-.323 1.293c.502.132.942.436 1.243.86a7.332 7.332 0 107.964 10.769l13.87 2.068a5.272 5.272 0 003.451-.657l1.528 1.53a2.666 2.666 0 103.77-3.77l-.375-.377h1.371a2.666 2.666 0 000-5.332zm-4.08-3.461a1.333 1.333 0 111.885 1.885l-1.676 1.677a5.95 5.95 0 00-1.551-2.099l-.067-.054 1.409-1.409zM8.506 18.985a4.815 4.815 0 01-2.432.656c-2.612 0-4.736-2.073-4.736-4.621 0-2.549 2.124-4.622 4.733-4.622h.01l.043.001a.666.666 0 00.58-1.006 5.275 5.275 0 01-.736-2.683c0-2.965 2.471-5.377 5.508-5.377a5.54 5.54 0 014.278 1.992.666.666 0 00.824.163 5.62 5.62 0 012.617-.644c3.036 0 5.507 2.412 5.507 5.377 0 .461-.06.921-.18 1.367a.665.665 0 00.575.836c2.415.247 4.236 2.223 4.236 4.596 0 2.548-2.125 4.62-4.736 4.62a4.8 4.8 0 01-3.513-1.52.667.667 0 00-1.139.309c-.544 2.453-2.807 4.234-5.382 4.234-2.253 0-4.257-1.319-5.105-3.359a.667.667 0 00-.952-.32zm-2.149 7.758a7.42 7.42 0 01.313 1.92.666.666 0 101.333-.002 8.607 8.607 0 00-.28-1.985 5.974 5.974 0 013.626 1.53c-.706.211-1.515.636-1.942 1.49a.666.666 0 00-.05.46l.35 1.402-2.123-.849a.667.667 0 00-.495 0l-2.122.849.35-1.402a.666.666 0 00-.05-.46c-.428-.854-1.237-1.279-1.943-1.49a5.981 5.981 0 013.033-1.463zm.98 11.917a5.995 5.995 0 01-5.003-9.305c.445.055 1.225.225 1.622.748L3.357 32.5a.667.667 0 00.894.78l3.086-1.234 3.085 1.235a.667.667 0 00.894-.78l-.599-2.397c.21-.277.554-.487 1.024-.626.195-.057.395-.098.598-.123a5.995 5.995 0 01-5.002 9.306zm6.083-10.088a7.372 7.372 0 00-3.429-2.746l-.32-3.847a6.81 6.81 0 002.386 1.554l-.02.007.662 1.986v.002l.004.011a.667.667 0 101.264-.421l-.397-1.193a6.948 6.948 0 002.21-.038l-.41 1.23a.664.664 0 00.414.863.667.667 0 00.85-.44l.003-.011v-.003l.663-1.986a.67.67 0 00.027-.119 6.76 6.76 0 002.36-1.693l-.498 5.983-5.77.86zm17.618 7.481a4.022 4.022 0 01-3.256.968l-4.448-.664v-3.03a.666.666 0 10-1.333 0v2.831l-7.718-1.15a7.336 7.336 0 00-.188-5.19l2.573-.383v4.559a.667.667 0 001.333 0v-4.758l9.332-1.391v4.15a.666.666 0 101.333 0v-4.251a4.07 4.07 0 012.372 1.001c1.034.891 1.627 2.223 1.627 3.654s-.593 2.763-1.627 3.654zm4.355 2.216a1.333 1.333 0 01-1.885 0l-1.394-1.394a5.993 5.993 0 001.493-2.277l1.786 1.786a1.335 1.335 0 010 1.885zm1.938-4.537h-2.704l-.663-.663a6.38 6.38 0 00-.065-1.789l.214-.214h3.218a1.333 1.333 0 010 2.666z" fill="#A44637"/>
    <path d="M28 35.327a.667.667 0 100-1.333.667.667 0 000 1.333zM22.798 30.007a.667.667 0 10-.261 1.309.667.667 0 00.26-1.309z" fill="#A44637"/>
</svg>
