<svg width="20" height="20" viewBox="0 0 20 20" fill="none" xmlns="http://www.w3.org/2000/svg">
<path d="M18.5408 2.84679C17.5543 1.72749 16.1859 1.11108 14.6875 1.11108C12.5802 1.11108 11.246 2.36968 10.4979 3.42554C10.3038 3.69952 10.1386 3.97425 10 4.23276C9.86137 3.97425 9.69629 3.69952 9.50215 3.42554C8.75402 2.36968 7.41984 1.11108 5.3125 1.11108C3.81414 1.11108 2.44566 1.72753 1.45918 2.84683C0.518242 3.91456 0 5.34456 0 6.87339C0 8.53757 0.649727 10.0854 2.04473 11.7445C3.29148 13.2273 5.08512 14.7557 7.16211 16.5256C7.93605 17.1851 8.73641 17.8672 9.58848 18.6127L9.61406 18.6351C9.72453 18.7318 9.86227 18.7801 10 18.7801C10.1377 18.7801 10.2755 18.7318 10.3859 18.6351L10.4115 18.6127C11.2636 17.8672 12.0639 17.1852 12.838 16.5255C14.9149 14.7558 16.7085 13.2273 17.9553 11.7445C19.3503 10.0854 20 8.53757 20 6.87339C20 5.34456 19.4818 3.91456 18.5408 2.84679ZM12.0779 15.6337C11.4107 16.2022 10.724 16.7873 10 17.4167C9.27602 16.7874 8.58934 16.2022 7.92203 15.6336C3.85723 12.1698 1.17188 9.88148 1.17188 6.87339C1.17188 5.63003 1.58613 4.47519 2.33836 3.62163C3.09922 2.75839 4.15543 2.28296 5.3125 2.28296C6.9191 2.28296 7.95766 3.27272 8.54594 4.10304C9.07363 4.84772 9.34898 5.59843 9.44289 5.88659C9.52145 6.1278 9.74633 6.29105 10 6.29105C10.2537 6.29105 10.4786 6.1278 10.5571 5.88659C10.651 5.59843 10.9264 4.84773 11.4541 4.103C12.0423 3.27272 13.0809 2.28296 14.6875 2.28296C15.8446 2.28296 16.9008 2.75839 17.6616 3.62163C18.4139 4.47519 18.8281 5.63003 18.8281 6.87339C18.8281 9.88148 16.1428 12.1698 12.0779 15.6337Z" fill="#A44637"/>
</svg>
