<svg width="20" height="20" viewBox="0 0 20 20" fill="none"
    xmlns="http://www.w3.org/2000/svg">
    <path d="M9.5552 4.46898L10 5.3353L10.4448 4.46897C11.3665 2.67375 12.8045 1.5 14.6875 1.5C17.4282 1.5 19.5 3.8596 19.5 6.8606C19.5 8.80867 18.6024 10.4249 16.9435 12.2159C15.7909 13.4604 14.3156 14.7448 12.5788 16.2569C11.7888 16.9446 10.9447 17.6795 10.0522 18.4791C10.0211 18.507 9.97879 18.5069 9.94776 18.4791C9.05597 17.6801 8.21225 16.9456 7.42246 16.258C5.68669 14.7469 4.21136 13.4626 3.0584 12.2179C1.39881 10.4262 0.5 8.80883 0.5 6.8606C0.5 3.85914 2.57215 1.5 5.3125 1.5C7.19543 1.5 8.63341 2.67364 9.5552 4.46898Z" stroke="#ADADAD"/>
</svg>
