<svg width="23" height="23" viewBox="0 0 23 23" fill="none"
    xmlns="http://www.w3.org/2000/svg">
    <path d="M22.904 4.025c-.096-.096-.192-.192-.383-.192H4.312l-.479-2.491c0-.192-.287-.384-.479-.384H.48C.192.958 0 1.15 0 1.438c0 .287.192.479.48.479h2.49l2.3 11.691c.288 1.534 1.726 2.684 3.26 2.684h11.02c.287 0 .48-.192.48-.48 0-.287-.193-.479-.48-.479H8.625c-.767 0-1.533-.383-1.917-1.054L20.7 12.363a.412.412 0 00.383-.384L23 4.313s0-.192-.096-.288zM20.221 11.5L6.229 13.32 4.504 4.697H21.85L20.22 11.5zM8.146 17.25a2.373 2.373 0 00-2.396 2.396 2.373 2.373 0 002.396 2.396 2.372 2.372 0 002.396-2.396 2.372 2.372 0 00-2.396-2.396zm0 3.833c-.767 0-1.438-.67-1.438-1.437s.671-1.438 1.438-1.438c.766 0 1.437.671 1.437 1.438 0 .767-.67 1.437-1.437 1.437zM17.73 17.25a2.373 2.373 0 00-2.397 2.396 2.373 2.373 0 002.396 2.396 2.372 2.372 0 002.396-2.396 2.373 2.373 0 00-2.396-2.396zm0 3.833c-.768 0-1.438-.67-1.438-1.437s.67-1.438 1.437-1.438 1.438.671 1.438 1.438c0 .767-.671 1.437-1.438 1.437z" fill="#181818"/>
</svg>
