<svg width="40" height="40" viewBox="0 0 40 40" fill="none"
    xmlns="http://www.w3.org/2000/svg">
    <path d="M39.756 17.155a.781.781 0 00-.264-.456c-1.293-1.095-1.512-2.302-1.687-3.271l-.023-.127a.781.781 0 00-.66-.632 2.605 2.605 0 00-.362-.025c-.743 0-1.79.313-2.455 1.013a.783.783 0 00-.208.435c-.055.42-.084.804-.11 1.143-.095 1.277-.18 1.413-.569 1.536a.781.781 0 00-.51.513 18.049 18.049 0 01-1.442 3.374 19.47 19.47 0 00-.91-1.518c-.732-1.137-1.31-2.034-1.112-3.146.64-3.605.315-6.32-.965-8.072-.713-.975-1.729-1.64-2.963-1.95.246-1.917 1.578-2.786 2.315-2.983a.781.781 0 10-.404-1.51c-1.523.408-3.148 1.906-3.46 4.297-1.246-.003-2.378.378-3.31 1.122-1.703 1.36-2.732 3.89-3.058 7.515-.098 1.09-.804 1.727-1.781 2.608-.798.72-1.686 1.522-2.397 2.736a9.678 9.678 0 00-2.83-.68c.281-1.84 1.575-2.68 2.298-2.874a.781.781 0 10-.404-1.51 4.167 4.167 0 00-1.174.531 4.621 4.621 0 00-1.259-2.35 4.589 4.589 0 00-3.266-1.354 4.64 4.64 0 00-1.196.157.781.781 0 00-.553.553 4.636 4.636 0 001.196 4.462 4.586 4.586 0 002.998 1.344 5.857 5.857 0 00-.215 1.032C3.981 19.446 0 23.664 0 28.794c0 5.378 4.375 9.753 9.753 9.753a9.66 9.66 0 005.533-1.72c.257.112.514.22.773.323 2.351.927 4.727 1.397 7.063 1.397 3.756 0 7.241-1.227 10.08-3.549 2.968-2.426 5.155-6.017 6.325-10.384.382-1.424.719-4.78.23-7.46zm-22.892 1.027c1.051-.948 2.138-1.928 2.291-3.63.287-3.184 1.12-5.349 2.477-6.433.806-.644 1.801-.892 2.96-.737 1.144.153 2.028.645 2.625 1.462 1.02 1.394 1.25 3.708.688 6.877-.304 1.715.53 3.011 1.336 4.264.453.703.918 1.427 1.234 2.27-2.633 3.802-6.628 6.575-11.025 7.59a9.757 9.757 0 00-4.631-9.383c.585-.962 1.325-1.63 2.045-2.28zm-9.526-2.595A3.07 3.07 0 016.46 13.1a3.036 3.036 0 012.486.878 3.07 3.07 0 01.879 2.487 3.036 3.036 0 01-2.487-.878zm2.415 21.398c-4.516 0-8.19-3.674-8.19-8.191 0-4.517 3.674-8.19 8.19-8.19 4.517 0 8.191 3.674 8.191 8.19 0 .45-.036.9-.11 1.342-.502.065-1.008.106-1.516.123a6.713 6.713 0 00-.34-4.018.781.781 0 10-1.446.593 5.14 5.14 0 01.18 3.401 17.174 17.174 0 01-3.34-.552.782.782 0 00-.655.117c-.694.493-1.394 1.113-1.81 2.302a.781.781 0 00.236.856 26.405 26.405 0 004.48 3.057 8.118 8.118 0 01-3.87.97zM38.018 24.21c-2.144 8-7.712 12.775-14.896 12.775-4.194 0-8.621-1.72-12.523-4.853.207-.371.462-.627.737-.845a18.55 18.55 0 004.44.545c4.193 0 8.236-1.429 11.692-4.132a20.812 20.812 0 004.54-4.927 19.937 19.937 0 002.278-4.672c1.095-.55 1.179-1.667 1.26-2.75.018-.247.037-.5.066-.768.208-.15.483-.27.76-.331.208.993.613 2.268 1.892 3.446.362 2.302.1 5.223-.246 6.512z" fill="#A44637"/>
    <path d="M25.195 8.99a.782.782 0 00-.604 1.44c.569.24.882 1.954.383 4.77a.781.781 0 101.538.274c.447-2.519.581-5.688-1.317-6.484zM30.36 31.35a.782.782 0 00-1.099-.152.78.78 0 00.464 1.41.78.78 0 00.461-.15l.018-.014a.78.78 0 00.155-1.093zM28.567 32.614a.781.781 0 00-1.052-.34c-2.674 1.368-4.93 1.314-4.963 1.313a.782.782 0 00-.06 1.561c.013 0 .055.002.125.002.558 0 2.885-.09 5.61-1.484a.781.781 0 00.34-1.052zM14.534 24.061l-.025-.026a.781.781 0 00-1.102 1.108l.017.017a.778.778 0 001.104.006.781.781 0 00.006-1.105z" fill="#A44637"/>
</svg>
