<svg width="25" height="25" xmlns="http://www.w3.org/2000/svg"><path d="M22.581 6.074L16.488.214A.778.778 0 0015.949 0H5.285C4.025 0 3 .986 3 2.197v20.606C3 24.014 4.025 25 5.285 25H20.52c1.26 0 2.285-.986 2.285-2.197V6.592c0-.2-.087-.387-.224-.518zM16.711 2.5l3.493 3.358h-2.731c-.42 0-.762-.328-.762-.732V2.501zm3.809 21.034H5.285c-.42 0-.762-.328-.762-.732V2.197c0-.404.342-.732.762-.732h9.902v3.662c0 1.212 1.026 2.197 2.286 2.197h3.808v15.479c0 .404-.341.732-.761.732z"/><path d="M17.473 10.352H8.332c-.42 0-.762.328-.762.732 0 .405.341.732.762.732h9.14c.421 0 .762-.328.762-.732 0-.404-.34-.732-.761-.732zM17.473 13.281H8.332c-.42 0-.762.328-.762.733 0 .404.341.732.762.732h9.14c.421 0 .762-.328.762-.732 0-.405-.34-.733-.761-.733zM17.473 16.21H8.332c-.42 0-.762.329-.762.733 0 .405.341.733.762.733h9.14c.421 0 .762-.328.762-.733 0-.404-.34-.732-.761-.732zM14.426 19.14H8.332c-.42 0-.762.329-.762.733 0 .404.341.732.762.732h6.094c.42 0 .761-.328.761-.732 0-.404-.34-.732-.761-.732z"/></svg>