<svg width="40" height="40" viewBox="0 0 40 40" fill="none"
    xmlns="http://www.w3.org/2000/svg">
    <path d="M31.086 30.044a16.6 16.6 0 01-3.36 1.175.592.592 0 00-.36.283.877.877 0 00-.116.512.818.818 0 00.19.476c.108.124.25.193.396.194a.483.483 0 00.111-.014c1.216-.282 2.409-.7 3.565-1.248a.594.594 0 00.195-.155.763.763 0 00.132-.235.894.894 0 00-.112-.809.61.61 0 00-.189-.166.488.488 0 00-.452-.014z" fill="#A44637"/>
    <path d="M35.006 4.5c-6.054-4.726-16.704-.414-23.99 4.72C2.286 14.745.328 20.066.053 23.189a.9.9 0 00-.053.298v7.174c0 4.048 2.397 6.874 5.83 6.874 2.542 0 3.618-.662 4.865-1.429a13.098 13.098 0 013.795-1.702c1.87-.517 4.082-.09 6.424.36 2.465.476 5.013.967 7.415.395 7.06-1.688 11.414-6.44 11.66-12.723a.902.902 0 00.008-.114v-6.934c0-.014-.003-.027-.003-.04.127-4.175-1.736-8.31-4.988-10.849zm-23.443 6.03l.024-.015c4.939-3.482 11.452-6.602 16.834-6.602 2.25 0 4.304.546 5.96 1.84 3.234 2.523 4.93 6.781 4.322 10.848-.749 5.008-4.61 8.698-10.595 10.128-2.203.526-4.649.053-7.015-.402-2.454-.473-4.771-.92-6.86-.343a13.98 13.98 0 00-4.06 1.82c-1.206.74-2.076 1.276-4.343 1.276-2.266 0-4.085-1.588-4.538-3.953-.667-3.496 1.681-9.165 10.271-14.597zm27.25 11.761c-.188 5.593-4.19 9.86-10.707 11.417-2.2.525-4.647.053-7.013-.403-2.455-.473-4.773-.92-6.86-.343-1.413.373-2.78.985-4.06 1.819-1.206.742-2.077 1.277-4.343 1.277-2.78 0-4.649-2.169-4.649-5.397V28.04c.58.818 1.298 1.468 2.101 1.903a4.97 4.97 0 002.548.614c2.541 0 3.617-.662 4.863-1.428a13.098 13.098 0 013.796-1.704c1.87-.517 4.082-.09 6.424.36 2.465.476 5.014.967 7.415.394 5.047-1.205 8.71-3.967 10.487-7.788v1.852a1.08 1.08 0 00-.003.049h.002z" fill="#A44637"/>
    <path d="M5.83 28.024c2.07 0 2.826-.464 3.97-1.169a14.82 14.82 0 014.254-1.902 8.762 8.762 0 012.363-.295 26.14 26.14 0 014.806.626c1.57.354 3.157.561 4.75.62a8.435 8.435 0 001.975-.21c5.625-1.343 9.243-4.727 9.926-9.285.543-3.637-1.003-7.47-3.94-9.76-1.407-1.097-3.25-1.656-5.477-1.656-4.582 0-10.733 2.408-16.442 6.434l-.068.046C3.793 16.626 1.521 21.778 2.114 24.88c.359 1.88 1.853 3.144 3.716 3.144zM12.49 12.78l.092-.062c5.553-3.915 11.487-6.252 15.874-6.252 2.002 0 3.635.482 4.852 1.432 2.522 1.968 3.858 5.2 3.404 8.236-.588 3.929-3.862 6.883-8.985 8.105a7.493 7.493 0 01-1.753.187 25.303 25.303 0 01-4.573-.604 26.843 26.843 0 00-4.984-.644 9.731 9.731 0 00-2.62.33 15.729 15.729 0 00-4.519 2.021c-1.065.655-1.652 1.016-3.447 1.016-1.306 0-2.338-.807-2.565-2.01-.377-1.96 1.141-6.642 9.223-11.755z" fill="#A44637"/>
    <path d="M28.908 13.455c1.38 0 2.462-.984 2.462-2.242 0-1.257-1.08-2.242-2.462-2.242-1.382 0-2.462.985-2.462 2.242 0 1.258 1.081 2.242 2.462 2.242zm0-3.007c.77 0 1.28.46 1.28.765s-.51.765-1.28.765-1.28-.46-1.28-.764c0-.305.512-.766 1.28-.766z" fill="#A44637"/>
</svg>
