<svg width="40" height="40" viewBox="0 0 40 40" fill="none"
    xmlns="http://www.w3.org/2000/svg">
    <path d="M35.156 33.281a.781.781 0 11-1.562 0 .781.781 0 011.562 0zM25.469 33.281a.781.781 0 11-1.563 0 .781.781 0 011.563 0zM16.094 33.281a.781.781 0 11-1.563 0 .781.781 0 011.563 0zM6.406 33.281a.781.781 0 11-1.562 0 .781.781 0 011.562 0z" fill="#A44637"/>
    <path d="M30.106 6.517c-1.4-.4-3.075-.294-4.436.346l-1.336.63c-.691-1.28-2.26-1.507-3.553-1.547v-.008c0-.862.701-1.563 1.563-1.563a.781.781 0 100-1.563 3.129 3.129 0 00-3.125 3.126v.012c-2.28.08-3.907.764-3.907 3.112 0 .743.178 1.599.497 2.433L.457 18.508a.786.786 0 00-.457.71v17.188c0 .432.35.782.781.782H39.22c.431 0 .781-.35.781-.782V19.22c0-5.815-4.143-11.059-9.894-12.702zm-3.771 1.76c.962-.453 2.25-.57 3.342-.258 4.895 1.399 8.387 5.617 8.732 10.418h-9.034a.781.781 0 100 1.563h9.063v4.697a3.03 3.03 0 01-1.154-.64c-1.708-1.558-4.188-1.558-5.896 0-1.116 1.017-2.675 1.017-3.791 0-1.717-1.566-4.024-1.566-5.74 0-1.122 1.021-2.514 1.021-3.635 0-1.717-1.566-4.024-1.566-5.74 0-1.117 1.017-2.675 1.017-3.792 0-1.708-1.558-4.188-1.558-5.896 0a3.062 3.062 0 01-1.232.66V20h21.563a.781.781 0 100-1.563H4.372l12.127-5.54c.937 1.526 2.21 2.415 3.501 2.415 2.67 0 4.688-3.708 4.688-6.25v-.009l1.647-.776zM1.562 26.32a4.616 4.616 0 002.285-1.108c1.116-1.018 2.675-1.018 3.79 0 1.709 1.558 4.189 1.558 5.897 0 1.121-1.022 2.514-1.022 3.635 0 1.716 1.565 4.023 1.565 5.74 0 1.121-1.022 2.514-1.022 3.635 0 1.708 1.558 4.188 1.558 5.896 0 1.117-1.018 2.675-1.018 3.791 0 .603.55 1.391.934 2.206 1.093v3.08a3.03 3.03 0 01-1.153-.64c-1.708-1.558-4.188-1.558-5.896 0-1.116 1.017-2.675 1.017-3.791 0-1.717-1.566-4.024-1.566-5.74 0-1.122 1.022-2.514 1.022-3.635 0-1.717-1.566-4.024-1.566-5.74 0-1.117 1.017-2.675 1.017-3.792 0-1.708-1.558-4.188-1.558-5.896 0a3.062 3.062 0 01-1.232.66v-3.085zM20 7.5c2.239 0 2.963.278 3.1 1.189.259 1.73-1.38 5.061-3.1 5.061-1.626 0-3.125-2.895-3.125-4.688 0-1.153.472-1.562 3.125-1.562zM1.562 35.625v-4.619a4.616 4.616 0 002.285-1.108c1.116-1.017 2.675-1.017 3.79 0 1.709 1.558 4.189 1.558 5.897 0 1.121-1.022 2.514-1.022 3.635 0 1.716 1.566 4.023 1.566 5.74 0 1.121-1.022 2.514-1.022 3.635 0 1.708 1.558 4.188 1.558 5.896 0 1.117-1.017 2.675-1.017 3.791 0 .603.55 1.391.934 2.206 1.093v4.634H1.563z" fill="#A44637"/>
    <path d="M27.031 19.219a.781.781 0 11-1.562 0 .781.781 0 011.562 0z" fill="#A44637"/>
</svg>
