<svg width="25" height="25" viewBox="0 0 25 25"
    xmlns="http://www.w3.org/2000/svg">
    <g clip-path="url(#clip0)">
        <path d="M21.067 4.36V.733A.733.733 0 0019.91.135l-3.322 2.36A12.985 12.985 0 0012.5 1.84c-1.424 0-2.817.226-4.145.673L5.097.14a.733.733 0 00-1.164.592v5.55c0 2.057.912 4.029 2.5 5.412l.724.63H.732a.732.732 0 00-.732.732c0 3.197 1.305 6.2 3.674 8.458C6.034 23.762 9.168 25 12.5 25c3.332 0 6.467-1.238 8.826-3.486C23.696 19.257 25 16.253 25 13.056c0-3.293-1.43-6.442-3.933-8.695zM5.398 6.284V2.172l2.406 1.753c.198.144.455.18.685.094a11.5 11.5 0 014.011-.713c1.363 0 2.694.233 3.954.692a.732.732 0 00.675-.09l2.473-1.757v4.132c0 1.632-.728 3.201-1.997 4.306l-4.373 3.806v-.253a.732.732 0 10-1.464 0v.253l-4.373-3.806C6.126 9.484 5.398 7.915 5.398 6.283zm-1.266 7.505h.03a3.487 3.487 0 01-2.128 2.59 9.95 9.95 0 01-.543-2.59h2.64zm8.368 9.747c-4.321 0-8.07-2.372-9.88-5.816a4.955 4.955 0 003.024-3.93H8.84l3.18 2.767a.73.73 0 00.961 0l5.586-4.862c1.545-1.346 2.45-3.248 2.497-5.243 1.586 1.855 2.471 4.187 2.471 6.605 0 5.778-4.95 10.479-11.035 10.479z"/>
        <path d="M14.467 9.162c.063.3.307.536.61.582.303.045.61-.11.754-.38a.74.74 0 00-.103-.837.739.739 0 00-.823-.184.74.74 0 00-.438.82zM9.096 9.162c.063.3.307.536.61.582.303.045.61-.11.754-.38a.74.74 0 00-.103-.837.739.739 0 00-.823-.184.74.74 0 00-.438.82z"/>
    </g>
    <defs>
        <clipPath id="clip0">
            <path d="M0 0h25v25H0z"/>
        </clipPath>
    </defs>
</svg>
