<svg width="24" height="24" fill="none" xmlns="http://www.w3.org/2000/svg"><path d="M12 22.375l2.203-.509-1.695-1.695L12 22.375zM11.565 20.923l.365-1.58.003-.01.005-.02.007-.018.006-.016a.294.294 0 01.01-.019l.006-.014a.511.511 0 01.012-.019l.007-.012a.345.345 0 01.014-.018l.009-.01c.004-.007.01-.012.015-.017l.006-.007 4.913-4.913c-1.372-2.821-3.908-4.5-6.818-4.5-2.134 0-4.105.913-5.55 2.572-1.457 1.67-2.277 3.998-2.323 6.576.86.434 4.396 2.102 7.873 2.102.481 0 .962-.026 1.44-.077zM12.822 19.428l5.833-5.833 2.121 2.12-5.833 5.834-2.12-2.121zM10.125 9a3.75 3.75 0 100-7.5 3.75 3.75 0 000 7.5zM21.75 14.124a1.5 1.5 0 00-2.56-1.06l2.12 2.121a1.488 1.488 0 00.44-1.06z" fill="#3F3F3F"/></svg>