<svg width="25" height="25" viewBox="0 0 25 25" fill="none"
    xmlns="http://www.w3.org/2000/svg">
    <g>
        <circle cx="12.5" cy="12.5" r="12.5" fill="#3F3F3F" fill-opacity=".8"/>
    </g>
    <path d="M18.326 8.348h-1.46l-.807-1.218a1.676 1.676 0 00-1.385-.73h-3.348c-.548 0-1.08.274-1.385.73l-.806 1.218H7.674A1.67 1.67 0 006 10.022v5.904A1.67 1.67 0 007.674 17.6h10.652A1.67 1.67 0 0020 15.926v-5.904a1.67 1.67 0 00-1.674-1.674zM13 16.23a3.773 3.773 0 01-3.774-3.774A3.76 3.76 0 0113 8.698a3.773 3.773 0 013.774 3.774A3.77 3.77 0 0113 16.23zm5.113-5.524H17.443a.494.494 0 010-.989h.61a.494.494 0 01.517.472.482.482 0 01-.457.517z" fill="#fff"/>
    <path d="M13 10.372c-1.156 0-2.1.943-2.1 2.1 0 1.156.944 2.085 2.1 2.085 1.156 0 2.1-.944 2.1-2.1a2.091 2.091 0 00-2.1-2.085z" fill="#FCFAF3"/>
</svg>
