<svg width="25" height="25" viewBox="0 0 25 25"
    xmlns="http://www.w3.org/2000/svg">
    <path d="M13.02 21.885v-8.37c3.492-.268 6.25-3.187 6.25-6.745 0-1.472-.786-3.917-1.36-5.702l-.226-.703A.521.521 0 0017.187 0H7.89a.521.521 0 00-.488.336C6.9 1.67 5.73 4.964 5.73 6.771c0 3.557 2.76 6.477 6.25 6.745v8.37c-2.613.107-5.208 1.008-5.208 2.594 0 .287.233.52.52.52h10.417c.288 0 .521-.233.521-.52 0-1.587-2.596-2.488-5.208-2.595zM6.798 7.292a5.737 5.737 0 01-.026-.521c0-1.265.743-3.726 1.48-5.73h8.556l.11.348C17.44 3.01 18.23 5.463 18.23 6.77c0 .176-.01.349-.026.52H6.797z"/>
</svg>
