<svg width="334" height="326" viewBox="0 0 334 326" fill="none" xmlns="http://www.w3.org/2000/svg">
<rect width="334" height="326" fill="#E5E5E5"/>
<g id="Booking">
<rect width="375" height="812" transform="translate(-20 -265)" fill="white"/>
<g id="map">
<rect id="Rectangle 80" x="0.5" y="0.5" width="333" height="325" stroke="black"/>
<g id="6">
<g id="chair">
<path id="Rectangle 36" d="M247.46 216.468C245.797 216.242 244.377 215.146 243.927 213.557C243.782 213.049 243.653 212.527 243.566 212.045C243.392 211.075 243.256 210.227 243.244 209.248C243.231 208.183 243.488 206.583 243.563 206.115L243.567 206.092C243.59 205.952 243.738 205.383 243.933 204.666C244.437 202.812 246.058 201.481 247.976 201.318L255.358 200.691C258.057 200.462 260.375 202.591 260.375 205.3V212.926C260.375 215.729 257.903 217.887 255.126 217.51L247.46 216.468Z" fill="white" stroke="#3F3F3F" stroke-width="0.486888"/>
<path id="Rectangle 32" d="M248.545 215.626C246.968 215.455 245.576 214.505 245.059 213.04C244.904 212.599 244.765 212.15 244.672 211.736C244.477 210.869 244.326 210.115 244.312 209.247C244.297 208.302 244.585 206.876 244.67 206.457L244.673 206.438C244.683 206.389 244.723 206.253 244.791 206.042C244.857 205.837 244.944 205.576 245.042 205.286C245.634 203.545 247.229 202.343 249.068 202.218L258.64 201.569C261.312 201.388 263.578 203.506 263.578 206.184V212.103C263.578 214.855 261.19 216.998 258.454 216.701L248.545 215.626Z" fill="white" stroke="#3F3F3F" stroke-width="0.486888"/>
<path id="Vector 4" d="M245.67 213.876C245.67 213.876 246.196 210.881 246.204 209.106C246.213 207.255 245.67 204.382 245.67 204.382" stroke="#3F3F3F" stroke-width="0.486888"/>
</g>
<g id="chair_2">
<path id="Rectangle 36_2" d="M293.758 202.034C295.421 202.26 296.841 203.356 297.291 204.944C297.436 205.453 297.565 205.975 297.652 206.456C297.826 207.426 297.962 208.275 297.974 209.254C297.987 210.318 297.73 211.918 297.655 212.387L297.651 212.41C297.628 212.549 297.48 213.118 297.285 213.836C296.781 215.689 295.16 217.021 293.242 217.184L285.86 217.811C283.161 218.04 280.844 215.911 280.844 213.202V205.575C280.844 202.773 283.315 200.615 286.092 200.992L293.758 202.034Z" fill="white" stroke="#3F3F3F" stroke-width="0.486888"/>
<path id="Rectangle 32_2" d="M292.674 202.876C294.251 203.047 295.643 203.997 296.16 205.462C296.316 205.903 296.454 206.352 296.547 206.766C296.742 207.633 296.894 208.387 296.907 209.255C296.922 210.2 296.635 211.626 296.55 212.045L296.546 212.064C296.536 212.113 296.496 212.249 296.429 212.46C296.363 212.665 296.276 212.926 296.177 213.216C295.586 214.957 293.991 216.159 292.151 216.284L282.579 216.933C279.908 217.114 277.641 214.996 277.641 212.318V206.399C277.641 203.647 280.029 201.504 282.765 201.801L292.674 202.876Z" fill="white" stroke="#3F3F3F" stroke-width="0.486888"/>
<path id="Vector 4_2" d="M295.549 204.625C295.549 204.625 295.024 207.621 295.015 209.396C295.006 211.247 295.549 214.12 295.549 214.12" stroke="#3F3F3F" stroke-width="0.486888"/>
</g>
<rect id="table" x="253.285" y="228.715" width="39.4291" height="37.4291" rx="2.56924" transform="rotate(-90 253.285 228.715)" fill="#4E3595" stroke="#181818" stroke-width="0.570943"/>
<text id="6_2" fill="white" xml:space="preserve" style="white-space: pre" font-family="Futura PT" font-size="12" font-weight="600" letter-spacing="0em"><tspan x="268.09" y="213.592">6</tspan></text>
</g>
<g id="5">
<g id="chair_3">
<path id="Rectangle 36_3" d="M322.279 265.811C323.717 266.046 324.909 267.055 325.245 268.453C325.366 268.954 325.475 269.474 325.546 269.952C325.68 270.848 325.785 271.635 325.795 272.544C325.805 273.532 325.607 275.012 325.549 275.445L325.546 275.467C325.527 275.61 325.395 276.212 325.23 276.939C324.862 278.555 323.497 279.751 321.846 279.92L316.966 280.418C314.67 280.653 312.675 278.851 312.675 276.544V268.824C312.675 266.422 314.828 264.593 317.198 264.98L322.279 265.811Z" fill="white" stroke="#3F3F3F" stroke-width="0.409999"/>
<path id="Rectangle 32_3" d="M321.417 266.594C322.806 266.775 324 267.677 324.39 268.997C324.513 269.414 324.623 269.842 324.697 270.236C324.847 271.037 324.964 271.737 324.974 272.545C324.986 273.423 324.764 274.744 324.699 275.131L324.696 275.15C324.677 275.263 324.552 275.722 324.387 276.306C323.949 277.851 322.587 278.954 320.982 279.085L314.426 279.619C312.158 279.804 310.215 278.013 310.215 275.737V269.569C310.215 267.218 312.282 265.403 314.613 265.707L321.417 266.594Z" fill="white" stroke="#3F3F3F" stroke-width="0.409999"/>
<path id="Vector 4_3" d="M323.95 268.271C323.95 268.271 323.547 271.037 323.54 272.676C323.533 274.385 323.95 277.037 323.95 277.037" stroke="#3F3F3F" stroke-width="0.409999"/>
</g>
<g id="chair_4">
<path id="Rectangle 36_4" d="M322.28 283.708C323.717 283.943 324.909 284.953 325.245 286.351C325.366 286.852 325.475 287.372 325.546 287.85C325.68 288.746 325.785 289.533 325.795 290.442C325.805 291.429 325.607 292.91 325.549 293.343L325.546 293.365C325.527 293.508 325.395 294.11 325.23 294.837C324.863 296.453 323.497 297.649 321.846 297.818L316.966 298.316C314.67 298.551 312.675 296.749 312.675 294.441V286.722C312.675 284.32 314.828 282.491 317.198 282.878L322.28 283.708Z" fill="white" stroke="#3F3F3F" stroke-width="0.409999"/>
<path id="Rectangle 32_4" d="M321.417 284.492C322.806 284.673 324 285.575 324.39 286.896C324.513 287.313 324.623 287.74 324.697 288.134C324.847 288.935 324.964 289.635 324.974 290.443C324.986 291.321 324.764 292.642 324.699 293.029L324.696 293.048C324.677 293.161 324.552 293.62 324.387 294.204C323.949 295.75 322.587 296.852 320.982 296.983L314.426 297.517C312.158 297.702 310.215 295.911 310.215 293.635V287.467C310.215 285.116 312.282 283.301 314.613 283.605L321.417 284.492Z" fill="white" stroke="#3F3F3F" stroke-width="0.409999"/>
<path id="Vector 4_4" d="M323.95 286.169C323.95 286.169 323.547 288.935 323.54 290.574C323.533 292.283 323.95 294.936 323.95 294.936" stroke="#3F3F3F" stroke-width="0.409999"/>
</g>
<g id="chair_5">
<path id="Rectangle 36_5" d="M280.011 279.297C278.516 279.093 277.239 278.108 276.833 276.679C276.704 276.222 276.587 275.752 276.509 275.319C276.353 274.447 276.23 273.684 276.219 272.803C276.207 271.846 276.439 270.407 276.507 269.986L276.51 269.965C276.53 269.839 276.664 269.328 276.839 268.683C277.293 267.016 278.75 265.818 280.475 265.672L287.114 265.108C289.541 264.902 291.626 266.816 291.626 269.253V276.112C291.626 278.632 289.403 280.573 286.906 280.234L280.011 279.297Z" fill="white" stroke="#3F3F3F" stroke-width="0.437881"/>
<path id="Rectangle 32_5" d="M280.987 278.539C279.569 278.386 278.317 277.531 277.852 276.213C277.712 275.817 277.588 275.413 277.504 275.041C277.328 274.261 277.193 273.583 277.18 272.802C277.167 271.953 277.425 270.67 277.501 270.293L277.505 270.276C277.514 270.232 277.55 270.11 277.611 269.92C277.67 269.736 277.748 269.501 277.837 269.24C278.368 267.674 279.803 266.593 281.458 266.481L290.066 265.897C292.469 265.734 294.507 267.639 294.507 270.047V275.37C294.507 277.845 292.359 279.773 289.899 279.506L280.987 278.539Z" fill="white" stroke="#3F3F3F" stroke-width="0.437881"/>
<path id="Vector 4_5" d="M278.401 276.966C278.401 276.966 278.873 274.272 278.881 272.676C278.889 271.011 278.401 268.427 278.401 268.427" stroke="#3F3F3F" stroke-width="0.437881"/>
</g>
<g id="chair_6">
<path id="Rectangle 36_6" d="M280.011 298.154C278.516 297.951 277.239 296.965 276.833 295.537C276.704 295.079 276.587 294.61 276.509 294.177C276.353 293.305 276.23 292.541 276.219 291.661C276.207 290.704 276.439 289.265 276.507 288.844L276.51 288.823C276.53 288.697 276.664 288.186 276.839 287.541C277.293 285.874 278.75 284.676 280.475 284.53L287.114 283.966C289.541 283.76 291.626 285.674 291.626 288.111V294.969C291.626 297.49 289.403 299.431 286.906 299.091L280.011 298.154Z" fill="white" stroke="#3F3F3F" stroke-width="0.437881"/>
<path id="Rectangle 32_6" d="M280.987 297.397C279.569 297.243 278.317 296.389 277.852 295.071C277.712 294.675 277.588 294.271 277.504 293.899C277.328 293.119 277.193 292.441 277.18 291.66C277.167 290.81 277.425 289.528 277.501 289.151L277.505 289.134C277.514 289.089 277.55 288.967 277.611 288.777C277.67 288.593 277.748 288.358 277.837 288.098C278.368 286.531 279.803 285.45 281.458 285.338L290.066 284.755C292.469 284.592 294.507 286.497 294.507 288.905V294.228C294.507 296.703 292.359 298.63 289.899 298.364L280.987 297.397Z" fill="white" stroke="#3F3F3F" stroke-width="0.437881"/>
<path id="Vector 4_6" d="M278.401 295.824C278.401 295.824 278.873 293.13 278.881 291.534C278.889 289.869 278.401 287.285 278.401 287.285" stroke="#3F3F3F" stroke-width="0.437881"/>
</g>
<rect id="table_2" x="281.343" y="310.657" width="61.3145" height="39.3145" rx="3.08462" transform="rotate(-90 281.343 310.657)" fill="#37A463" stroke="#3F3F3F" stroke-width="0.685472"/>
<text id="5_2" fill="white" xml:space="preserve" style="white-space: pre" font-family="Futura PT" font-size="12" font-weight="600" letter-spacing="0em"><tspan x="299.09" y="284.592">5</tspan></text>
</g>
<g id="4">
<g id="chair_7">
<path id="Rectangle 36_7" d="M234.915 259.2C235.128 257.634 236.16 256.297 237.656 255.873C238.135 255.737 238.627 255.615 239.08 255.533C239.994 255.369 240.793 255.241 241.715 255.23C242.717 255.217 244.224 255.46 244.665 255.531L244.687 255.534C244.818 255.555 245.354 255.695 246.029 255.879C247.775 256.354 249.029 257.88 249.182 259.686L249.773 266.637C249.989 269.179 247.984 271.362 245.432 271.362H238.25C235.612 271.362 233.579 269.034 233.934 266.42L234.915 259.2Z" fill="white" stroke="#3F3F3F" stroke-width="0.458513"/>
<path id="Rectangle 32_7" d="M235.708 260.222C235.869 258.737 236.764 257.426 238.144 256.939C238.558 256.793 238.981 256.663 239.371 256.575C240.188 256.391 240.898 256.249 241.715 256.236C242.605 256.222 243.948 256.493 244.343 256.572L244.361 256.576C244.407 256.585 244.535 256.623 244.734 256.687C244.926 256.749 245.172 256.831 245.446 256.923C247.086 257.48 248.217 258.983 248.335 260.715L248.946 269.729C249.116 272.245 247.122 274.379 244.6 274.379H239.026C236.435 274.379 234.416 272.13 234.696 269.554L235.708 260.222Z" fill="white" stroke="#3F3F3F" stroke-width="0.458513"/>
<path id="Vector 4_7" d="M237.356 257.515C237.356 257.515 240.177 258.009 241.848 258.017C243.592 258.026 246.297 257.515 246.297 257.515" stroke="#3F3F3F" stroke-width="0.458513"/>
</g>
<g id="chair_8">
<path id="Rectangle 36_8" d="M248.508 302.8C248.295 304.366 247.263 305.703 245.767 306.127C245.288 306.263 244.797 306.385 244.343 306.467C243.43 306.631 242.631 306.759 241.709 306.77C240.706 306.783 239.2 306.54 238.759 306.469L238.737 306.466C238.605 306.445 238.07 306.305 237.394 306.121C235.649 305.646 234.395 304.12 234.241 302.314L233.651 295.363C233.435 292.821 235.44 290.638 237.991 290.638H245.173C247.812 290.638 249.845 292.966 249.489 295.58L248.508 302.8Z" fill="white" stroke="#3F3F3F" stroke-width="0.458513"/>
<path id="Rectangle 32_8" d="M247.715 301.779C247.554 303.265 246.659 304.575 245.28 305.062C244.865 305.209 244.442 305.339 244.052 305.427C243.235 305.61 242.526 305.753 241.708 305.765C240.818 305.78 239.475 305.509 239.081 305.429L239.063 305.425C239.016 305.416 238.888 305.379 238.69 305.315C238.497 305.253 238.251 305.171 237.978 305.078C236.338 304.521 235.206 303.019 235.088 301.287L234.477 292.273C234.307 289.757 236.302 287.622 238.823 287.622H244.397C246.989 287.622 249.007 289.871 248.728 292.448L247.715 301.779Z" fill="white" stroke="#3F3F3F" stroke-width="0.458513"/>
<path id="Vector 4_8" d="M246.068 304.487C246.068 304.487 243.246 303.992 241.575 303.984C239.832 303.975 237.127 304.487 237.127 304.487" stroke="#3F3F3F" stroke-width="0.458513"/>
</g>
<rect id="table_3" x="222.285" y="262.285" width="39.4291" height="37.4291" rx="2.56924" fill="#A44637" stroke="#181818" stroke-width="0.570943"/>
<text id="4_2" fill="white" xml:space="preserve" style="white-space: pre" font-family="Futura PT" font-size="12" font-weight="600" letter-spacing="0em"><tspan x="238.09" y="284.592">4</tspan></text>
</g>
<g id="3">
<g id="chair_9">
<path id="Rectangle 36_9" d="M203.528 262.849C204.996 263.089 206.213 264.119 206.556 265.547C206.679 266.059 206.791 266.59 206.864 267.077C207 267.992 207.107 268.796 207.117 269.724C207.128 270.732 206.925 272.244 206.866 272.686L206.863 272.709C206.844 272.855 206.709 273.47 206.54 274.211C206.165 275.862 204.771 277.083 203.085 277.255L198.102 277.764C195.758 278.004 193.721 276.164 193.721 273.808V265.926C193.721 263.474 195.919 261.605 198.34 262.001L203.528 262.849Z" fill="white" stroke="#3F3F3F" stroke-width="0.418638"/>
<path id="Rectangle 32_9" d="M202.648 263.648C204.066 263.833 205.285 264.754 205.683 266.102C205.809 266.528 205.921 266.964 205.997 267.367C206.15 268.185 206.269 268.9 206.28 269.725C206.292 270.621 206.065 271.97 205.999 272.365L205.996 272.385C205.977 272.5 205.849 272.969 205.68 273.565C205.233 275.143 203.842 276.269 202.204 276.402L195.509 276.948C193.193 277.137 191.209 275.308 191.209 272.984V266.686C191.209 264.285 193.32 262.432 195.701 262.742L202.648 263.648Z" fill="white" stroke="#3F3F3F" stroke-width="0.418638"/>
<path id="Vector 4_9" d="M205.234 265.361C205.234 265.361 204.822 268.185 204.815 269.858C204.808 271.604 205.234 274.312 205.234 274.312" stroke="#3F3F3F" stroke-width="0.418638"/>
</g>
<g id="chair_10">
<path id="Rectangle 36_10" d="M203.547 280.849C205.015 281.089 206.232 282.119 206.575 283.547C206.698 284.059 206.81 284.59 206.883 285.077C207.019 285.992 207.126 286.796 207.136 287.724C207.147 288.732 206.944 290.244 206.885 290.686L206.882 290.709C206.863 290.855 206.728 291.47 206.559 292.211C206.184 293.862 204.79 295.083 203.104 295.255L198.121 295.764C195.777 296.004 193.74 294.164 193.74 291.808V283.926C193.74 281.474 195.938 279.605 198.359 280.001L203.547 280.849Z" fill="white" stroke="#3F3F3F" stroke-width="0.418638"/>
<path id="Rectangle 32_10" d="M202.667 281.649C204.085 281.833 205.304 282.754 205.702 284.103C205.828 284.529 205.94 284.965 206.015 285.367C206.169 286.185 206.288 286.9 206.299 287.725C206.31 288.622 206.084 289.971 206.018 290.366L206.015 290.385C205.995 290.5 205.868 290.969 205.699 291.565C205.252 293.143 203.861 294.269 202.223 294.403L195.528 294.948C193.212 295.137 191.228 293.308 191.228 290.985V284.686C191.228 282.286 193.339 280.432 195.72 280.743L202.667 281.649Z" fill="white" stroke="#3F3F3F" stroke-width="0.418638"/>
<path id="Vector 4_10" d="M205.253 283.361C205.253 283.361 204.841 286.186 204.834 287.859C204.827 289.604 205.253 292.313 205.253 292.313" stroke="#3F3F3F" stroke-width="0.418638"/>
</g>
<g id="chair_11">
<path id="Rectangle 36_11" d="M161.835 276.554C160.405 276.359 159.184 275.417 158.797 274.051C158.673 273.614 158.561 273.165 158.487 272.751C158.337 271.917 158.22 271.187 158.21 270.346C158.198 269.43 158.42 268.055 158.484 267.652L158.488 267.632C158.507 267.512 158.635 267.023 158.802 266.406C159.236 264.812 160.629 263.668 162.278 263.528L168.625 262.988C170.946 262.791 172.939 264.622 172.939 266.951V273.509C172.939 275.918 170.814 277.774 168.426 277.449L161.835 276.554Z" fill="white" stroke="#3F3F3F" stroke-width="0.418638"/>
<path id="Rectangle 32_11" d="M162.767 275.83C161.411 275.683 160.215 274.866 159.77 273.606C159.636 273.227 159.517 272.841 159.437 272.485C159.27 271.739 159.14 271.091 159.128 270.345C159.115 269.533 159.362 268.306 159.435 267.946L159.438 267.93C159.447 267.887 159.481 267.771 159.54 267.589C159.596 267.413 159.671 267.188 159.756 266.939C160.264 265.442 161.636 264.408 163.217 264.301L171.447 263.743C173.744 263.588 175.693 265.409 175.693 267.711V272.8C175.693 275.166 173.64 277.009 171.287 276.754L162.767 275.83Z" fill="white" stroke="#3F3F3F" stroke-width="0.418638"/>
<path id="Vector 4_11" d="M160.296 274.325C160.296 274.325 160.747 271.749 160.755 270.224C160.762 268.632 160.296 266.162 160.296 266.162" stroke="#3F3F3F" stroke-width="0.418638"/>
</g>
<g id="chair_12">
<path id="Rectangle 36_12" d="M161.835 294.583C160.405 294.388 159.184 293.446 158.797 292.08C158.673 291.643 158.561 291.194 158.487 290.78C158.337 289.946 158.22 289.216 158.21 288.375C158.198 287.46 158.42 286.084 158.484 285.681L158.488 285.661C158.507 285.541 158.635 285.052 158.802 284.435C159.236 282.841 160.629 281.697 162.278 281.557L168.625 281.018C170.946 280.82 172.939 282.651 172.939 284.98V291.538C172.939 293.947 170.814 295.803 168.426 295.479L161.835 294.583Z" fill="white" stroke="#3F3F3F" stroke-width="0.418638"/>
<path id="Rectangle 32_12" d="M162.767 293.859C161.411 293.712 160.215 292.895 159.77 291.635C159.636 291.256 159.517 290.87 159.437 290.515C159.27 289.769 159.14 289.121 159.128 288.374C159.115 287.562 159.362 286.336 159.435 285.975L159.438 285.959C159.447 285.917 159.481 285.8 159.54 285.618C159.596 285.442 159.671 285.218 159.756 284.968C160.264 283.471 161.636 282.438 163.217 282.33L171.447 281.772C173.744 281.617 175.693 283.438 175.693 285.74V290.829C175.693 293.196 173.64 295.038 171.287 294.783L162.767 293.859Z" fill="white" stroke="#3F3F3F" stroke-width="0.418638"/>
<path id="Vector 4_12" d="M160.295 292.355C160.295 292.355 160.747 289.779 160.754 288.253C160.762 286.661 160.295 284.191 160.295 284.191" stroke="#3F3F3F" stroke-width="0.418638"/>
</g>
<rect id="tabke" x="163.343" y="310.657" width="61.3145" height="39.3145" rx="3.08462" transform="rotate(-90 163.343 310.657)" fill="#37A463" stroke="#3F3F3F" stroke-width="0.685472"/>
<text id="3_2" fill="white" xml:space="preserve" style="white-space: pre" font-family="Futura PT" font-size="12" font-weight="600" letter-spacing="0em"><tspan x="179.09" y="284.592">3</tspan></text>
</g>
<g id="2">
<g id="chair_13">
<path id="Rectangle 36_13" d="M139.743 283.891C141.269 284.14 142.534 285.212 142.891 286.696C143.019 287.228 143.134 287.78 143.21 288.287C143.352 289.238 143.464 290.074 143.474 291.038C143.485 292.087 143.274 293.659 143.213 294.118L143.21 294.142C143.189 294.293 143.049 294.932 142.874 295.704C142.484 297.42 141.035 298.689 139.282 298.868L134.102 299.397C131.665 299.646 129.547 297.734 129.547 295.284V287.09C129.547 284.54 131.832 282.598 134.349 283.01L139.743 283.891Z" fill="white" stroke="#3F3F3F" stroke-width="0.435218"/>
<path id="Rectangle 32_13" d="M138.827 284.722C140.302 284.914 141.569 285.871 141.983 287.273C142.113 287.716 142.23 288.169 142.309 288.587C142.468 289.438 142.592 290.181 142.603 291.039C142.615 291.971 142.38 293.373 142.311 293.784L142.308 293.804C142.288 293.924 142.155 294.412 141.98 295.031C141.515 296.672 140.069 297.842 138.366 297.981L131.406 298.548C128.998 298.744 126.936 296.843 126.936 294.427V287.88C126.936 285.384 129.13 283.457 131.605 283.78L138.827 284.722Z" fill="white" stroke="#3F3F3F" stroke-width="0.435218"/>
<path id="Vector 4_13" d="M141.516 286.503C141.516 286.503 141.088 289.439 141.08 291.178C141.073 292.993 141.516 295.808 141.516 295.808" stroke="#3F3F3F" stroke-width="0.435218"/>
</g>
<g id="chair_14">
<path id="Rectangle 36_14" d="M139.743 263.339C141.269 263.588 142.534 264.66 142.891 266.144C143.019 266.676 143.134 267.228 143.21 267.735C143.352 268.686 143.464 269.522 143.474 270.486C143.485 271.535 143.274 273.107 143.213 273.566L143.21 273.589C143.189 273.741 143.049 274.38 142.874 275.151C142.484 276.867 141.035 278.137 139.282 278.316L134.102 278.845C131.665 279.094 129.547 277.181 129.547 274.732V266.538C129.547 263.988 131.832 262.046 134.349 262.457L139.743 263.339Z" fill="white" stroke="#3F3F3F" stroke-width="0.435218"/>
<path id="Rectangle 32_14" d="M138.828 264.17C140.302 264.362 141.569 265.32 141.983 266.722C142.114 267.164 142.231 267.618 142.309 268.036C142.468 268.886 142.592 269.63 142.603 270.487C142.616 271.419 142.38 272.822 142.312 273.232L142.308 273.253C142.288 273.373 142.156 273.86 141.98 274.479C141.515 276.12 140.069 277.291 138.366 277.429L131.406 277.997C128.999 278.193 126.936 276.292 126.936 273.876V267.328C126.936 264.832 129.13 262.906 131.605 263.228L138.828 264.17Z" fill="white" stroke="#3F3F3F" stroke-width="0.435218"/>
<path id="Vector 4_14" d="M141.516 265.951C141.516 265.951 141.088 268.887 141.081 270.626C141.073 272.441 141.516 275.257 141.516 275.257" stroke="#3F3F3F" stroke-width="0.435218"/>
</g>
<g id="Group 12">
<path id="Vector 7" d="M94.3911 263.185C94.3911 263.185 95.6323 268.657 95.4488 272.218C95.2438 276.198 93.0441 281.94 93.0441 281.94C93.0441 281.94 95.4285 288.549 95.4317 293.059C95.4338 296.092 94.3602 300.699 94.3602 300.699" stroke="#3F3F3F" stroke-width="0.308727"/>
<path id="Vector 12" d="M92.4961 299.15V299.186C92.4961 299.868 93.049 300.421 93.731 300.421H101.207C101.464 300.421 101.717 300.343 101.906 300.17C102.199 299.902 102.6 299.456 102.614 299.011C102.634 298.369 102.512 297.914 101.855 297.6C100.084 296.754 98.5667 297.036 96.7961 297.318C95.642 297.502 94.3273 297.769 93.4587 297.954C92.8947 298.074 92.4961 298.573 92.4961 299.15Z" fill="white" stroke="#181818" stroke-width="0.308727"/>
<path id="Vector 10" d="M90.2221 290.808C89.9459 286.201 90.2221 281.904 90.2221 281.904H91.3265H92.9832C92.9832 281.904 93.6875 288.616 93.8276 289.927C93.9677 291.237 94.5357 294.743 94.0939 296.697C93.8707 297.685 93.3747 298.626 92.7624 298.729C92.2961 298.807 91.4967 298.721 91.0504 298.063C90.2282 296.85 90.3204 292.449 90.2221 290.808Z" fill="white" stroke="#3F3F3F" stroke-width="0.308727"/>
<path id="Vector 6" d="M103.87 282.006L90.3656 282.007" stroke="#3F3F3F" stroke-width="0.308727"/>
<path id="Vector 5" d="M91.3239 300.579L102.486 300.594C103.089 300.595 103.604 300.16 103.693 299.563C103.975 297.662 104.524 293.538 104.454 290.634C104.363 286.882 103.828 282.839 103.708 281.972C103.692 281.858 103.691 281.747 103.706 281.633C103.835 280.658 104.466 275.698 104.469 272.353C104.471 269.854 103.972 265.929 103.713 264.067C103.63 263.463 103.112 263.019 102.503 263.018L91.3593 263.003C90.7273 263.002 90.1975 263.478 90.135 264.107C89.8318 267.159 89.0203 275.849 89.0157 281.473C89.0104 287.946 89.8028 296.478 90.1033 299.478C90.166 300.105 90.6939 300.578 91.3239 300.579Z" stroke="#3F3F3F" stroke-width="0.308727"/>
<path id="Vector 11" d="M92.4961 264.454V264.418C92.4961 263.736 93.049 263.183 93.731 263.183H101.207C101.464 263.183 101.717 263.261 101.906 263.435C102.199 263.702 102.6 264.148 102.614 264.594C102.634 265.236 102.512 265.69 101.855 266.004C100.084 266.851 98.5667 266.569 96.7961 266.287C95.642 266.103 94.3273 265.835 93.4587 265.651C92.8947 265.531 92.4961 265.031 92.4961 264.454Z" fill="white" stroke="#181818" stroke-width="0.308727"/>
<path id="Vector 10_2" d="M90.2221 272.954C89.9459 277.655 90.2221 282.039 90.2221 282.039H91.3265H92.9832C92.9832 282.039 93.3954 274.964 93.5354 273.627C93.6755 272.289 94.3307 268.913 93.8889 266.918C93.6657 265.911 93.3747 264.981 92.7624 264.876C92.2961 264.796 91.4967 264.879 91.0504 265.551C90.2282 266.788 90.3204 271.279 90.2221 272.954Z" fill="white" stroke="#3F3F3F" stroke-width="0.308727"/>
</g>
<rect id="table_4" x="139.685" y="249.315" width="61.3693" height="39.3693" rx="2.83833" transform="rotate(90 139.685 249.315)" fill="#A44637" stroke="#3F3F3F" stroke-width="0.630739"/>
<text id="2_2" fill="white" xml:space="preserve" style="white-space: pre" font-family="Futura PT" font-size="12" font-weight="600" letter-spacing="0em"><tspan x="117.09" y="284.592">2</tspan></text>
</g>
<g id="1">
<g id="chair_15">
<path id="Rectangle 36_15" d="M62.0484 307.112C61.7783 308.765 60.6179 310.135 59.0103 310.521C58.4344 310.66 57.8366 310.785 57.2874 310.867C56.2574 311.021 55.3522 311.142 54.3078 311.153C53.1723 311.165 51.47 310.937 50.9728 310.87L50.9472 310.867C50.7827 310.845 50.0907 310.693 49.2554 310.503C47.397 310.081 46.0221 308.512 45.8282 306.613L45.2553 301.003C44.9857 298.364 47.0569 296.071 49.7098 296.071H58.5838C61.345 296.071 63.4482 298.545 63.0029 301.27L62.0484 307.112Z" fill="white" stroke="#3F3F3F" stroke-width="0.471336"/>
<path id="Rectangle 32_15" d="M61.1484 306.121C60.9402 307.718 59.9035 309.09 58.3851 309.538C57.9058 309.68 57.4147 309.806 56.9617 309.891C56.0406 310.064 55.2355 310.198 54.307 310.21C53.2973 310.223 51.7786 309.969 51.3339 309.894L51.3121 309.89C51.1822 309.869 50.6543 309.725 49.9837 309.535C48.2066 309.032 46.9389 307.465 46.7886 305.621L46.1743 298.084C45.9618 295.476 48.0209 293.242 50.6372 293.242H57.7283C60.4311 293.242 62.5179 295.619 62.1684 298.299L61.1484 306.121Z" fill="white" stroke="#3F3F3F" stroke-width="0.471336"/>
<path id="Vector 4_15" d="M59.2201 309.032C59.2201 309.032 56.04 308.569 54.1563 308.561C52.1913 308.553 49.142 309.032 49.142 309.032" stroke="#3F3F3F" stroke-width="0.471336"/>
</g>
<g id="chair_16">
<path id="Rectangle 36_16" d="M41.473 307.112C41.2029 308.765 40.0426 310.135 38.4349 310.522C37.859 310.66 37.2613 310.785 36.7121 310.867C35.682 311.021 34.7769 311.142 33.7324 311.153C32.597 311.165 30.8946 310.937 30.3975 310.87L30.3718 310.867C30.2073 310.845 29.5154 310.693 28.68 310.504C26.8216 310.081 25.4467 308.512 25.2528 306.613L24.6799 301.003C24.4104 298.364 26.4816 296.071 29.1344 296.071H38.0085C40.7697 296.071 42.8728 298.545 42.4275 301.27L41.473 307.112Z" fill="white" stroke="#3F3F3F" stroke-width="0.471336"/>
<path id="Rectangle 32_16" d="M40.5726 306.121C40.3644 307.718 39.3277 309.09 37.8093 309.538C37.33 309.68 36.8389 309.806 36.3859 309.891C35.4648 310.063 34.6596 310.198 33.7312 310.21C32.7215 310.223 31.2028 309.969 30.7581 309.894L30.7363 309.89C30.6064 309.869 30.0785 309.725 29.4079 309.535C27.6308 309.032 26.3631 307.465 26.2128 305.621L25.5985 298.084C25.386 295.476 27.445 293.242 30.0614 293.242H37.1525C39.8553 293.242 41.9421 295.619 41.5926 298.299L40.5726 306.121Z" fill="white" stroke="#3F3F3F" stroke-width="0.471336"/>
<path id="Vector 4_16" d="M38.6443 309.032C38.6443 309.032 35.4642 308.569 33.5805 308.561C31.6155 308.553 28.5662 309.032 28.5662 309.032" stroke="#3F3F3F" stroke-width="0.471336"/>
</g>
<g id="chair_17">
<path id="Rectangle 36_17" d="M46.2677 257.318C46.4864 255.708 47.5475 254.333 49.0851 253.897C49.5776 253.757 50.0829 253.632 50.5488 253.548C51.4878 253.38 52.3095 253.248 53.2571 253.236C54.2875 253.223 55.8364 253.472 56.2897 253.545L56.3122 253.549C56.4473 253.571 56.9981 253.715 57.6924 253.903C59.4869 254.392 60.7757 255.96 60.9334 257.817L61.5404 264.963C61.7624 267.576 59.7012 269.82 57.0788 269.82H49.696C46.9834 269.82 44.8938 267.427 45.2591 264.739L46.2677 257.318Z" fill="white" stroke="#3F3F3F" stroke-width="0.471336"/>
<path id="Rectangle 32_17" d="M47.0823 258.368C47.2479 256.841 48.1679 255.493 49.5862 254.993C50.0127 254.842 50.4473 254.708 50.848 254.618C51.6878 254.429 52.4173 254.283 53.2578 254.27C54.1724 254.255 55.553 254.534 55.9586 254.616L55.9772 254.619C56.0248 254.629 56.1562 254.668 56.3606 254.733C56.5587 254.797 56.8117 254.881 57.0925 254.977C58.7782 255.549 59.9418 257.093 60.0625 258.874L60.6906 268.14C60.8659 270.726 58.8153 272.921 56.2231 272.921H50.4936C47.8295 272.921 45.7547 270.609 46.042 267.96L47.0823 258.368Z" fill="white" stroke="#3F3F3F" stroke-width="0.471336"/>
<path id="Vector 4_17" d="M48.7764 255.585C48.7764 255.585 51.6766 256.093 53.3945 256.101C55.1865 256.11 57.9675 255.585 57.9675 255.585" stroke="#3F3F3F" stroke-width="0.471336"/>
</g>
<g id="chair_18">
<path id="Rectangle 36_18" d="M25.969 257.318C26.1877 255.708 27.2488 254.333 28.7864 253.897C29.2789 253.757 29.7842 253.632 30.2501 253.548C31.1891 253.38 32.0108 253.248 32.9583 253.236C33.9888 253.223 35.5377 253.472 35.991 253.545L36.0135 253.549C36.1486 253.571 36.6994 253.715 37.3937 253.903C39.1882 254.392 40.477 255.96 40.6347 257.817L41.2417 264.963C41.4637 267.576 39.4025 269.82 36.7801 269.82H29.3973C26.6847 269.82 24.5951 267.427 24.9604 264.739L25.969 257.318Z" fill="white" stroke="#3F3F3F" stroke-width="0.471336"/>
<path id="Rectangle 32_18" d="M26.7835 258.368C26.9491 256.841 27.8691 255.493 29.2874 254.993C29.7139 254.842 30.1485 254.708 30.5493 254.618C31.389 254.429 32.1185 254.283 32.959 254.27C33.8736 254.255 35.2542 254.534 35.6598 254.616L35.6784 254.619C35.726 254.629 35.8574 254.668 36.0618 254.733C36.2599 254.797 36.5129 254.881 36.7937 254.977C38.4794 255.549 39.643 257.093 39.7637 258.874L40.3918 268.14C40.5671 270.726 38.5165 272.921 35.9243 272.921H30.1948C27.5307 272.921 25.4559 270.609 25.7432 267.96L26.7835 258.368Z" fill="white" stroke="#3F3F3F" stroke-width="0.471336"/>
<path id="Vector 4_18" d="M28.4775 255.584C28.4775 255.584 31.3777 256.093 33.0956 256.101C34.8876 256.11 37.6686 255.584 37.6686 255.584" stroke="#3F3F3F" stroke-width="0.471336"/>
</g>
<rect id="table_5" x="13.3427" y="262.343" width="61.3145" height="39.3145" rx="3.08462" fill="#37A463" stroke="#3F3F3F" stroke-width="0.685472"/>
<text id="1_2" fill="white" xml:space="preserve" style="white-space: pre" font-family="Futura PT" font-size="12" font-weight="600" letter-spacing="0em"><tspan x="40.0898" y="285.592">1</tspan></text>
</g>
<g id="bar">
<g id="chair2">
<path id="Vector 16" d="M51.0433 199.029C51.0433 199.029 51.4645 198.434 51.8242 198.173C52.1469 197.939 52.4935 198.01 52.4935 198.01C52.4935 198.01 52.3941 198.161 52.2146 198.459C52.0855 198.673 52.0101 199.06 52.0101 199.06" stroke="#181818" stroke-width="0.193365"/>
<path id="Vector 18" d="M45.7257 199.029C45.7257 199.029 45.3045 198.434 44.9448 198.173C44.6221 197.939 44.2755 198.01 44.2755 198.01C44.2755 198.01 44.3749 198.161 44.5544 198.459C44.6836 198.673 44.7589 199.06 44.7589 199.06" stroke="#181818" stroke-width="0.193365"/>
<path id="Vector 17" d="M44.9473 205.305C44.9473 205.305 44.3202 205.612 44.0035 205.933C43.7193 206.221 43.7 206.607 43.7 206.607C43.7 206.607 43.8571 206.537 44.1633 206.416C44.3836 206.33 44.8879 206.17 44.8879 206.17" stroke="#181818" stroke-width="0.193365"/>
<path id="Vector 19" d="M52.0101 205.421C52.0101 205.421 52.5728 205.648 52.9019 205.953C53.1973 206.227 53.232 206.612 53.232 206.612C53.232 206.612 53.0723 206.55 52.7616 206.444C52.538 206.368 52.0279 206.233 52.0279 206.233" stroke="#181818" stroke-width="0.193365"/>
<g id="Group 15">
<path id="Vector 15" d="M45.7367 206.455C45.7367 206.455 47.4069 206.81 48.4892 206.81C49.5715 206.81 51.2416 206.455 51.2416 206.455" stroke="#181818" stroke-width="0.193365"/>
<path id="Rectangle 47" d="M43.9423 199.688C43.8864 199.366 44.1204 199.068 44.4451 199.048C45.4123 198.988 47.159 198.891 48.4197 198.891C49.6867 198.891 51.4445 198.989 52.4086 199.049C52.729 199.069 52.9617 199.36 52.9128 199.678L51.9811 205.742C51.9618 205.867 51.9749 205.995 52.0191 206.114L52.7343 208.039C52.8596 208.376 52.6341 208.738 52.2779 208.771C51.2926 208.861 49.6323 208.995 48.4197 208.995C47.2224 208.995 45.5883 208.865 44.5988 208.774C44.233 208.741 44.0074 208.362 44.1505 208.021L44.9428 206.135C44.9979 206.004 45.0143 205.859 44.9899 205.719L43.9423 199.688Z" stroke="#181818" stroke-width="0.193365"/>
</g>
</g>
<g id="chair2_2">
<path id="Vector 16_2" d="M105.506 199.029C105.506 199.029 105.927 198.434 106.287 198.173C106.61 197.939 106.956 198.01 106.956 198.01C106.956 198.01 106.857 198.161 106.678 198.459C106.548 198.673 106.473 199.06 106.473 199.06" stroke="#181818" stroke-width="0.193365"/>
<path id="Vector 18_2" d="M100.189 199.029C100.189 199.029 99.7674 198.434 99.4077 198.173C99.085 197.939 98.7384 198.01 98.7384 198.01C98.7384 198.01 98.8378 198.161 99.0173 198.459C99.1464 198.673 99.2218 199.06 99.2218 199.06" stroke="#181818" stroke-width="0.193365"/>
<path id="Vector 17_2" d="M99.4102 205.305C99.4102 205.305 98.783 205.612 98.4664 205.933C98.1822 206.221 98.1629 206.607 98.1629 206.607C98.1629 206.607 98.32 206.537 98.6262 206.416C98.8465 206.33 99.3508 206.17 99.3508 206.17" stroke="#181818" stroke-width="0.193365"/>
<path id="Vector 19_2" d="M106.473 205.421C106.473 205.421 107.036 205.648 107.365 205.953C107.66 206.227 107.695 206.612 107.695 206.612C107.695 206.612 107.535 206.55 107.224 206.444C107.001 206.368 106.491 206.233 106.491 206.233" stroke="#181818" stroke-width="0.193365"/>
<g id="Group 15_2">
<path id="Vector 15_2" d="M100.2 206.455C100.2 206.455 101.87 206.81 102.952 206.81C104.034 206.81 105.704 206.455 105.704 206.455" stroke="#181818" stroke-width="0.193365"/>
<path id="Rectangle 47_2" d="M98.4051 199.688C98.3493 199.366 98.5833 199.068 98.908 199.048C99.8751 198.988 101.622 198.891 102.883 198.891C104.15 198.891 105.907 198.989 106.871 199.049C107.192 199.069 107.425 199.36 107.376 199.678L106.444 205.742C106.425 205.867 106.438 205.995 106.482 206.114L107.197 208.039C107.322 208.376 107.097 208.738 106.741 208.771C105.755 208.861 104.095 208.995 102.883 208.995C101.685 208.995 100.051 208.865 99.0617 208.774C98.6958 208.741 98.4703 208.362 98.6133 208.021L99.4057 206.135C99.4608 206.004 99.4772 205.859 99.4528 205.719L98.4051 199.688Z" stroke="#181818" stroke-width="0.193365"/>
</g>
</g>
<g id="chair2_3">
<path id="Vector 16_3" d="M141.815 199.029C141.815 199.029 142.236 198.434 142.596 198.173C142.918 197.939 143.265 198.01 143.265 198.01C143.265 198.01 143.166 198.161 142.986 198.459C142.857 198.673 142.782 199.06 142.782 199.06" stroke="#181818" stroke-width="0.193365"/>
<path id="Vector 18_3" d="M136.497 199.029C136.497 199.029 136.076 198.434 135.716 198.173C135.394 197.939 135.047 198.01 135.047 198.01C135.047 198.01 135.146 198.161 135.326 198.459C135.455 198.673 135.53 199.06 135.53 199.06" stroke="#181818" stroke-width="0.193365"/>
<path id="Vector 17_3" d="M135.719 205.305C135.719 205.305 135.092 205.612 134.775 205.933C134.491 206.221 134.471 206.607 134.471 206.607C134.471 206.607 134.628 206.537 134.935 206.416C135.155 206.33 135.659 206.17 135.659 206.17" stroke="#181818" stroke-width="0.193365"/>
<path id="Vector 19_3" d="M142.782 205.421C142.782 205.421 143.344 205.648 143.673 205.953C143.969 206.227 144.004 206.612 144.004 206.612C144.004 206.612 143.844 206.55 143.533 206.444C143.31 206.368 142.799 206.233 142.799 206.233" stroke="#181818" stroke-width="0.193365"/>
<g id="Group 15_3">
<path id="Vector 15_3" d="M136.508 206.455C136.508 206.455 138.178 206.81 139.261 206.81C140.343 206.81 142.013 206.455 142.013 206.455" stroke="#181818" stroke-width="0.193365"/>
<path id="Rectangle 47_3" d="M134.714 199.688C134.658 199.366 134.892 199.068 135.217 199.048C136.184 198.988 137.93 198.891 139.191 198.891C140.458 198.891 142.216 198.989 143.18 199.049C143.5 199.069 143.733 199.36 143.684 199.678L142.753 205.742C142.733 205.867 142.746 205.995 142.79 206.114L143.506 208.039C143.631 208.376 143.406 208.738 143.049 208.771C142.064 208.861 140.404 208.995 139.191 208.995C137.994 208.995 136.36 208.865 135.37 208.774C135.004 208.741 134.779 208.362 134.922 208.021L135.714 206.135C135.769 206.004 135.786 205.859 135.761 205.719L134.714 199.688Z" stroke="#181818" stroke-width="0.193365"/>
</g>
</g>
<g id="chair2_4">
<path id="Vector 16_4" d="M123.66 199.029C123.66 199.029 124.082 198.434 124.441 198.173C124.764 197.939 125.111 198.01 125.111 198.01C125.111 198.01 125.011 198.161 124.832 198.459C124.703 198.673 124.627 199.06 124.627 199.06" stroke="#181818" stroke-width="0.193365"/>
<path id="Vector 18_4" d="M118.343 199.029C118.343 199.029 117.922 198.434 117.562 198.173C117.239 197.939 116.893 198.01 116.893 198.01C116.893 198.01 116.992 198.161 117.172 198.459C117.301 198.673 117.376 199.06 117.376 199.06" stroke="#181818" stroke-width="0.193365"/>
<path id="Vector 17_4" d="M117.564 205.305C117.564 205.305 116.937 205.612 116.621 205.933C116.336 206.221 116.317 206.607 116.317 206.607C116.317 206.607 116.474 206.537 116.78 206.416C117.001 206.33 117.505 206.17 117.505 206.17" stroke="#181818" stroke-width="0.193365"/>
<path id="Vector 19_4" d="M124.627 205.421C124.627 205.421 125.19 205.648 125.519 205.953C125.815 206.227 125.849 206.612 125.849 206.612C125.849 206.612 125.69 206.55 125.379 206.444C125.155 206.368 124.645 206.233 124.645 206.233" stroke="#181818" stroke-width="0.193365"/>
<g id="Group 15_4">
<path id="Vector 15_4" d="M118.354 206.455C118.354 206.455 120.024 206.81 121.106 206.81C122.189 206.81 123.859 206.455 123.859 206.455" stroke="#181818" stroke-width="0.193365"/>
<path id="Rectangle 47_4" d="M116.559 199.688C116.504 199.366 116.738 199.068 117.062 199.048C118.029 198.988 119.776 198.891 121.037 198.891C122.304 198.891 124.062 198.989 125.026 199.049C125.346 199.069 125.579 199.36 125.53 199.678L124.598 205.742C124.579 205.867 124.592 205.995 124.636 206.114L125.351 208.039C125.477 208.376 125.251 208.738 124.895 208.771C123.91 208.861 122.249 208.995 121.037 208.995C119.839 208.995 118.205 208.865 117.216 208.774C116.85 208.741 116.625 208.362 116.768 208.021L117.56 206.135C117.615 206.004 117.631 205.859 117.607 205.719L116.559 199.688Z" stroke="#181818" stroke-width="0.193365"/>
</g>
</g>
<g id="chair2_5">
<path id="Vector 16_5" d="M87.3519 199.029C87.3519 199.029 87.7732 198.434 88.1328 198.173C88.4556 197.939 88.8021 198.01 88.8021 198.01C88.8021 198.01 88.7027 198.161 88.5232 198.459C88.3941 198.673 88.3187 199.06 88.3187 199.06" stroke="#181818" stroke-width="0.193365"/>
<path id="Vector 18_5" d="M82.0343 199.029C82.0343 199.029 81.6131 198.434 81.2534 198.173C80.9307 197.939 80.5841 198.01 80.5841 198.01C80.5841 198.01 80.6835 198.161 80.863 198.459C80.9921 198.673 81.0675 199.06 81.0675 199.06" stroke="#181818" stroke-width="0.193365"/>
<path id="Vector 17_5" d="M81.2559 205.305C81.2559 205.305 80.6287 205.612 80.3121 205.933C80.0279 206.221 80.0086 206.607 80.0086 206.607C80.0086 206.607 80.1656 206.537 80.4719 206.416C80.6922 206.33 81.1964 206.17 81.1964 206.17" stroke="#181818" stroke-width="0.193365"/>
<path id="Vector 19_5" d="M88.3187 205.421C88.3187 205.421 88.8814 205.648 89.2105 205.953C89.506 206.227 89.5407 206.612 89.5407 206.612C89.5407 206.612 89.3809 206.55 89.0702 206.444C88.8466 206.368 88.3365 206.233 88.3365 206.233" stroke="#181818" stroke-width="0.193365"/>
<g id="Group 15_5">
<path id="Vector 15_5" d="M82.0453 206.455C82.0453 206.455 83.7154 206.81 84.7977 206.81C85.88 206.81 87.5502 206.455 87.5502 206.455" stroke="#181818" stroke-width="0.193365"/>
<path id="Rectangle 47_5" d="M80.2508 199.688C80.195 199.366 80.429 199.068 80.7537 199.048C81.7208 198.988 83.4676 198.891 84.7283 198.891C85.9952 198.891 87.7531 198.989 88.7172 199.049C89.0376 199.069 89.2703 199.36 89.2214 199.678L88.2896 205.742C88.2704 205.867 88.2835 205.995 88.3276 206.114L89.0428 208.039C89.1682 208.376 88.9427 208.738 88.5864 208.771C87.6012 208.861 85.9408 208.995 84.7283 208.995C83.5309 208.995 81.8969 208.865 80.9074 208.774C80.5415 208.741 80.316 208.362 80.459 208.021L81.2514 206.135C81.3065 206.004 81.3229 205.859 81.2985 205.719L80.2508 199.688Z" stroke="#181818" stroke-width="0.193365"/>
</g>
</g>
<g id="chair2_6">
<path id="Vector 16_6" d="M69.1976 199.029C69.1976 199.029 69.6189 198.434 69.9785 198.173C70.3013 197.939 70.6478 198.01 70.6478 198.01C70.6478 198.01 70.5485 198.161 70.3689 198.459C70.2398 198.673 70.1644 199.06 70.1644 199.06" stroke="#181818" stroke-width="0.193365"/>
<path id="Vector 18_6" d="M63.8801 199.029C63.8801 199.029 63.4588 198.434 63.0992 198.173C62.7764 197.939 62.4298 198.01 62.4298 198.01C62.4298 198.01 62.5292 198.161 62.7087 198.459C62.8379 198.673 62.9132 199.06 62.9132 199.06" stroke="#181818" stroke-width="0.193365"/>
<path id="Vector 17_6" d="M63.1016 205.305C63.1016 205.305 62.4745 205.612 62.1578 205.933C61.8736 206.221 61.8543 206.607 61.8543 206.607C61.8543 206.607 62.0114 206.537 62.3176 206.416C62.5379 206.33 63.0422 206.17 63.0422 206.17" stroke="#181818" stroke-width="0.193365"/>
<path id="Vector 19_6" d="M70.1644 205.421C70.1644 205.421 70.7271 205.648 71.0562 205.953C71.3517 206.227 71.3864 206.612 71.3864 206.612C71.3864 206.612 71.2266 206.55 70.9159 206.444C70.6923 206.368 70.1822 206.233 70.1822 206.233" stroke="#181818" stroke-width="0.193365"/>
<g id="Group 15_6">
<path id="Vector 15_6" d="M63.8911 206.455C63.8911 206.455 65.5612 206.81 66.6435 206.81C67.7258 206.81 69.3959 206.455 69.3959 206.455" stroke="#181818" stroke-width="0.193365"/>
<path id="Rectangle 47_6" d="M62.0965 199.688C62.0407 199.366 62.2747 199.068 62.5994 199.048C63.5665 198.988 65.3133 198.891 66.574 198.891C67.8409 198.891 69.5988 198.989 70.5629 199.049C70.8833 199.069 71.116 199.36 71.0671 199.678L70.1353 205.742C70.1161 205.867 70.1292 205.995 70.1733 206.114L70.8886 208.039C71.0139 208.376 70.7884 208.738 70.4321 208.771C69.4469 208.861 67.7866 208.995 66.574 208.995C65.3766 208.995 63.7426 208.865 62.7531 208.774C62.3872 208.741 62.1617 208.362 62.3047 208.021L63.0971 206.135C63.1522 206.004 63.1686 205.859 63.1442 205.719L62.0965 199.688Z" stroke="#181818" stroke-width="0.193365"/>
</g>
</g>
<g id="Union">
<mask id="path-111-inside-1" fill="white">
<path fill-rule="evenodd" clip-rule="evenodd" d="M151.548 87H101.487V150.672H38.911C36.751 150.672 35 152.423 35 154.583V191.089C35 193.249 36.751 195 38.911 195H101.487V195H151.548V87Z"/>
</mask>
<path d="M101.487 87V86.2178H100.705V87H101.487ZM151.548 87H152.33V86.2178H151.548V87ZM101.487 150.672V151.454H102.269V150.672H101.487ZM101.487 195H102.269V194.218H101.487V195ZM101.487 195H100.705V195.782H101.487V195ZM151.548 195V195.782H152.33V195H151.548ZM101.487 87.7822H151.548V86.2178H101.487V87.7822ZM102.269 150.672V87H100.705V150.672H102.269ZM38.911 151.454H101.487V149.889H38.911V151.454ZM35.7822 154.583C35.7822 152.855 37.183 151.454 38.911 151.454V149.889C36.319 149.889 34.2178 151.991 34.2178 154.583H35.7822ZM35.7822 191.089V154.583H34.2178V191.089H35.7822ZM38.911 194.218C37.183 194.218 35.7822 192.817 35.7822 191.089H34.2178C34.2178 193.681 36.319 195.782 38.911 195.782V194.218ZM101.487 194.218H38.911V195.782H101.487V194.218ZM102.269 195V195H100.705V195H102.269ZM151.548 194.218H101.487V195.782H151.548V194.218ZM150.766 87V195H152.33V87H150.766Z" fill="#181818" mask="url(#path-111-inside-1)"/>
</g>
</g>
<rect id="Rectangle 82" x="203.5" y="0.5" width="130" height="87" stroke="black"/>
<rect id="Rectangle 83" x="203.5" y="87.5" width="130" height="87" stroke="black"/>
<rect id="Rectangle 84" x="0.5" y="0.5" width="203" height="87" stroke="black"/>
<g id="vip1">
<g id="chair2_7">
<path id="Vector 16_7" d="M251.559 147.634C251.559 147.634 252.236 147.772 252.616 148.003C252.956 148.21 253.061 148.58 253.061 148.58C253.061 148.58 252.893 148.552 252.569 148.514C252.336 148.486 251.988 148.59 251.988 148.59" stroke="#181818" stroke-width="0.193365"/>
<path id="Vector 18_7" d="M249.063 142.454C249.063 142.454 249.345 141.771 249.386 141.301C249.423 140.879 249.203 140.574 249.203 140.574C249.203 140.574 249.128 140.74 248.973 141.051C248.861 141.275 248.584 141.526 248.584 141.526" stroke="#181818" stroke-width="0.193365"/>
<path id="Vector 17_7" d="M243.641 144.571C243.641 144.571 243.099 144.101 242.692 143.94C242.327 143.795 242.006 143.953 242.006 143.953C242.006 143.953 242.137 144.074 242.377 144.317C242.551 144.492 242.916 144.91 242.916 144.91" stroke="#181818" stroke-width="0.193365"/>
<path id="Vector 19_7" d="M246.863 151.505C246.863 151.505 246.944 152.157 246.853 152.617C246.771 153.031 246.477 153.241 246.477 153.241C246.477 153.241 246.452 153.057 246.391 152.706C246.348 152.453 246.217 151.894 246.217 151.894" stroke="#181818" stroke-width="0.193365"/>
<g id="Group 15_7">
<path id="Vector 15_7" d="M243.085 145.868C243.085 145.868 243.583 147.657 244.091 148.712C244.599 149.766 245.669 151.23 245.669 151.23" stroke="#181818" stroke-width="0.193365"/>
<path id="Rectangle 47_7" d="M247.636 141.06C247.892 140.838 248.265 140.899 248.425 141.191C248.924 142.099 249.834 143.778 250.432 145.019C251.034 146.267 251.79 148.048 252.191 149.008C252.318 149.312 252.159 149.675 251.851 149.783L246.634 151.616C246.497 151.664 246.376 151.754 246.284 151.873L245.158 153.336C244.923 153.641 244.487 153.624 244.299 153.303C243.764 152.386 242.875 150.826 242.304 149.642C241.741 148.474 241.079 146.822 240.688 145.817C240.547 145.456 240.801 145.048 241.176 145.03L242.921 144.944C243.08 144.937 243.235 144.873 243.36 144.765L247.636 141.06Z" stroke="#181818" stroke-width="0.193365"/>
</g>
</g>
<g id="chair2_8">
<path id="Vector 16_8" d="M293.128 142.616C293.128 142.616 292.831 141.936 292.779 141.467C292.733 141.046 292.946 140.738 292.946 140.738C292.946 140.738 293.024 140.903 293.187 141.212C293.304 141.434 293.586 141.681 293.586 141.681" stroke="#181818" stroke-width="0.193365"/>
<path id="Vector 18_8" d="M290.75 147.83C290.75 147.83 290.076 147.977 289.702 148.213C289.367 148.425 289.27 148.797 289.27 148.797C289.27 148.797 289.437 148.767 289.76 148.724C289.993 148.693 290.342 148.792 290.342 148.792" stroke="#181818" stroke-width="0.193365"/>
<path id="Vector 17_8" d="M295.521 151.401C295.521 151.401 295.491 152.154 295.611 152.608C295.718 153.015 296.025 153.207 296.025 153.207C296.025 153.207 296.038 153.021 296.077 152.667C296.105 152.412 296.2 151.847 296.2 151.847" stroke="#181818" stroke-width="0.193365"/>
<path id="Vector 19_8" d="M298.774 144.527C298.774 144.527 299.211 144.076 299.607 143.89C299.963 143.723 300.292 143.861 300.292 143.861C300.292 143.861 300.17 143.99 299.945 144.247C299.783 144.433 299.445 144.872 299.445 144.872" stroke="#181818" stroke-width="0.193365"/>
<g id="Group 15_8">
<path id="Vector 15_8" d="M296.812 151.141C296.812 151.141 297.849 149.662 298.333 148.601C298.817 147.539 299.274 145.743 299.274 145.743" stroke="#181818" stroke-width="0.193365"/>
<path id="Rectangle 47_8" d="M290.552 149.901C290.237 149.804 290.065 149.438 290.187 149.127C290.568 148.157 291.279 146.379 291.849 145.13C292.421 143.875 293.299 142.173 293.776 141.26C293.928 140.971 294.29 140.9 294.55 141.109L298.994 144.666C299.109 144.758 299.246 144.814 299.387 144.826L299.39 144.727L299.387 144.826L301.146 144.974C301.509 145.005 301.752 145.4 301.623 145.752C301.257 146.759 300.622 148.451 300.078 149.643C299.542 150.818 298.704 152.363 298.188 153.293C298.002 153.627 297.552 153.641 297.318 153.321L296.221 151.82C296.122 151.685 295.986 151.586 295.832 151.538L290.552 149.901Z" stroke="#181818" stroke-width="0.193365"/>
</g>
</g>
<g id="chair2_9">
<path id="Vector 16_9" d="M248.821 119.329C248.821 119.329 249.032 120.046 249.026 120.519C249.021 120.944 248.772 121.217 248.772 121.217C248.772 121.217 248.714 121.042 248.591 120.712C248.503 120.475 248.253 120.188 248.253 120.188" stroke="#181818" stroke-width="0.193365"/>
<path id="Vector 18_9" d="M251.816 114.512C251.816 114.512 252.502 114.465 252.901 114.286C253.259 114.126 253.401 113.772 253.401 113.772C253.401 113.772 253.231 113.777 252.906 113.772C252.672 113.768 252.337 113.618 252.337 113.618" stroke="#181818" stroke-width="0.193365"/>
<path id="Vector 17_9" d="M247.525 110.271C247.525 110.271 247.647 109.53 247.584 109.063C247.527 108.643 247.247 108.408 247.247 108.408C247.247 108.408 247.211 108.59 247.129 108.935C247.07 109.183 246.906 109.73 246.906 109.73" stroke="#181818" stroke-width="0.193365"/>
<path id="Vector 19_9" d="M243.46 116.605C243.46 116.605 242.972 116.987 242.556 117.113C242.183 117.227 241.874 117.041 241.874 117.041C241.874 117.041 242.011 116.932 242.265 116.71C242.449 116.55 242.838 116.164 242.838 116.164" stroke="#181818" stroke-width="0.193365"/>
<g id="Group 15_9">
<path id="Vector 15_9" d="M246.214 110.338C246.214 110.338 245.006 111.652 244.396 112.632C243.786 113.613 243.113 115.326 243.113 115.326" stroke="#181818" stroke-width="0.193365"/>
<path id="Rectangle 47_9" d="M252.275 112.494C252.571 112.635 252.692 113.021 252.531 113.313C252.035 114.219 251.114 115.874 250.398 117.026C249.678 118.185 248.601 119.74 248.016 120.574C247.829 120.841 247.465 120.862 247.236 120.621L243.255 116.428C243.155 116.323 243.031 116.251 242.896 116.219L241.151 115.808C240.8 115.726 240.615 115.302 240.786 114.97C241.272 114.027 242.109 112.443 242.793 111.342C243.468 110.256 244.488 108.848 245.113 108.003C245.338 107.698 245.781 107.744 245.971 108.09L246.885 109.76C246.965 109.905 247.084 110.02 247.226 110.087L252.275 112.494Z" stroke="#181818" stroke-width="0.193365"/>
</g>
</g>
<g id="chair2_10">
<path id="Vector 16_10" d="M290.919 114.155C290.919 114.155 290.238 114.056 289.851 113.847C289.504 113.66 289.385 113.296 289.385 113.296C289.385 113.296 289.554 113.314 289.879 113.334C290.113 113.348 290.456 113.224 290.456 113.224" stroke="#181818" stroke-width="0.193365"/>
<path id="Vector 18_10" d="M293.6 119.191C293.6 119.191 293.344 119.89 293.32 120.362C293.298 120.785 293.529 121.078 293.529 121.078C293.529 121.078 293.597 120.908 293.741 120.587C293.845 120.357 294.112 120.091 294.112 120.091" stroke="#181818" stroke-width="0.193365"/>
<path id="Vector 17_10" d="M298.935 116.763C298.935 116.763 299.493 117.202 299.906 117.34C300.276 117.464 300.59 117.287 300.59 117.287C300.59 117.287 300.455 117.174 300.206 116.945C300.027 116.78 299.647 116.383 299.647 116.383" stroke="#181818" stroke-width="0.193365"/>
<path id="Vector 19_10" d="M295.465 110.017C295.465 110.017 295.36 109.369 295.435 108.904C295.502 108.486 295.787 108.259 295.787 108.259C295.787 108.259 295.819 108.442 295.892 108.789C295.945 109.039 296.096 109.59 296.096 109.59" stroke="#181818" stroke-width="0.193365"/>
<g id="Group 15_10">
<path id="Vector 15_10" d="M299.443 115.435C299.443 115.435 298.881 113.675 298.335 112.65C297.789 111.625 296.667 110.223 296.667 110.223" stroke="#181818" stroke-width="0.193365"/>
<path id="Rectangle 47_10" d="M295.069 120.507C294.824 120.741 294.453 120.698 294.281 120.414C293.749 119.534 292.78 117.91 292.139 116.705C291.494 115.494 290.675 113.758 290.239 112.821C290.1 112.523 290.242 112.152 290.541 112.028L295.695 109.89C295.827 109.836 295.942 109.742 296.027 109.621L297.108 108.079C297.329 107.764 297.76 107.76 297.96 108.071C298.527 108.958 299.472 110.466 300.085 111.617C300.69 112.752 301.411 114.366 301.839 115.349C301.993 115.702 301.761 116.122 301.391 116.162L299.635 116.349C299.479 116.365 299.331 116.436 299.212 116.549L295.069 120.507Z" stroke="#181818" stroke-width="0.193365"/>
</g>
</g>
<g id="chair2_11">
<path id="Vector 16_11" d="M273.527 157.184C273.527 157.184 273.959 156.598 274.323 156.345C274.65 156.117 274.995 156.196 274.995 156.196C274.995 156.196 274.893 156.344 274.708 156.638C274.575 156.85 274.493 157.235 274.493 157.235" stroke="#181818" stroke-width="0.193365"/>
<path id="Vector 18_11" d="M268.211 157.072C268.211 157.072 267.8 156.468 267.445 156.2C267.126 155.958 266.778 156.022 266.778 156.022C266.778 156.022 266.875 156.175 267.049 156.477C267.175 156.694 267.243 157.082 267.243 157.082" stroke="#181818" stroke-width="0.193365"/>
<path id="Vector 17_11" d="M267.322 163.33C267.322 163.33 266.69 163.624 266.368 163.938C266.079 164.22 266.053 164.606 266.053 164.606C266.053 164.606 266.211 164.539 266.519 164.425C266.741 164.343 267.248 164.194 267.248 164.194" stroke="#181818" stroke-width="0.193365"/>
<path id="Vector 19_11" d="M274.382 163.595C274.382 163.595 274.941 163.833 275.264 164.146C275.555 164.426 275.583 164.811 275.583 164.811C275.583 164.811 275.424 164.746 275.115 164.634C274.893 164.553 274.385 164.407 274.385 164.407" stroke="#181818" stroke-width="0.193365"/>
<g id="Group 15_11">
<path id="Vector 15_11" d="M268.092 164.497C268.092 164.497 269.755 164.887 270.837 164.91C271.919 164.933 273.595 164.613 273.595 164.613" stroke="#181818" stroke-width="0.193365"/>
<path id="Rectangle 47_11" d="M266.416 157.694C266.366 157.371 266.605 157.078 266.93 157.064C267.898 157.025 269.646 156.965 270.907 156.991C272.173 157.018 273.929 157.153 274.892 157.233C275.212 157.26 275.44 157.556 275.385 157.873L274.347 163.915C274.326 164.04 274.337 164.169 274.379 164.288L275.06 166.228C275.179 166.568 274.948 166.925 274.591 166.95C273.604 167.02 271.942 167.119 270.73 167.093C269.532 167.068 267.901 166.903 266.913 166.792C266.548 166.751 266.329 166.367 266.478 166.029L267.303 164.16C267.361 164.03 267.38 163.886 267.358 163.746L266.416 157.694Z" stroke="#181818" stroke-width="0.193365"/>
</g>
</g>
<g id="chair2_12">
<path id="Vector 16_12" d="M268.214 104.104C268.214 104.104 267.783 104.691 267.42 104.945C267.093 105.173 266.748 105.095 266.748 105.095C266.748 105.095 266.85 104.946 267.034 104.652C267.167 104.441 267.248 104.055 267.248 104.055" stroke="#181818" stroke-width="0.193365"/>
<path id="Vector 18_12" d="M273.531 104.209C273.531 104.209 273.942 104.812 274.298 105.081C274.617 105.321 274.964 105.257 274.964 105.257C274.964 105.257 274.867 105.104 274.693 104.803C274.567 104.586 274.498 104.197 274.498 104.197" stroke="#181818" stroke-width="0.193365"/>
<path id="Vector 17_12" d="M274.412 97.9499C274.412 97.9499 275.044 97.6552 275.366 97.3405C275.655 97.0581 275.68 96.6725 275.68 96.6725C275.68 96.6725 275.522 96.7394 275.214 96.8537C274.992 96.936 274.486 97.0856 274.486 97.0856" stroke="#181818" stroke-width="0.193365"/>
<path id="Vector 19_12" d="M267.352 97.6948C267.352 97.6948 266.793 97.4569 266.469 97.145C266.178 96.865 266.15 96.4797 266.15 96.4797C266.15 96.4797 266.309 96.5452 266.618 96.6569C266.84 96.7373 267.348 96.8825 267.348 96.8825" stroke="#181818" stroke-width="0.193365"/>
<g id="Group 15_12">
<path id="Vector 15_12" d="M273.642 96.7847C273.642 96.7847 271.978 96.3968 270.895 96.3755C269.813 96.3542 268.138 96.6763 268.138 96.6763" stroke="#181818" stroke-width="0.193365"/>
<path id="Rectangle 47_12" d="M275.325 103.585C275.375 103.908 275.137 104.201 274.812 104.215C273.844 104.256 272.096 104.318 270.835 104.294C269.568 104.269 267.812 104.137 266.849 104.057C266.529 104.031 266.302 103.736 266.356 103.418L267.387 97.3745C267.408 97.2496 267.397 97.1212 267.355 97.0015L266.671 95.0629C266.551 94.7232 266.783 94.3657 267.139 94.34C268.126 94.2688 269.788 94.1678 271.001 94.1916C272.198 94.2152 273.829 94.3778 274.817 94.4878C275.183 94.5285 275.402 94.9119 275.253 95.2495L274.43 97.1199C274.373 97.25 274.354 97.3939 274.376 97.5346L275.325 103.585Z" stroke="#181818" stroke-width="0.193365"/>
</g>
</g>
<path id="table_6" d="M299.454 131C299.454 147.403 286.873 160.668 271.393 160.668C255.912 160.668 243.332 147.403 243.332 131C243.332 114.597 255.912 101.332 271.393 101.332C286.873 101.332 299.454 114.597 299.454 131Z" fill="#A44637" stroke="#181818" stroke-width="0.664431"/>
<text id="VIP 1" fill="white" xml:space="preserve" style="white-space: pre" font-family="Futura PT" font-size="12" font-weight="600" letter-spacing="0em"><tspan x="257" y="134.592">VIP 1</tspan></text>
</g>
<g id="vip2">
<g id="chair2_13">
<path id="Vector 16_13" d="M251.559 60.6342C251.559 60.6342 252.236 60.7718 252.616 61.0026C252.956 61.2096 253.061 61.5799 253.061 61.5799C253.061 61.5799 252.893 61.5522 252.569 61.5137C252.336 61.486 251.988 61.5901 251.988 61.5901" stroke="#181818" stroke-width="0.193365"/>
<path id="Vector 18_13" d="M249.063 55.4541C249.063 55.4541 249.345 54.771 249.386 54.301C249.423 53.8793 249.203 53.5743 249.203 53.5743C249.203 53.5743 249.128 53.7402 248.973 54.0515C248.861 54.2754 248.584 54.5263 248.584 54.5263" stroke="#181818" stroke-width="0.193365"/>
<path id="Vector 17_13" d="M243.641 57.5712C243.641 57.5712 243.099 57.101 242.692 56.9396C242.327 56.7947 242.006 56.9528 242.006 56.9528C242.006 56.9528 242.137 57.0737 242.377 57.3169C242.551 57.4918 242.916 57.9099 242.916 57.9099" stroke="#181818" stroke-width="0.193365"/>
<path id="Vector 19_13" d="M246.863 64.5046C246.863 64.5046 246.944 65.1567 246.853 65.6173C246.771 66.0307 246.477 66.2408 246.477 66.2408C246.477 66.2408 246.452 66.0566 246.391 65.7055C246.348 65.4529 246.217 64.894 246.217 64.894" stroke="#181818" stroke-width="0.193365"/>
<g id="Group 15_13">
<path id="Vector 15_13" d="M243.085 58.8675C243.085 58.8675 243.583 60.6572 244.091 61.7116C244.599 62.7659 245.669 64.2302 245.669 64.2302" stroke="#181818" stroke-width="0.193365"/>
<path id="Rectangle 47_13" d="M247.636 54.0603C247.892 53.8381 248.265 53.8995 248.425 54.1908C248.924 55.0995 249.834 56.778 250.432 58.0189C251.034 59.2666 251.79 61.0479 252.191 62.0079C252.318 62.3124 252.159 62.6747 251.851 62.7828L246.634 64.6165C246.497 64.6645 246.376 64.7535 246.284 64.8725L245.158 66.336C244.923 66.6409 244.487 66.6244 244.299 66.3034C243.764 65.3857 242.875 63.8257 242.304 62.6415C241.741 61.4742 241.079 59.822 240.688 58.8165C240.547 58.4563 240.801 58.0481 241.176 58.0297L242.921 57.9445C243.08 57.9367 243.235 57.8734 243.36 57.7645L247.636 54.0603Z" stroke="#181818" stroke-width="0.193365"/>
</g>
</g>
<g id="chair2_14">
<path id="Vector 16_14" d="M293.128 55.6158C293.128 55.6158 292.831 54.9364 292.779 54.467C292.733 54.0456 292.946 53.7376 292.946 53.7376C292.946 53.7376 293.024 53.9025 293.187 54.2117C293.304 54.4342 293.586 54.6814 293.586 54.6814" stroke="#181818" stroke-width="0.193365"/>
<path id="Vector 18_14" d="M290.75 60.8304C290.75 60.8304 290.076 60.9773 289.702 61.2132C289.367 61.4249 289.27 61.7967 289.27 61.7967C289.27 61.7967 289.437 61.7667 289.76 61.7238C289.993 61.6929 290.342 61.7923 290.342 61.7923" stroke="#181818" stroke-width="0.193365"/>
<path id="Vector 17_14" d="M295.521 64.4011C295.521 64.4011 295.491 65.1535 295.611 65.6076C295.718 66.0152 296.025 66.2068 296.025 66.2068C296.025 66.2068 296.038 66.0214 296.077 65.6673C296.105 65.4125 296.2 64.8466 296.2 64.8466" stroke="#181818" stroke-width="0.193365"/>
<path id="Vector 19_14" d="M298.774 57.5266C298.774 57.5266 299.211 57.0763 299.607 56.8901C299.963 56.7231 300.292 56.8611 300.292 56.8611C300.292 56.8611 300.17 56.9899 299.945 57.2474C299.783 57.4326 299.445 57.8724 299.445 57.8724" stroke="#181818" stroke-width="0.193365"/>
<g id="Group 15_14">
<path id="Vector 15_14" d="M296.812 64.1414C296.812 64.1414 297.849 62.6623 298.333 61.6009C298.817 60.5395 299.274 58.7428 299.274 58.7428" stroke="#181818" stroke-width="0.193365"/>
<path id="Rectangle 47_14" d="M290.552 62.9012C290.237 62.8036 290.065 62.4384 290.187 62.1269C290.568 61.1574 291.279 59.379 291.849 58.1303C292.421 56.8747 293.299 55.1727 293.776 54.2605C293.928 53.9707 294.29 53.8999 294.55 54.1086L298.994 57.6663C299.109 57.7585 299.246 57.8139 299.387 57.8259L299.39 57.7267L299.387 57.8259L301.146 57.9743C301.509 58.005 301.752 58.4 301.623 58.7524C301.257 59.7586 300.622 61.4511 300.078 62.6432C299.542 63.8184 298.704 65.3633 298.188 66.2933C298.002 66.6268 297.552 66.6411 297.318 66.321L296.221 64.8202C296.122 64.6847 295.986 64.5856 295.832 64.538L290.552 62.9012Z" stroke="#181818" stroke-width="0.193365"/>
</g>
</g>
<g id="chair2_15">
<path id="Vector 16_15" d="M248.821 32.3294C248.821 32.3294 249.032 33.0463 249.026 33.5192C249.021 33.9436 248.772 34.2174 248.772 34.2174C248.772 34.2174 248.714 34.0425 248.591 33.7122C248.503 33.4745 248.253 33.1881 248.253 33.1881" stroke="#181818" stroke-width="0.193365"/>
<path id="Vector 18_15" d="M251.816 27.5115C251.816 27.5115 252.502 27.4651 252.901 27.2863C253.259 27.1258 253.401 26.7716 253.401 26.7716C253.401 26.7716 253.231 26.7768 252.906 26.7718C252.672 26.7681 252.337 26.6182 252.337 26.6182" stroke="#181818" stroke-width="0.193365"/>
<path id="Vector 17_15" d="M247.525 23.2715C247.525 23.2715 247.647 22.5302 247.584 22.0626C247.527 21.6428 247.247 21.4079 247.247 21.4079C247.247 21.4079 247.211 21.5896 247.129 21.9349C247.07 22.1833 246.906 22.73 246.906 22.73" stroke="#181818" stroke-width="0.193365"/>
<path id="Vector 19_15" d="M243.46 29.6052C243.46 29.6052 242.972 29.9873 242.556 30.1134C242.183 30.2267 241.874 30.0414 241.874 30.0414C241.874 30.0414 242.011 29.9318 242.265 29.7098C242.449 29.55 242.838 29.164 242.838 29.164" stroke="#181818" stroke-width="0.193365"/>
<g id="Group 15_15">
<path id="Vector 15_15" d="M246.214 23.3384C246.214 23.3384 245.006 24.6516 244.396 25.6322C243.786 26.6128 243.113 28.326 243.113 28.326" stroke="#181818" stroke-width="0.193365"/>
<path id="Rectangle 47_15" d="M252.275 25.4938C252.571 25.6349 252.692 26.0206 252.531 26.3131C252.035 27.2186 251.114 28.8738 250.398 30.026C249.678 31.1845 248.601 32.7396 248.016 33.5741C247.829 33.8408 247.465 33.8622 247.236 33.6205L243.255 29.4284C243.155 29.3234 243.031 29.2508 242.896 29.2191L241.151 28.8084C240.8 28.7257 240.615 28.3019 240.786 27.9703C241.272 27.0271 242.109 25.4434 242.793 24.3421C243.468 23.2561 244.488 21.848 245.113 21.0026C245.338 20.6981 245.781 20.7436 245.971 21.0905L246.885 22.76C246.965 22.9049 247.084 23.0196 247.226 23.0873L252.275 25.4938Z" stroke="#181818" stroke-width="0.193365"/>
</g>
</g>
<g id="chair2_16">
<path id="Vector 16_16" d="M290.919 27.155C290.919 27.155 290.238 27.0562 289.851 26.8473C289.504 26.6598 289.385 26.2957 289.385 26.2957C289.385 26.2957 289.554 26.3138 289.879 26.3337C290.113 26.348 290.456 26.224 290.456 26.224" stroke="#181818" stroke-width="0.193365"/>
<path id="Vector 18_16" d="M293.6 32.1905C293.6 32.1905 293.344 32.8895 293.32 33.3617C293.298 33.7855 293.529 34.0777 293.529 34.0777C293.529 34.0777 293.597 33.9076 293.741 33.5875C293.845 33.3572 294.112 33.0905 294.112 33.0905" stroke="#181818" stroke-width="0.193365"/>
<path id="Vector 17_16" d="M298.935 29.7628C298.935 29.7628 299.493 30.2018 299.906 30.3398C300.276 30.4637 300.59 30.2873 300.59 30.2873C300.59 30.2873 300.455 30.1739 300.206 29.9446C300.027 29.7797 299.647 29.3827 299.647 29.3827" stroke="#181818" stroke-width="0.193365"/>
<path id="Vector 19_16" d="M295.465 23.0166C295.465 23.0166 295.36 22.3694 295.435 21.9037C295.502 21.4857 295.787 21.2589 295.787 21.2589C295.787 21.2589 295.819 21.4416 295.892 21.7891C295.945 22.0391 296.096 22.5903 296.096 22.5903" stroke="#181818" stroke-width="0.193365"/>
<g id="Group 15_16">
<path id="Vector 15_16" d="M299.443 28.4352C299.443 28.4352 298.881 26.6747 298.335 25.6499C297.789 24.625 296.667 23.2226 296.667 23.2226" stroke="#181818" stroke-width="0.193365"/>
<path id="Rectangle 47_16" d="M295.069 33.5072C294.824 33.7415 294.453 33.698 294.281 33.4144C293.749 32.5342 292.78 30.9103 292.139 29.7052C291.494 28.4937 290.675 26.7585 290.239 25.8212C290.1 25.5226 290.242 25.1521 290.541 25.0277L295.695 22.8905C295.827 22.836 295.942 22.7423 296.027 22.6208L297.108 21.0788C297.329 20.7641 297.76 20.7601 297.96 21.0712C298.527 21.9579 299.472 23.4664 300.085 24.6174C300.69 25.7522 301.411 27.3663 301.839 28.3489C301.993 28.7019 301.761 29.1222 301.391 29.1616L299.635 29.3487C299.479 29.3653 299.331 29.4356 299.212 29.5489L295.069 33.5072Z" stroke="#181818" stroke-width="0.193365"/>
</g>
</g>
<g id="chair2_17">
<path id="Vector 16_17" d="M273.527 70.1842C273.527 70.1842 273.959 69.598 274.323 69.3446C274.65 69.1171 274.995 69.1957 274.995 69.1957C274.995 69.1957 274.893 69.3443 274.708 69.6381C274.575 69.8496 274.493 70.2353 274.493 70.2353" stroke="#181818" stroke-width="0.193365"/>
<path id="Vector 18_17" d="M268.211 70.0721C268.211 70.0721 267.8 69.4681 267.445 69.1995C267.126 68.9585 266.778 69.0225 266.778 69.0225C266.778 69.0225 266.875 69.1753 267.049 69.4767C267.175 69.6935 267.243 70.0824 267.243 70.0824" stroke="#181818" stroke-width="0.193365"/>
<path id="Vector 17_17" d="M267.322 76.3299C267.322 76.3299 266.69 76.6238 266.368 76.938C266.079 77.22 266.053 77.6056 266.053 77.6056C266.053 77.6056 266.211 77.5389 266.519 77.425C266.741 77.343 267.248 77.1941 267.248 77.1941" stroke="#181818" stroke-width="0.193365"/>
<path id="Vector 19_17" d="M274.382 76.5947C274.382 76.5947 274.941 76.8334 275.264 77.1457C275.555 77.4261 275.583 77.8115 275.583 77.8115C275.583 77.8115 275.424 77.7457 275.115 77.6336C274.893 77.5529 274.385 77.407 274.385 77.407" stroke="#181818" stroke-width="0.193365"/>
<g id="Group 15_17">
<path id="Vector 15_17" d="M268.092 77.4969C268.092 77.4969 269.755 77.887 270.837 77.9098C271.919 77.9326 273.595 77.6128 273.595 77.6128" stroke="#181818" stroke-width="0.193365"/>
<path id="Rectangle 47_17" d="M266.416 70.6935C266.366 70.3709 266.605 70.0778 266.93 70.0644C267.898 70.0245 269.646 69.9649 270.907 69.9914C272.173 70.0181 273.929 70.1526 274.892 70.233C275.212 70.2598 275.44 70.5556 275.385 70.8729L274.347 76.9153C274.326 77.0402 274.337 77.1686 274.379 77.2883L275.06 79.2279C275.179 79.5677 274.948 79.9249 274.591 79.9501C273.604 80.02 271.942 80.1187 270.73 80.0932C269.532 80.068 267.901 79.9031 266.913 79.7918C266.548 79.7506 266.329 79.3669 266.478 79.0295L267.303 77.1602C267.361 77.0302 267.38 76.8863 267.358 76.7456L266.416 70.6935Z" stroke="#181818" stroke-width="0.193365"/>
</g>
</g>
<g id="chair2_18">
<path id="Vector 16_18" d="M268.214 17.1044C268.214 17.1044 267.783 17.6913 267.42 17.9452C267.093 18.1731 266.748 18.095 266.748 18.095C266.748 18.095 266.85 17.9462 267.034 17.6521C267.167 17.4405 267.248 17.0547 267.248 17.0547" stroke="#181818" stroke-width="0.193365"/>
<path id="Vector 18_18" d="M273.531 17.209C273.531 17.209 273.942 17.8125 274.298 18.0805C274.617 18.3211 274.964 18.2567 274.964 18.2567C274.964 18.2567 274.867 18.104 274.693 17.8029C274.567 17.5862 274.498 17.1974 274.498 17.1974" stroke="#181818" stroke-width="0.193365"/>
<path id="Vector 17_18" d="M274.412 10.9499C274.412 10.9499 275.044 10.6552 275.366 10.3405C275.655 10.0581 275.68 9.6725 275.68 9.6725C275.68 9.6725 275.522 9.73941 275.214 9.85375C274.992 9.93603 274.486 10.0856 274.486 10.0856" stroke="#181818" stroke-width="0.193365"/>
<path id="Vector 19_18" d="M267.352 10.6948C267.352 10.6948 266.793 10.4568 266.469 10.145C266.178 9.86504 266.15 9.47965 266.15 9.47965C266.15 9.47965 266.309 9.5452 266.618 9.6569C266.84 9.73727 267.348 9.88252 267.348 9.88252" stroke="#181818" stroke-width="0.193365"/>
<g id="Group 15_18">
<path id="Vector 15_18" d="M273.642 9.78473C273.642 9.78473 271.978 9.39682 270.895 9.3755C269.813 9.35419 268.138 9.6763 268.138 9.6763" stroke="#181818" stroke-width="0.193365"/>
<path id="Rectangle 47_18" d="M275.325 16.5853C275.375 16.9079 275.137 17.2014 274.812 17.2152C273.844 17.2564 272.096 17.3184 270.835 17.2936C269.568 17.2686 267.812 17.1366 266.849 17.0575C266.529 17.0312 266.302 16.7357 266.356 16.4183L267.387 10.3745C267.408 10.2496 267.397 10.1212 267.355 10.0015L266.671 8.06287C266.551 7.7232 266.783 7.36569 267.139 7.33995C268.126 7.26876 269.788 7.16774 271.001 7.19162C272.198 7.21521 273.829 7.37779 274.817 7.48778C275.183 7.52845 275.402 7.91185 275.253 8.24946L274.43 10.1199C274.373 10.25 274.354 10.3939 274.376 10.5346L275.325 16.5853Z" stroke="#181818" stroke-width="0.193365"/>
</g>
</g>
<path id="table_7" d="M299.454 44C299.454 60.4025 286.873 73.6678 271.393 73.6678C255.912 73.6678 243.332 60.4025 243.332 44C243.332 27.5975 255.912 14.3322 271.393 14.3322C286.873 14.3322 299.454 27.5975 299.454 44Z" fill="#A44637" stroke="#181818" stroke-width="0.664431"/>
<text id="VIP 2" fill="white" xml:space="preserve" style="white-space: pre" font-family="Futura PT" font-size="12" font-weight="600" letter-spacing="0em"><tspan x="257" y="47.592">VIP 2</tspan></text>
</g>
<g id="vip3">
<g id="chair2_19">
<path id="Vector 16_19" d="M158.54 48.9825C158.54 48.9825 158.456 47.9987 158.601 47.4148C158.732 46.8908 159.154 46.6625 159.154 46.6625C159.154 46.6625 159.183 46.9053 159.257 47.3701C159.31 47.7045 159.571 48.1714 159.571 48.1714" stroke="#181818" stroke-width="0.262242"/>
<path id="Vector 18_19" d="M153.015 53.618C153.015 53.618 152.056 53.3687 151.454 53.4119C150.914 53.4506 150.616 53.8266 150.616 53.8266C150.616 53.8266 150.851 53.8961 151.298 54.0479C151.62 54.1571 152.037 54.4926 152.037 54.4926" stroke="#181818" stroke-width="0.262242"/>
<path id="Vector 17_19" d="M157.7 60.7965C157.7 60.7965 157.317 61.6614 157.269 62.2698C157.226 62.816 157.544 63.2327 157.544 63.2327C157.544 63.2327 157.646 63.0232 157.859 62.6316C158.012 62.3498 158.396 61.7449 158.396 61.7449" stroke="#181818" stroke-width="0.262242"/>
<path id="Vector 19_19" d="M165.139 54.7594C165.139 54.7594 165.923 54.5039 166.532 54.5334C167.079 54.5598 167.452 54.9281 167.452 54.9281C167.452 54.9281 167.231 55.0026 166.816 55.1642C166.517 55.2804 165.869 55.585 165.869 55.585" stroke="#181818" stroke-width="0.262242"/>
<g id="Group 15_19">
<path id="Vector 15_19" d="M159.527 61.3001C159.527 61.3001 161.573 60.2119 162.698 59.2683C163.822 58.3248 165.247 56.501 165.247 56.501" stroke="#181818" stroke-width="0.262242"/>
<path id="Rectangle 47_19" d="M151.739 55.8555C151.4 55.5712 151.382 55.0584 151.702 54.7544C152.654 53.8489 154.384 52.2261 155.694 51.1271C157.01 50.0226 158.922 48.591 159.976 47.8128C160.326 47.5542 160.823 47.6527 161.051 48.0252L165.39 55.1175C165.48 55.2641 165.606 55.3855 165.756 55.4701L168.184 56.8403C168.609 57.0803 168.692 57.6518 168.351 57.9964C167.406 58.9492 165.798 60.5351 164.539 61.5922C163.295 62.6361 161.483 63.9255 160.375 64.6944C159.966 64.9787 159.4 64.7827 159.25 64.3053L158.422 61.6607C158.365 61.4767 158.255 61.3131 158.107 61.1891L151.739 55.8555Z" stroke="#181818" stroke-width="0.262242"/>
</g>
</g>
<g id="chair2_20">
<path id="Vector 16_20" d="M139.373 53.4821C139.373 53.4821 140.328 53.2292 140.928 53.2707C141.467 53.3079 141.765 53.6844 141.765 53.6844C141.765 53.6844 141.531 53.7548 141.086 53.9085C140.766 54.019 140.351 54.3569 140.351 54.3569" stroke="#181818" stroke-width="0.262242"/>
<path id="Vector 18_20" d="M133.849 48.8464C133.849 48.8464 133.928 47.8589 133.781 47.2734C133.649 46.7479 133.227 46.5201 133.227 46.5201C133.227 46.5201 133.199 46.7638 133.127 47.2304C133.076 47.5662 132.818 48.0355 132.818 48.0355" stroke="#181818" stroke-width="0.262242"/>
<path id="Vector 17_20" d="M127.593 54.7067C127.593 54.7067 126.675 54.48 126.067 54.5383C125.522 54.5907 125.167 54.9761 125.167 54.9761C125.167 54.9761 125.391 55.0401 125.813 55.1816C126.117 55.2834 126.78 55.5568 126.78 55.5568" stroke="#181818" stroke-width="0.262242"/>
<path id="Vector 19_20" d="M134.83 60.9847C134.83 60.9847 135.218 61.7117 135.295 62.3169C135.364 62.8601 135.066 63.2912 135.066 63.2912C135.066 63.2912 134.954 63.087 134.723 62.706C134.556 62.432 134.144 61.8464 134.144 61.8464" stroke="#181818" stroke-width="0.262242"/>
<g id="Group 15_20">
<path id="Vector 15_20" d="M127.414 56.5937C127.414 56.5937 128.841 58.4197 129.966 59.3632C131.09 60.3068 133.134 61.3928 133.134 61.3928" stroke="#181818" stroke-width="0.262242"/>
<path id="Rectangle 47_20" d="M131.424 47.9785C131.645 47.5948 132.147 47.4882 132.502 47.7502C133.559 48.5306 135.457 49.9529 136.767 51.0519C138.083 52.1564 139.825 53.7904 140.775 54.6936C141.09 54.9937 141.079 55.4997 140.752 55.7889L134.521 61.2942C134.392 61.408 134.295 61.5529 134.237 61.7152L133.31 64.3443C133.147 64.805 132.599 64.9857 132.2 64.7092C131.098 63.9447 129.257 62.6366 127.997 61.5795C126.753 60.5356 125.168 58.9753 124.219 58.0183C123.868 57.6645 123.963 57.0729 124.407 56.8429L126.867 55.5681C127.039 55.4794 127.181 55.3434 127.277 55.176L131.424 47.9785Z" stroke="#181818" stroke-width="0.262242"/>
</g>
</g>
<path id="table_8" d="M166.722 37.0619C166.722 49.1243 157.471 58.8795 146.086 58.8795C134.702 58.8795 125.451 49.1243 125.451 37.0619C125.451 24.9995 134.702 15.2443 146.086 15.2443C157.471 15.2443 166.722 24.9995 166.722 37.0619Z" fill="#37A463" stroke="#181818" stroke-width="0.488621"/>
<g id="chair_19">
<path id="Rectangle 36_19" d="M93.1051 23.0815C94.7577 23.3516 96.1285 24.512 96.5146 26.1196C96.653 26.6955 96.7785 27.2933 96.8605 27.8425C97.0143 28.8725 97.1351 29.7776 97.146 30.8221C97.1579 31.9576 96.93 33.6599 96.8634 34.157L96.86 34.1827C96.838 34.3472 96.6864 35.0391 96.4966 35.8745C96.0744 37.7329 94.5047 39.1078 92.6062 39.3017L86.9963 39.8746C84.3572 40.1442 82.0637 38.073 82.0637 35.4201V26.5461C82.0637 23.7849 84.5384 21.6817 87.2635 22.127L93.1051 23.0815Z" fill="white" stroke="#3F3F3F" stroke-width="0.471336"/>
<path id="Rectangle 32_19" d="M92.114 23.9815C93.7109 24.1897 95.0831 25.2264 95.5314 26.7448C95.6729 27.2241 95.7996 27.7152 95.8843 28.1681C96.0567 29.0893 96.1911 29.8944 96.2033 30.8228C96.2165 31.8326 95.9618 33.3513 95.8872 33.796L95.8835 33.8178C95.8618 33.9477 95.7183 34.4756 95.5283 35.1462C95.0249 36.9233 93.4587 38.1909 91.6142 38.3413L84.0771 38.9555C81.4694 39.1681 79.2357 37.109 79.2357 34.4927V27.4016C79.2357 24.6987 81.6122 22.612 84.2924 22.9615L92.114 23.9815Z" fill="white" stroke="#3F3F3F" stroke-width="0.471336"/>
<path id="Vector 4_19" d="M95.0254 25.9098C95.0254 25.9098 94.5618 29.0899 94.5542 30.9736C94.5462 32.9386 95.0254 35.9879 95.0254 35.9879" stroke="#3F3F3F" stroke-width="0.471336"/>
</g>
<g id="chair_20">
<path id="Rectangle 36_20" d="M93.1052 43.6569C94.7578 43.927 96.1286 45.0873 96.5147 46.695C96.6531 47.2709 96.7786 47.8686 96.8606 48.4178C97.0144 49.4479 97.1352 50.353 97.1461 51.3975C97.158 52.5329 96.9301 54.2353 96.8636 54.7324L96.8601 54.7581C96.8381 54.9226 96.6865 55.6145 96.4967 56.4499C96.0745 58.3083 94.5048 59.6832 92.6064 59.877L86.9964 60.45C84.3573 60.7195 82.0638 58.6483 82.0638 55.9955V47.1214C82.0638 44.3602 84.5385 42.2571 87.2636 42.7023L93.1052 43.6569Z" fill="white" stroke="#3F3F3F" stroke-width="0.471336"/>
<path id="Rectangle 32_20" d="M92.114 44.5573C93.7109 44.7655 95.0831 45.8022 95.5314 47.3206C95.6729 47.7999 95.7996 48.291 95.8843 48.744C96.0567 49.6651 96.1911 50.4703 96.2033 51.3987C96.2165 52.4084 95.9618 53.9271 95.8872 54.3718L95.8835 54.3936C95.8618 54.5235 95.7183 55.0514 95.5283 55.722C95.0249 57.4991 93.4587 58.7668 91.6142 58.9171L84.0771 59.5314C81.4694 59.7439 79.2357 57.6849 79.2357 55.0685V47.9774C79.2357 45.2746 81.6122 43.1878 84.2924 43.5373L92.114 44.5573Z" fill="white" stroke="#3F3F3F" stroke-width="0.471336"/>
<path id="Vector 4_20" d="M95.0254 46.4856C95.0254 46.4856 94.5618 49.6657 94.5542 51.5494C94.5462 53.5144 95.0254 56.5637 95.0254 56.5637" stroke="#3F3F3F" stroke-width="0.471336"/>
</g>
<g id="chair_21">
<path id="Rectangle 36_21" d="M39.3177 27.9418C37.7081 27.723 36.3335 26.662 35.8971 25.1244C35.7573 24.6319 35.632 24.1266 35.5483 23.6606C35.3797 22.7216 35.2481 21.9 35.2362 20.9524C35.2232 19.922 35.4725 18.3731 35.5454 17.9197L35.549 17.8973C35.5707 17.7622 35.7146 17.2113 35.9034 16.5171C36.3915 14.7226 37.9602 13.4338 39.8166 13.2761L46.9629 12.6691C49.5759 12.4471 51.8195 14.5082 51.8195 17.1307V24.5135C51.8195 27.2261 49.4268 29.3157 46.7388 28.9504L39.3177 27.9418Z" fill="white" stroke="#3F3F3F" stroke-width="0.471336"/>
<path id="Rectangle 32_21" d="M40.3676 27.1272C38.8408 26.9616 37.4933 26.0417 36.9929 24.6234C36.8424 24.1969 36.7085 23.7623 36.6183 23.3615C36.4294 22.5218 36.2832 21.7922 36.2699 20.9518C36.2555 20.0372 36.5339 18.6565 36.6157 18.251L36.6194 18.2323C36.629 18.1847 36.6677 18.0533 36.7333 17.849C36.7969 17.6509 36.8813 17.3979 36.9766 17.1171C37.549 15.4313 39.0933 14.2678 40.8741 14.1471L50.1401 13.519C52.7263 13.3437 54.9206 15.3943 54.9206 17.9864V23.716C54.9206 26.3801 52.6086 28.4548 49.9601 28.1676L40.3676 27.1272Z" fill="white" stroke="#3F3F3F" stroke-width="0.471336"/>
<path id="Vector 4_21" d="M37.5847 25.4331C37.5847 25.4331 38.093 22.5329 38.1014 20.815C38.1101 19.0229 37.5847 16.242 37.5847 16.242" stroke="#3F3F3F" stroke-width="0.471336"/>
</g>
<g id="chair_22">
<path id="Rectangle 36_22" d="M39.3178 68.8096C37.7081 68.5908 36.3335 67.5298 35.8971 65.9922C35.7573 65.4997 35.632 64.9944 35.5483 64.5284C35.3797 63.5894 35.2481 62.7678 35.2362 61.8202C35.2232 60.7898 35.4725 59.2409 35.5454 58.7875L35.549 58.7651C35.5708 58.63 35.7146 58.0791 35.9035 57.3849C36.3915 55.5904 37.9603 54.3016 39.8166 54.1439L46.9629 53.5369C49.576 53.3149 51.8196 55.376 51.8196 57.9985V65.3813C51.8196 68.0939 49.4268 70.1835 46.7389 69.8182L39.3178 68.8096Z" fill="white" stroke="#3F3F3F" stroke-width="0.471336"/>
<path id="Rectangle 32_22" d="M40.3676 67.995C38.8408 67.8294 37.4933 66.9094 36.9929 65.4912C36.8425 65.0646 36.7085 64.63 36.6183 64.2293C36.4294 63.3895 36.2832 62.66 36.2699 61.8195C36.2555 60.9049 36.5339 59.5243 36.6157 59.1187L36.6194 59.1001C36.629 59.0525 36.6677 58.9211 36.7333 58.7167C36.7969 58.5186 36.8813 58.2656 36.9767 57.9849C37.549 56.2991 39.0934 55.1356 40.8741 55.0148L50.1401 54.3868C52.7263 54.2115 54.9206 56.262 54.9206 58.8542V64.5838C54.9206 67.2478 52.6086 69.3226 49.9601 69.0353L40.3676 67.995Z" fill="white" stroke="#3F3F3F" stroke-width="0.471336"/>
<path id="Vector 4_22" d="M37.5844 66.301C37.5844 66.301 38.0927 63.4008 38.1011 61.6829C38.1098 59.8909 37.5844 57.11 37.5844 57.11" stroke="#3F3F3F" stroke-width="0.471336"/>
</g>
<g id="chair_23">
<path id="Rectangle 36_23" d="M39.3177 48.2405C37.7081 48.0218 36.3335 46.9607 35.8971 45.4231C35.7573 44.9306 35.632 44.4253 35.5483 43.9593C35.3797 43.0203 35.2481 42.1987 35.2362 41.2511C35.2232 40.2207 35.4725 38.6718 35.5454 38.2184L35.549 38.196C35.5707 38.0609 35.7146 37.51 35.9034 36.8158C36.3915 35.0213 37.9602 33.7325 39.8166 33.5748L46.9629 32.9678C49.5759 32.7458 51.8195 34.8069 51.8195 37.4294V44.8122C51.8195 47.5248 49.4268 49.6144 46.7389 49.2491L39.3177 48.2405Z" fill="white" stroke="#3F3F3F" stroke-width="0.471336"/>
<path id="Rectangle 32_23" d="M40.3676 47.4259C38.8408 47.2603 37.4933 46.3404 36.9929 44.9221C36.8424 44.4956 36.7085 44.0609 36.6183 43.6602C36.4294 42.8204 36.2832 42.0909 36.2699 41.2504C36.2555 40.3359 36.5339 38.9552 36.6157 38.5496L36.6194 38.531C36.629 38.4834 36.6677 38.352 36.7333 38.1477C36.7969 37.9495 36.8813 37.6965 36.9766 37.4158C37.549 35.73 39.0933 34.5665 40.8741 34.4458L50.1401 33.8177C52.7263 33.6424 54.9206 35.6929 54.9206 38.2851V44.0147C54.9206 46.6787 52.6086 48.7535 49.9601 48.4663L40.3676 47.4259Z" fill="white" stroke="#3F3F3F" stroke-width="0.471336"/>
<path id="Vector 4_23" d="M37.5844 45.7319C37.5844 45.7319 38.0927 42.8317 38.1011 41.1138C38.1098 39.3218 37.5844 36.5409 37.5844 36.5409" stroke="#3F3F3F" stroke-width="0.471336"/>
</g>
<path id="table_9" d="M48.7778 77.6222C46.9 77.6222 45.3778 76.1 45.3778 74.2222L45.3778 3.77778C45.3778 1.90002 46.9 0.377777 48.7778 0.377777H83.2222C85.1 0.377777 86.6222 1.90001 86.6222 3.77778V74.2222C86.6222 76.1 85.1 77.6222 83.2222 77.6222H48.7778Z" fill="#37A463" stroke="#3F3F3F" stroke-width="0.755555"/>
<text id="VIP 3" fill="white" xml:space="preserve" style="white-space: pre" font-family="Futura PT" font-size="12" font-weight="600" letter-spacing="0em"><tspan x="52" y="42.592">VIP 3</tspan></text>
</g>
</g>
</g>
</svg>
